<?xml version="1.0" encoding="UTF-8"?><svg id="Layer_1" xmlns="http://www.w3.org/2000/svg" viewBox="0 0 161.81 157.76"><g id="Layer_2_1_-8"><g id="Surfaces"><g id="Video_Audio_Surface"><g id="Outline_no_shadow-3"><path id="path2194" d="M28.65,0h104.5c15.84,0,28.65,12.81,28.65,28.65v100.46c0,15.84-12.81,28.65-28.65,28.65H28.65c-15.84,0-28.65-12.81-28.65-28.65V28.65C0,12.81,12.81,0,28.65,0Z" style="fill:#00005b; stroke-width:0px;"/></g></g></g><g id="Outlined_Mnemonics_Logos"><g id="Ae"><path id="path2199" d="M64.99,94.39h-25.08l-5.12,15.91c-.13.61-.67,1.01-1.28.94h-12.68c-.74,0-.94-.4-.74-1.21l21.71-62.23c.2-.67.4-1.28.67-2.09.27-1.42.4-2.9.4-4.38-.07-.34.2-.67.54-.74h17.46c.47,0,.81.2.88.54l24.61,69.11c.2.74,0,1.08-.67,1.08h-14.09c-.47.07-.94-.27-1.08-.74l-5.53-16.18ZM43.82,80.97h17.12c-.4-1.42-.94-3.1-1.55-4.85-.61-1.82-1.21-3.77-1.82-5.8-.67-2.09-1.28-4.11-1.96-6.2-.67-2.09-1.28-4.05-1.82-6-.54-1.89-1.01-3.64-1.48-5.26h-.13c-.61,2.9-1.35,5.8-2.29,8.7-1.01,3.24-2.02,6.61-3.1,9.98-.88,3.44-1.95,6.61-2.97,9.44h0Z" style="fill:#99f; stroke-width:0px;"/><path id="path2201" d="M126.35,88.19h-21.37c.27,2.09.94,4.18,2.09,6,1.21,1.82,2.9,3.24,4.92,4.04,2.7,1.15,5.66,1.75,8.63,1.69,2.36-.07,4.72-.27,7.01-.74,2.09-.27,4.11-.81,6-1.55.34-.27.54-.14.54.54v10.32c0,.27-.07.54-.13.81-.13.2-.27.34-.47.47-2.16.94-4.38,1.62-6.74,2.02-3.17.61-6.34.88-9.57.81-5.12,0-9.44-.81-12.94-2.36-3.3-1.42-6.2-3.64-8.5-6.41-2.16-2.63-3.71-5.59-4.65-8.83-.94-3.17-1.42-6.47-1.42-9.84,0-3.64.54-7.21,1.68-10.72,1.08-3.37,2.76-6.47,5.06-9.24,2.22-2.7,4.99-4.85,8.16-6.4,3.17-1.55,6.94-2.09,11.26-2.09,3.57-.07,7.15.61,10.45,2.09,2.76,1.21,5.19,3.03,7.08,5.39,1.75,2.29,3.17,4.85,4.05,7.69.88,2.7,1.28,5.46,1.28,8.23,0,1.62-.07,3.03-.13,4.31-.13,1.28-.2,2.22-.27,2.83-.07.47-.47.88-.94.88-.4,0-1.15.07-2.23.13-1.08.14-2.36.2-3.91.2s-3.17-.27-4.92-.27h0ZM104.97,78.34h14.23c1.75,0,3.03,0,3.84-.07.54-.07,1.08-.2,1.55-.54v-.67c0-.88-.14-1.69-.4-2.49-1.21-3.78-4.79-6.34-8.76-6.2-3.71-.2-7.21,1.75-8.97,5.12-.81,1.55-1.28,3.17-1.48,4.85Z" style="fill:#99f; stroke-width:0px;"/></g></g></g></svg>