<?xml version="1.0" encoding="UTF-8"?>
<svg id="Camada_1" data-name="Camada 1" xmlns="http://www.w3.org/2000/svg" version="1.1" viewBox="0 0 186.7 322.8">
  <defs>
    <style>
      .cls-1 {
        fill: #fff;
        stroke-width: 0px;
      }
    </style>
  </defs>
  <path class="cls-1" d="M114.4,74.9v224.1c0,10.9-5.2,19-14.3,22.4-14.2,5.3-29.3-4.7-30-19.9,0-1.4,0-2.7,0-4.1V75.2c-1.6,1.5-2.6,2.3-3.5,3.3-9.6,9.7-19,19.5-28.7,29-12.2,12.1-32.3,7.2-37-9.1-2.5-8.6-.1-16.2,6.2-22.6,20.3-20.5,40.5-41,60.8-61.6,2.5-2.5,4.9-5,7.4-7.5,8.7-8.4,21.1-9.1,30.2-1.2,9,7.9,17.6,16.3,26.2,24.6,16,15.4,32,30.8,48,46.3,6.3,6.1,8.4,13.6,6.2,21.9-2.1,8.1-7.6,13.4-15.7,15.5-8.1,2.1-15.3,0-21.4-5.9-10.2-9.8-20.3-19.6-30.4-29.4-1.1-1-2.1-2-4-3.7h0Z"/>
</svg>