<?xml version="1.0" encoding="UTF-8"?><svg id="Camada_1" xmlns="http://www.w3.org/2000/svg" viewBox="0 0 768.9 515.76"><path d="M745.61,4.69c-243.86-1.45-487.62.08-731.28,4.6,1.92-3.32,4.99-5.62,9.2-6.9C265-1.44,505.69-.67,745.61,4.69Z" style="fill:#90c296; fill-rule:evenodd; stroke-width:0px;"/><path d="M754.81,13.89c6.13,3.07,10.73,7.67,13.8,13.8.77,154.85,0,309.69-2.3,464.52-4.85,11.76-13.28,19.42-25.3,23-236.05-8.42-473.67-12.25-712.88-11.5-3.27-5.77-7.1-11.13-11.5-16.1-2.3-154.83-3.07-309.67-2.3-464.52,8.32.04,15.98-2.26,23-6.9,233.22-.79,466.24-3.09,699.08-6.9,5.68,3.43,11.82,4.96,18.4,4.6Z" style="fill:#56b65b; fill-rule:evenodd; stroke-width:0px;"/><path d="M377.67,64.48c118.06,63.62,234.58,129.54,349.54,197.77-114.56,64.17-229.54,127.03-344.94,188.57-110.65-57.64-221.03-116.66-331.14-177.07-8.71-4.96-10.24-11.1-4.6-18.4,112.04-60.66,222.42-124.28,331.14-190.87Z" style="fill:#f5e528; fill-rule:evenodd; stroke-width:0px;"/><path d="M419.07,138.07c41.2,13.61,68.8,41.2,82.79,82.79,3.82,18.29,4.59,36.68,2.3,55.19-21.85-18.21-45.62-33.54-71.29-45.99-3.04-13.16-9.94-16.22-20.7-9.2-45.92-11.9-92.68-16.5-140.28-13.8v-9.2c12.62-23.35,31.01-40.22,55.19-50.59,29.97-8.14,60.63-11.2,91.98-9.2Z" style="fill:#1e63ac; fill-rule:evenodd; stroke-width:0px;"/><path d="M271.89,197.86v9.2c23.64,4.54,48.17,6.08,73.59,4.6v13.8c-28.47-1.49-56.06.05-82.79,4.6h-4.6c5.32-10.69,9.92-21.42,13.8-32.19Z" style="fill:#c2e3c0; fill-rule:evenodd; stroke-width:0px;"/><path d="M258.1,230.05h4.6c89.52-8.46,169.24,14.54,239.16,68.99-27.2,68.81-77.79,97.18-151.77,85.09-71.1-26.89-101.76-78.25-91.98-154.07Z" style="fill:#2065ad; fill-rule:evenodd; stroke-width:0px;"/><path d="M271.89,207.06c47.6-2.7,94.35,1.89,140.28,13.8,10.75-7.02,17.65-3.96,20.7,9.2,25.67,12.45,49.44,27.78,71.29,45.99,2.29-18.51,1.52-36.9-2.3-55.19,7.05,9.81,10.12,21.31,9.2,34.49.36,15.87-2.7,30.44-9.2,43.69-69.92-54.45-149.64-77.45-239.16-68.99,26.72-4.55,54.32-6.08,82.79-4.6v-13.8c-25.42,1.48-49.95-.06-73.59-4.6Z" style="fill:#b6d4cc; fill-rule:evenodd; stroke-width:0px;"/><path d="M745.61,4.69c3.07,3.07,6.13,6.13,9.2,9.2-6.58.36-12.71-1.17-18.4-4.6-232.84,3.81-465.86,6.11-699.08,6.9-7.01,4.64-14.68,6.94-23,6.9-.77,154.85,0,309.69,2.3,464.52,4.4,4.96,8.23,10.33,11.5,16.1,239.21-.75,476.83,3.08,712.88,11.5-242.42,1.49-484.64-.04-726.68-4.6-6.55-6.54-11.15-14.21-13.8-23C-.93,332.57.6,177.73,5.14,23.09c-.34-7.02,2.73-11.62,9.2-13.8,243.65-4.52,487.41-6.05,731.28-4.6Z" style="fill:#4da752; fill-rule:evenodd; stroke-width:0px;"/></svg>