<?xml version="1.0" encoding="UTF-8"?><svg id="Camada_1" xmlns="http://www.w3.org/2000/svg" viewBox="0 0 864 579.97"><path d="M0,579.97V.68c.13-.12.23-.22.33-.3.1-.08.21-.18.32-.19C1.3.12,1.95,0,2.6,0c286.67,0,573.34.02,860.01.05.37,0,.74.17,1.39.33v579.6H0ZM59,289.92c1.22.93,1.89,1.53,2.64,2.01,4.31,2.73,8.65,5.41,12.96,8.13,15.7,9.91,31.38,19.86,47.1,29.76,17.48,11.01,35,21.97,52.48,32.99,17.59,11.09,35.14,22.23,52.73,33.32,13.72,8.65,27.48,17.22,41.2,25.86,15.71,9.9,31.38,19.86,47.1,29.76,19.25,12.13,38.54,24.2,57.79,36.32,18.92,11.92,37.83,23.85,56.71,35.84,1.66,1.06,2.91,1.11,4.6.04,18.33-11.62,36.72-23.16,55.08-34.75,17.48-11.03,34.92-22.1,52.4-33.11,21.13-13.31,42.31-26.55,63.44-39.87,19.36-12.2,38.67-24.48,58.03-36.68,23.01-14.5,46.07-28.92,69.1-43.41,23.46-14.76,46.91-29.56,70.35-44.37.69-.44,1.24-1.11,2.17-1.95-124.47-78.42-248.58-156.62-372.85-234.92-124.3,78.32-248.5,156.57-373.03,235.03Z" style="fill:#000; stroke-width:0px;"/><path d="M59,289.92c124.54-78.47,248.73-156.71,373.03-235.03,124.27,78.3,248.38,156.49,372.85,234.92-.93.85-1.47,1.52-2.17,1.95-23.44,14.8-46.89,29.6-70.35,44.37-23.02,14.49-46.08,28.91-69.1,43.41-19.36,12.2-38.67,24.48-58.03,36.68-21.13,13.32-42.31,26.56-63.44,39.87-17.48,11.01-34.93,22.08-52.4,33.11-18.36,11.58-36.75,23.12-55.08,34.75-1.7,1.08-2.94,1.02-4.6-.04-18.88-11.99-37.79-23.92-56.71-35.84-19.25-12.13-38.54-24.2-57.79-36.32-15.71-9.9-31.38-19.86-47.1-29.76-13.72-8.64-27.48-17.22-41.2-25.86-17.59-11.09-35.14-22.23-52.73-33.32-17.48-11.02-35-21.97-52.48-32.99-15.71-9.9-31.39-19.84-47.1-29.76-4.31-2.72-8.65-5.4-12.96-8.13-.75-.47-1.42-1.07-2.64-2.01ZM287.65,268.7c-.27,1.06-.45,1.55-.52,2.06-2.09,15.41-1.91,30.71,1.38,46.01,2.69,12.49,6.66,24.41,12.6,35.74,5.81,11.08,12.92,21.15,21.39,30.34,15.81,17.16,34.68,29.76,56.51,37.85,29.16,10.81,58.93,12.44,89.16,5.21,21.72-5.2,41.26-14.96,58.59-29.02,9.57-7.77,17.99-16.68,25.28-26.7,5.26-7.23,9.57-14.97,13.62-22.88,1.29-2.51,2.11-5.27,3.22-8.1-4.97-3.37-9.54-6.62-14.26-9.63-20.52-13.09-41.78-24.8-64.14-34.49-17.05-7.38-34.49-13.62-52.4-18.52-15.5-4.24-31.21-7.51-47.17-9.6-11.81-1.55-23.63-2.69-35.53-2.97-15.57-.36-31.13-.15-46.62,1.68-6.99.83-13.95,1.98-21.1,3.01ZM514.17,274.54c22.04,10.35,42.43,22.19,62.38,35.34.33-1.15.6-1.76.66-2.39.25-2.34.44-4.68.64-7.03,1.73-19.88-1.29-39.06-8.23-57.74-5.43-14.62-13.23-27.78-23.12-39.79-8.97-10.89-19.35-20.2-31.07-27.98-17.67-11.73-36.98-19.39-57.94-22.89-18.66-3.11-37.24-2.83-55.78.89-21.36,4.28-40.83,12.91-58.43,25.71-10.85,7.89-20.39,17.19-28.65,27.74-6.3,8.05-11.54,16.8-16.02,25.99-.89,1.83-1.51,3.79-2.51,6.35,76.11-10.06,147.79,3.56,216.65,35.06.87-2.36,1.58-4.3,2.31-6.29-1.55-2.04-4.25-2.82-5.99-5.53h7.64c1.01-2.45,1.91-4.65,3.18-7.75,1.42,3.18,2.4,5.39,3.39,7.6,2.41.12,4.65.23,6.88.34.05.29.1.57.16.86-1.82,1.39-3.64,2.79-5.58,4.27.71,2.37,1.4,4.63,2.08,6.9-.22.14-.43.29-.65.43-2.03-1.33-4.05-2.66-6.26-4.11-1.78,1.24-3.45,2.42-5.73,4.02ZM395.19,247.2c-2.31-1.5-3.26-.51-4.22,1.01-1.5,2.37-3.16,4.63-5.26,7.68-1.14-3.66-2.03-6.34-2.8-9.06-.5-1.76-1.33-2.78-3.54-2.04-.76,4.82-1.53,9.67-2.3,14.56,1.57.66,2.32.24,2.55-1.31.29-2.02.65-4.03.99-6.04,1.37,1.22,2.02,2.58,2.6,3.96,1.24,2.91,2.82,3.21,4.79.79.94-1.15,1.73-2.41,2.59-3.62.24.1.49.21.73.31-.28,2.54-.56,5.08-.83,7.56,1.61,1.18,2.24.3,2.49-1.07.77-4.22,1.48-8.45,2.22-12.74ZM322.25,250.68c.4-.16.8-.32,1.2-.47.83.9,1.72,1.76,2.48,2.73.88,1.13,1.62,2.36,2.48,3.52.71.96,1.56,1.26,2.78.16-1.27-2.12-2.53-4.22-3.85-6.43.51-.46.99-.87,1.45-1.29,1.39-1.27,1.9-2.85,1.25-4.61-.68-1.85-2.26-2.39-4.1-2.39-2.17,0-4.35,0-6.99,0,0,4.77-.02,9.05.01,13.34,0,1.11.32,2.31,1.73,1.93.59-.16,1.21-1.21,1.33-1.94.25-1.48.17-3.02.22-4.54ZM336.82,257.5c3.36-.28,6.36-.25,9.22-.83,3.36-.68,5.08-3.28,5.21-6.87.13-3.69-1.36-6.45-4.53-7.36-3.22-.93-6.56-.88-9.9-.22v15.29ZM468.65,267.93c-.05-4.68-3.1-7.41-8.23-7.34-4.43.06-7.97,4.08-7.9,8.96.06,4.12,3.92,7.52,8.44,7.44,4.58-.09,7.74-3.81,7.69-9.06ZM557.86,326.05c4.45.39,8.72-5.55,8.57-9.08-.16-3.64-4.3-7.36-8.32-7.34-4.36.02-8.47,4.5-8.41,9.16.05,4.08,3.64,7.27,8.17,7.26ZM295.88,253.46c-.1,5.26,2.65,8.35,7.57,8.51,4.6.15,8.25-3.31,8.4-7.96.15-4.76-3.14-8.3-7.83-8.41-5.15-.12-8.04,2.67-8.14,7.85ZM497.64,285.36c.63-.17,1.34-.34,2.05-.56,1.68-.53,3.16-1.27,3.37-3.32.2-1.91-.61-3.32-2.21-4.24-1.88-1.07-3.83-2.02-6.08-3.18-2.56,4.66-4.93,8.97-7.4,13.45.79.46,1.42.83,2.19,1.28,1.21-1.97,2.33-3.79,3.36-5.47,2.16.37,2.37,1.7,2.5,3,.14,1.43.1,2.87.22,4.3.11,1.29.6,2.26,2.52,1.92-.17-2.33-.33-4.63-.51-7.19ZM439.85,264.3c2.4,1.06,2.36,3.36,2.96,5.26.52,1.65,1.06,3.14,3.58,3.01-.72-2.6-1.37-4.94-2.06-7.43.63-.31,1.23-.53,1.76-.87,1.43-.93,2.97-1.89,2.71-3.92-.25-1.88-1.63-2.95-3.3-3.5-2.05-.68-4.16-1.16-6.41-1.77-2.31,4.91-3.28,9.71-4.46,14.89,4.45.26,2.94-4.13,5.22-5.67ZM484.08,284.61c.71-1.93,1.37-3.73,2.2-5.98-2.17-.46-3.65-1.97-6.63-1.66,1.68.93,2.65,1.46,3.75,2.07-.52,1.85-.6,3.82-2.8,4.37-1.3.32-4.29-1.36-4.73-2.92-.4-1.42-.45-3.1-.1-4.53.36-1.47,1.24-2.88,2.14-4.14,2.43-3.41,5.83-3.31,8.08.3.69,1.11,1.34,1.34,2.46,1.12-1.18-3.67-5.46-5.99-9.2-5.07-3.88.95-7.03,5.81-6.45,9.97.59,4.28,4.99,6.92,11.29,6.49ZM419.62,249.3c-1.19,5.51-2.19,10.15-3.27,15.19,4.32-.01,2.3-4.12,4.64-5.37.66.1,1.67.4,2.67.36,1.4-.05,2.88-.11,4.18-.58,1.73-.63,2.61-2.19,2.61-3.99,0-1.7-.95-3.05-2.59-3.53-2.56-.77-5.19-1.31-8.24-2.06ZM534.72,309.14c-1.16,2-.41,3.26.58,3.96,1.78,1.25,3.73,2.37,5.78,3.09,1.67.59,3.39,0,4.47-1.63,1-1.53.59-3.05-.31-4.41-1-1.52-2.37-2.84-3.16-4.46-.41-.84-.31-2.46.26-3.1.61-.68,2.18-1.06,3.09-.78.95.29,1.58,1.57,2.42,2.33.57.51,1.28.87,2.4,1.61-.55-4.17-3.51-4.68-5.94-5.6-1.48-.56-3.17-.42-4.34.95-1.29,1.5-1.04,3.21-.13,4.75.79,1.34,1.79,2.57,2.78,3.78,1.02,1.25,1.5,2.54.29,3.85-1.08,1.18-2.64,1.52-3.94.68-1.11-.71-1.87-1.97-2.76-3.01-.47-.56-.88-1.17-1.5-2ZM511.38,282.92c-2.5,4.67-4.85,9.07-7.36,13.75,3.4,1.67,6.44,3.17,9.49,4.67.16-.29.31-.57.47-.86-2.17-1.24-4.34-2.49-6.6-3.78.66-2.16,1.25-4.09,3.35-5.14.91.43,1.72.85,2.56,1.19.87.35,1.76.64,2.65.95.09-.19.18-.38.27-.56-1.72-.99-3.45-1.99-5.36-3.09.9-1.73,1.59-3.06,2.36-4.55,2.6,1.08,4.85,2.02,7.1,2.95.12-.29.24-.58.36-.87-2.95-1.48-5.91-2.96-9.28-4.65ZM521.26,302.01c-.25.2-.5.4-.76.59.38,3.29,3.46,5.91,7.22,6.11,1.93.1,3.76-.3,4.68-2.16.87-1.77-.06-3.21-1.27-4.56-1.12-1.26-2.31-2.57-2.98-4.08-.38-.86-.09-2.4.5-3.17.45-.58,1.99-.76,2.81-.47.96.35,1.65,1.43,2.49,2.15.5.42,1.06.77,2.09,1.5-.56-4.11-3.45-4.6-5.92-5.4-1.87-.61-4.02.28-4.83,1.69-1,1.75-.36,3.27.78,4.67.99,1.21,2.07,2.35,3.03,3.58.88,1.13,1.1,2.36.14,3.59-1.05,1.36-2.55,1.55-3.86.84-1.05-.57-1.8-1.72-2.61-2.68-.57-.68-1.02-1.47-1.52-2.2ZM358.93,243.33c2.58-.19,4.92-.35,7.26-.52-.02-.22-.05-.44-.07-.66h-9.7c-.22,5.2-.31,10.07.02,14.87,6.39.65,8.49.51,10.78-.73-2.91-.2-5.57-.38-8.25-.56v-5.83c2.36-.22,4.39-.4,6.42-.59-.02-.23-.05-.47-.07-.7-2.04-.12-4.08-.25-6.38-.39v-4.88ZM397.27,262.57c.96.33,1.66.68,2.4.81,1.89.31,3.8.52,5.71.77.04-.17.07-.35.11-.52-1.79-.43-3.58-.87-5.55-1.35.15-2.16-.41-4.22,2.15-5.08-2.07-1.16-1.29-2.71-.6-4.46h4.45c.01-.18.02-.36.03-.55-2.11-.28-4.23-.55-6.76-.88-.69,3.98-1.3,7.54-1.94,11.26Z" style="fill:#fff; stroke-width:0px;"/><path d="M287.65,268.7c7.15-1.03,14.1-2.18,21.1-3.01,15.49-1.84,31.05-2.05,46.62-1.68,11.9.28,23.72,1.43,35.53,2.97,15.96,2.09,31.66,5.36,47.17,9.6,17.91,4.89,35.35,11.13,52.4,18.52,22.36,9.69,43.63,21.39,64.14,34.49,4.72,3.01,9.29,6.27,14.26,9.63-1.11,2.84-1.93,5.59-3.22,8.1-4.05,7.91-8.37,15.65-13.62,22.88-7.28,10.02-15.7,18.93-25.28,26.7-17.32,14.06-36.86,23.82-58.59,29.02-30.22,7.24-60,5.6-89.16-5.21-21.83-8.09-40.7-20.69-56.51-37.85-8.47-9.19-15.58-19.26-21.39-30.34-5.94-11.33-9.91-23.25-12.6-35.74-3.3-15.3-3.47-30.6-1.38-46.01.07-.5.25-.99.52-2.06ZM318.47,345.81c-.13.28-.26.56-.38.84,1.66,1.33,3.33,2.67,5.02,4.03-.59,2.17-1.13,4.18-1.91,7.07,2.69-1.76,4.5-2.95,6.16-4.03,2.38.73,3.69,3.13,6.7,3.29-.83-2.46-1.47-4.36-2.04-6.07,1.38-2.05,3.95-2.47,4.92-5.05-2.44-.23-4.57-.43-6.64-.63-.86-2.05-1.62-3.87-2.76-6.58-1.24,2.81-2.06,4.67-2.93,6.64-2.08.17-4.11.34-6.15.5ZM438.12,331.69c-.28.02-.56.05-.84.07-.55,1.29-1.1,2.59-1.63,3.83-1.56.27-2.98.51-4.89.83,1.57,1.36,2.63,2.27,3.61,3.12-.23,1.49-.44,2.81-.76,4.81,1.85-1.13,3.03-1.85,4.11-2.51,1.4.74,2.6,1.37,4.27,2.25-.3-1.93-.51-3.29-.71-4.59,1.15-1.03,2.17-1.94,3.6-3.22-2.07-.27-3.56-.47-4.91-.65-.68-1.46-1.27-2.7-1.85-3.95ZM511.58,394.83c-.71-1.24-1.31-2.31-2.16-3.79-.87,1.54-1.48,2.61-2.06,3.64-1.34.37-2.6.71-4.07,1.11,1.15,1.21,2.32,1.92,2.64,2.91.35,1.09-.07,2.44-.19,4.02,1.45-.78,2.57-1.37,3.68-1.97,1.2.62,2.32,1.2,3.84,1.99-.21-1.63-.37-2.86-.64-4.98.66-.4,1.73-1.05,3.41-2.07-2.02-.4-3.13-.61-4.46-.87ZM544.67,347.17c2.58,1.76,2.27,4.2,1.89,6.89,1.67-.73,2.93-1.29,4.04-1.77,1.28.68,2.36,1.25,3.95,2.1-.44-1.81-.74-3-1.04-4.23.99-.93,1.9-1.79,3.6-3.39-3.57.22-5.69-.86-6.52-4.65-1.15,3.38-2.82,4.9-5.91,5.06ZM532.36,366.94c.88-1.01,1.7-1.94,2.79-3.19-1.7-.23-2.95-.4-4.14-.56-.69-1.13-1.32-2.17-2.17-3.57-.78,1.53-1.34,2.63-1.8,3.52-1.51.27-2.68.48-3.86.69-.18.33-.35.66-.53.99,1.19.58,2.37,1.15,3,1.46-.27,1.97-.42,3.06-.63,4.62,1.6-.67,2.74-1.15,3.87-1.62,1.26.46,2.51.92,4.17,1.53-.3-1.65-.5-2.76-.7-3.86ZM498.35,384.84c-.31,2.06-.49,3.26-.79,5.26,2.84-2.43,5.23-2.16,8.02-.39-.25-1.8-.42-3.01-.57-4.13.89-1,1.67-1.89,2.71-3.07-1.83-.23-3.08-.39-4.2-.53-.61-1.2-1.11-2.19-1.87-3.68-.86,1.53-1.46,2.6-2.08,3.7-1.26.18-2.49.36-3.72.54-.17.25-.33.5-.5.75,1.16.6,2.32,1.2,3,1.55ZM452.78,397.45c1.54,1.4,2.46,2.25,3.23,2.95-.1,1.47-.18,2.66-.28,4.28,1.52-.87,2.51-1.44,3.55-2.03,1.2.59,2.33,1.14,3.85,1.88-.22-1.64-.38-2.88-.55-4.12.98-.92,1.89-1.78,3.16-2.96-1.76-.22-3.01-.37-4.07-.51-1.16-1.04-.77-3.08-2.82-3.28-.59,1.16-1.16,2.28-1.67,3.29-1.4.15-2.54.28-4.4.48ZM539.64,348.84c-2.36-.31-3.61-.47-4.69-.61-.71-1.22-1.3-2.23-2.01-3.45-.93,1.44-1.34,2.72-2.22,3.28-.95.61-2.33.56-3.65.82q2.35,2.96,2.18,7.38c2.33-2.62,4.68-1.84,7.64-.22-1.48-3.4-.19-5.27,2.74-7.19ZM497.4,329.99c2.92-1.82,5.38-2.26,8.42.11-1.04-3.27-.63-5.48,2.08-7.29-1.89-.34-3.14-.57-4.27-.78-.71-1.16-1.33-2.17-2.52-4.11-.28,4.28-3.03,4.33-5.67,5.02,1.28,1.21,2.19,2.06,2.95,2.78-.32,1.36-.58,2.45-1.01,4.26ZM427.17,357c-1.13,1.73-1.83,2.81-2.53,3.88-1,.16-2,.32-3.53.56,2.25,1.74,3.01,3.73,2.11,6.68,1.61-.88,2.59-1.42,3.48-1.91,1.14.49,2.14.92,3.82,1.65-1.35-2.94-.17-4.67,2.18-6.62-3.35.29-4.87-.99-5.54-4.25ZM370.51,324.72c3.1.36,1.58,3.07,2.08,4.25h5.61c.52-1.56,1.1-3.27,1.57-4.69-1.49-.97-2.99-1.96-4.44-2.9-1.16.81-2.64,1.83-4.82,3.35ZM411.44,336.73c.49,1.54,1.05,3.29,1.5,4.7h5.29c.55-1.66,1.12-3.37,1.55-4.65-1.54-1.18-2.94-2.27-4.13-3.18-1.46,1.08-2.9,2.16-4.21,3.13ZM426.31,345.37c-1.64,1.12-3.1,2.12-4.22,2.88.52,1.66,1.07,3.44,1.49,4.79h5.24c.58-1.62,1.19-3.31,1.68-4.65-1.4-1.01-2.86-2.07-4.19-3.02ZM403.95,351.8c.6.65,1.53,1.29,1.86,2.15.31.84,0,1.91-.03,2.48h6.47c-2.29-2.11.42-3.22.96-4.54-1.81-1.22-3.37-2.27-4.55-3.06-1.55.98-3.05,1.92-4.7,2.97ZM359.52,379.02c.59,1.44,1.26,3.08,1.83,4.49,1.72.11,3.63.23,5.17.33.5-1.7,1.01-3.42,1.56-5.28-1.89.06-3.45-1.01-4.06-2.65-1.58,1.1-3.05,2.11-4.5,3.11ZM311.64,284.28c-2.04.17-3.5-1.03-4.14-2.46-1.77,1.11-3.34,2.09-4.56,2.85.49,1.75.97,3.46,1.34,4.78h5.22c.69-1.67,1.33-3.2,2.15-5.17ZM494.3,374.5c-1.3-.81-2.64-1.64-3.82-2.37-1.34.85-2.65,1.69-3.85,2.45.58,1.44,1.17,2.89,1.73,4.27h4.44c.42-1.21.92-2.68,1.5-4.35ZM447.14,384.81c2.52,1.01.58,3.28.98,4.28h4.84c.68-1.66,1.25-3.06,1.74-4.26-1.34-.9-2.66-1.79-3.67-2.47-1.39.87-2.64,1.66-3.89,2.45ZM424.01,412.35c.42-1.37.87-2.85,1.27-4.18-1.28-.91-2.53-1.8-3.61-2.57-1.35.96-2.55,1.81-3.72,2.63.44,1.42.88,2.84,1.27,4.12h4.79ZM515.17,376.67c-1.29,1.11-2.54,2.19-3.69,3.18.46,1.29.95,2.68,1.32,3.75,1.73.09,3.3.18,4.71.25.43-1.44.87-2.9,1.23-4.09-1.16-1.01-2.34-2.04-3.57-3.1ZM468.07,394.91h5.12c0-.59-.16-1.4.04-2.1.23-.78.8-1.46,1.05-1.89-1.52-1.13-2.76-2.05-3.81-2.83-1.29.96-2.47,1.84-3.63,2.7.4,1.34.85,2.86,1.23,4.12ZM516.41,367.59c-1.17.68-2.13,1.24-3.15,1.83.38,1.11.78,2.26,1.14,3.31,1.3-.09,2.42-.17,3.54-.25.38-1.04.75-2.08,1.11-3.08-.9-.62-1.73-1.19-2.65-1.82Z" style="fill:#000; stroke-width:0px;"/><path d="M514.17,274.54c2.28-1.59,3.96-2.77,5.73-4.02,2.21,1.45,4.23,2.78,6.26,4.11.22-.14.43-.29.65-.43-.68-2.26-1.36-4.53-2.08-6.9,1.94-1.48,3.76-2.88,5.58-4.27-.05-.29-.1-.57-.16-.86-2.24-.11-4.47-.22-6.88-.34-.99-2.21-1.97-4.42-3.39-7.6-1.27,3.1-2.17,5.29-3.18,7.75h-7.64c1.74,2.71,4.44,3.49,5.99,5.53-.73,1.99-1.44,3.93-2.31,6.29-68.86-31.51-140.53-45.12-216.65-35.06,1-2.56,1.62-4.52,2.51-6.35,4.48-9.19,9.72-17.94,16.02-25.99,8.26-10.55,17.8-19.85,28.65-27.74,17.6-12.8,37.07-21.42,58.43-25.71,18.54-3.72,37.12-4,55.78-.89,20.96,3.5,40.27,11.15,57.94,22.89,11.72,7.78,22.1,17.09,31.07,27.98,9.89,12.01,17.69,25.18,23.12,39.79,6.94,18.67,9.97,37.85,8.23,57.74-.2,2.34-.39,4.69-.64,7.03-.07.63-.34,1.24-.66,2.39-19.95-13.15-40.34-24.98-62.38-35.34Z" style="fill:#000; stroke-width:0px;"/><path d="M318.47,345.81c2.03-.17,4.07-.33,6.15-.5.87-1.97,1.69-3.83,2.93-6.64,1.14,2.71,1.9,4.53,2.76,6.58,2.06.2,4.19.4,6.64.63-.97,2.58-3.53,3-4.92,5.05.57,1.71,1.21,3.61,2.04,6.07-3.01-.16-4.32-2.56-6.7-3.29-1.66,1.09-3.47,2.27-6.16,4.03.78-2.88,1.32-4.89,1.91-7.07-1.7-1.36-3.36-2.7-5.02-4.03.13-.28.26-.56.38-.84Z" style="fill:#fff; stroke-width:0px;"/><path d="M438.12,331.69c.58,1.25,1.17,2.49,1.85,3.95,1.35.18,2.84.38,4.91.65-1.43,1.28-2.45,2.19-3.6,3.22.2,1.3.41,2.66.71,4.59-1.67-.88-2.87-1.51-4.27-2.25-1.08.66-2.26,1.38-4.11,2.51.31-2,.52-3.32.76-4.81-.98-.85-2.04-1.76-3.61-3.12,1.91-.32,3.33-.57,4.89-.83.53-1.25,1.08-2.54,1.63-3.83.28-.02.56-.05.84-.07Z" style="fill:#fff; stroke-width:0px;"/><path d="M511.58,394.83c1.33.26,2.43.48,4.46.87-1.68,1.02-2.75,1.67-3.41,2.07.27,2.12.43,3.35.64,4.98-1.52-.79-2.64-1.37-3.84-1.99-1.11.59-2.23,1.19-3.68,1.97.11-1.59.54-2.93.19-4.02-.32-.98-1.48-1.7-2.64-2.91,1.47-.4,2.73-.74,4.07-1.11.58-1.03,1.19-2.11,2.06-3.64.84,1.48,1.45,2.54,2.16,3.79Z" style="fill:#fff; stroke-width:0px;"/><path d="M544.67,347.17c3.09-.16,4.76-1.68,5.91-5.06.84,3.78,2.96,4.86,6.52,4.65-1.7,1.6-2.61,2.46-3.6,3.39.3,1.23.6,2.43,1.04,4.23-1.59-.85-2.67-1.42-3.95-2.1-1.11.49-2.37,1.04-4.04,1.77.39-2.69.69-5.13-1.89-6.89Z" style="fill:#fff; stroke-width:0px;"/><path d="M532.36,366.94c.2,1.1.4,2.21.7,3.86-1.66-.61-2.91-1.07-4.17-1.53-1.13.47-2.27.95-3.87,1.62.21-1.56.36-2.65.63-4.62-.62-.3-1.81-.88-3-1.46.18-.33.35-.66.53-.99,1.18-.21,2.36-.42,3.86-.69.45-.89,1.02-1.99,1.8-3.52.85,1.4,1.49,2.44,2.17,3.57,1.2.16,2.44.33,4.14.56-1.1,1.25-1.91,2.18-2.79,3.19Z" style="fill:#fff; stroke-width:0px;"/><path d="M498.35,384.84c-.68-.35-1.84-.95-3-1.55.17-.25.33-.5.5-.75,1.23-.18,2.46-.36,3.72-.54.62-1.1,1.22-2.17,2.08-3.7.75,1.49,1.26,2.48,1.87,3.68,1.12.14,2.38.3,4.2.53-1.04,1.18-1.82,2.07-2.71,3.07.15,1.11.32,2.33.57,4.13-2.79-1.76-5.18-2.04-8.02.39.3-2,.48-3.2.79-5.26Z" style="fill:#fff; stroke-width:0px;"/><path d="M452.78,397.45c1.85-.2,3-.33,4.4-.48.51-1.01,1.08-2.13,1.67-3.29,2.06.2,1.66,2.24,2.82,3.28,1.06.13,2.31.29,4.07.51-1.27,1.19-2.18,2.05-3.16,2.96.17,1.24.33,2.47.55,4.12-1.52-.74-2.65-1.29-3.85-1.88-1.04.59-2.03,1.16-3.55,2.03.11-1.62.19-2.81.28-4.28-.77-.7-1.7-1.55-3.23-2.95Z" style="fill:#fff; stroke-width:0px;"/><path d="M539.64,348.84c-2.93,1.92-4.22,3.8-2.74,7.19-2.96-1.63-5.3-2.4-7.64.22q.17-4.41-2.18-7.38c1.32-.26,2.7-.21,3.65-.82.87-.56,1.29-1.84,2.22-3.28.71,1.22,1.3,2.23,2.01,3.45,1.08.14,2.33.3,4.69.61Z" style="fill:#fff; stroke-width:0px;"/><path d="M497.4,329.99c.43-1.81.68-2.9,1.01-4.26-.76-.72-1.67-1.58-2.95-2.78,2.64-.68,5.39-.74,5.67-5.02,1.18,1.93,1.8,2.95,2.52,4.11,1.13.21,2.37.43,4.27.78-2.71,1.8-3.12,4.02-2.08,7.29-3.04-2.37-5.5-1.93-8.42-.11Z" style="fill:#fff; stroke-width:0px;"/><path d="M427.17,357c.66,3.26,2.19,4.54,5.54,4.25-2.36,1.95-3.53,3.68-2.18,6.62-1.69-.73-2.68-1.16-3.82-1.65-.89.49-1.87,1.03-3.48,1.91.89-2.95.14-4.94-2.11-6.68,1.53-.24,2.53-.4,3.53-.56.7-1.08,1.4-2.15,2.53-3.88Z" style="fill:#fff; stroke-width:0px;"/><path d="M370.51,324.72c2.19-1.52,3.66-2.55,4.82-3.35,1.44.95,2.95,1.93,4.44,2.9-.48,1.42-1.05,3.14-1.57,4.69h-5.61c-.5-1.18,1.01-3.88-2.08-4.25Z" style="fill:#fff; stroke-width:0px;"/><path d="M411.44,336.73c1.31-.97,2.76-2.05,4.21-3.13,1.19.91,2.59,2,4.13,3.18-.43,1.28-.99,2.99-1.55,4.65h-5.29c-.45-1.42-1.01-3.16-1.5-4.7Z" style="fill:#fff; stroke-width:0px;"/><path d="M426.31,345.37c1.32.95,2.78,2.01,4.19,3.02-.48,1.34-1.09,3.03-1.68,4.65h-5.24c-.42-1.34-.97-3.12-1.49-4.79,1.12-.77,2.58-1.76,4.22-2.88Z" style="fill:#fff; stroke-width:0px;"/><path d="M403.95,351.8c1.65-1.04,3.15-1.99,4.7-2.97,1.18.8,2.75,1.85,4.55,3.06-.55,1.32-3.25,2.43-.96,4.54h-6.47c.03-.57.35-1.64.03-2.48-.32-.86-1.26-1.5-1.86-2.15Z" style="fill:#fff; stroke-width:0px;"/><path d="M359.52,379.02c1.45-1,2.91-2.01,4.5-3.11.61,1.64,2.17,2.71,4.06,2.65-.55,1.86-1.05,3.57-1.56,5.28-1.55-.1-3.45-.22-5.17-.33-.58-1.41-1.24-3.06-1.83-4.49Z" style="fill:#fff; stroke-width:0px;"/><path d="M311.64,284.28c-.82,1.97-1.46,3.5-2.15,5.17h-5.22c-.37-1.32-.85-3.03-1.34-4.78,1.22-.76,2.8-1.75,4.56-2.85.64,1.43,2.11,2.63,4.14,2.46Z" style="fill:#fff; stroke-width:0px;"/><path d="M494.3,374.5c-.58,1.67-1.08,3.14-1.5,4.35h-4.44c-.56-1.38-1.15-2.83-1.73-4.27,1.2-.76,2.51-1.6,3.85-2.45,1.18.73,2.52,1.57,3.82,2.37Z" style="fill:#fff; stroke-width:0px;"/><path d="M447.14,384.81c1.25-.79,2.51-1.58,3.89-2.45,1.01.68,2.33,1.56,3.67,2.47-.49,1.2-1.06,2.6-1.74,4.26h-4.84c-.4-1,1.54-3.27-.98-4.28Z" style="fill:#fff; stroke-width:0px;"/><path d="M424.01,412.35h-4.79c-.39-1.27-.83-2.7-1.27-4.12,1.17-.82,2.37-1.68,3.72-2.63,1.08.77,2.33,1.66,3.61,2.57-.4,1.33-.86,2.81-1.27,4.18Z" style="fill:#fff; stroke-width:0px;"/><path d="M515.17,376.67c1.22,1.06,2.4,2.09,3.57,3.1-.35,1.18-.8,2.65-1.23,4.09-1.41-.08-2.98-.16-4.71-.25-.38-1.06-.86-2.45-1.32-3.75,1.15-.99,2.4-2.08,3.69-3.18Z" style="fill:#fff; stroke-width:0px;"/><path d="M468.07,394.91c-.37-1.25-.83-2.77-1.23-4.12,1.16-.87,2.34-1.74,3.63-2.7,1.05.78,2.29,1.7,3.81,2.83-.25.43-.82,1.11-1.05,1.89-.21.7-.04,1.5-.04,2.1h-5.12Z" style="fill:#fff; stroke-width:0px;"/><path d="M516.41,367.59c.91.63,1.74,1.2,2.65,1.82-.36,1-.74,2.04-1.11,3.08-1.12.08-2.24.16-3.54.25-.36-1.05-.76-2.21-1.14-3.31,1.02-.59,1.98-1.15,3.15-1.83Z" style="fill:#fff; stroke-width:0px;"/><path d="M322.35,243.31c2.15-.76,3.78-.4,4.78,1.14.45.69.44,2.09.03,2.82-.98,1.76-2.62,2.33-4.81,1.41v-5.38Z" style="fill:#fff; stroke-width:0px;"/><path d="M339.88,255.44v-11.88c3.39-1.07,5.75-.65,7.09,1.24,1.46,2.05,1.55,6.92.17,9.02-1.3,1.98-3.32,2.47-7.27,1.63Z" style="fill:#fff; stroke-width:0px;"/><path d="M460.91,261.82c2.94-.06,5.3,2.12,5.31,4.75.01,3.27-1.24,6.17-3.79,8.24-2.27,1.83-5.35.83-6.44-1.86-1.08-2.67.08-8,2.3-9.83.86-.71,2.04-1.03,2.62-1.31Z" style="fill:#fff; stroke-width:0px;"/><path d="M308.88,254.05c-.43,1.37-.68,3.25-1.57,4.75-1.51,2.54-4.61,2.67-6.68.56-2.51-2.55-2.8-7.55-.62-10.49,2.48-3.34,6.41-2.94,7.97.9.48,1.18.54,2.52.9,4.28Z" style="fill:#fff; stroke-width:0px;"/><path d="M493.96,281.62c.83-1.62,1.62-3.17,2.42-4.73,2.07,0,3.75.59,4.13,2.4.21.99-.44,2.59-1.25,3.26-1.55,1.29-3.34.96-5.3-.94Z" style="fill:#fff; stroke-width:0px;"/><path d="M439.62,262.42c.51-1.8.99-3.5,1.47-5.2,2.24-.07,4.19.08,4.67,2.29.21.94-.3,2.43-1.01,3.11-1.5,1.43-3.28,1.08-5.12-.21Z" style="fill:#fff; stroke-width:0px;"/><path d="M420.63,257.39c.63-2.16,1.19-4.09,1.79-6.17,1.03.19,1.8.22,2.5.47,2.46.88,3.17,1.8,2.82,3.5-.37,1.81-2.34,3.24-4.39,3.03-.86-.09-1.68-.5-2.72-.83Z" style="fill:#fff; stroke-width:0px;"/></svg>