<?xml version="1.0" encoding="UTF-8"?><svg id="Camada_1" xmlns="http://www.w3.org/2000/svg" viewBox="0 0 336.66 190.44"><path d="M0,190.44V0h336.66v190.44H0ZM32.26,95.28c22.83,14.84,44.96,29.24,67.11,43.63,21.93,14.26,43.91,28.45,65.76,42.83,2.57,1.69,4.25,1.5,6.64-.08,11.83-7.85,23.76-15.55,35.67-23.29,26.42-17.18,52.85-34.35,79.27-51.52,5.78-3.76,11.56-7.53,17.74-11.56-6.27-4.06-12.01-7.75-17.73-11.47-38.64-25.12-77.28-50.22-115.88-75.4-1.86-1.22-3.16-1.21-4.98,0-8.84,5.83-17.78,11.5-26.66,17.28-32.36,21.07-64.71,42.15-97.07,63.23-3.1,2.02-6.21,4.01-9.86,6.37Z" style="fill:#000; stroke-width:0px;"/><path d="M32.26,95.28c3.65-2.36,6.77-4.36,9.86-6.37,32.36-21.08,64.71-42.16,97.07-63.23,8.87-5.78,17.82-11.45,26.66-17.28,1.82-1.2,3.11-1.21,4.98,0,38.6,25.18,77.24,50.29,115.88,75.4,5.72,3.72,11.46,7.41,17.73,11.47-6.18,4.03-11.96,7.8-17.74,11.56-26.42,17.18-52.85,34.35-79.27,51.52-11.91,7.74-23.84,15.44-35.67,23.29-2.39,1.58-4.07,1.77-6.64.08-21.85-14.38-43.83-28.57-65.76-42.83-22.14-14.39-44.28-28.79-67.11-43.63ZM222.56,125.55c-1.29-1.14-2.33-2.03-3.33-2.96-13.86-13.01-29.09-24.15-45.74-33.37-18.5-10.25-38.07-17.81-58.56-22.97-1.03-.26-3,.42-3.52,1.28-11.84,19.49-10.54,43.07,3.32,60.4,11.92,14.9,27.59,23.03,46.53,24.49,24.86,1.93,45.39-6.5,61.3-26.87ZM228.94,112.35c8.06-22.35-1.13-48.28-21.54-62.34-23.49-16.19-55.21-16.41-78.83-.5-1.96,1.32-3.74,2.9-6.04,4.71,40.48,11,75.75,29.96,106.41,58.13Z" style="fill:#fff; stroke-width:0px;"/><path d="M222.56,125.55c-15.91,20.37-36.43,28.8-61.3,26.87-18.94-1.47-34.61-9.6-46.53-24.49-13.87-17.33-15.17-40.91-3.32-60.4.52-.86,2.49-1.54,3.52-1.28,20.49,5.16,40.06,12.72,58.56,22.97,16.64,9.22,31.87,20.36,45.74,33.37.99.93,2.04,1.82,3.33,2.96Z" style="fill:#000; stroke-width:0px;"/><path d="M228.94,112.35c-30.66-28.17-65.93-47.14-106.41-58.13,2.31-1.81,4.09-3.39,6.04-4.71,23.62-15.91,55.34-15.69,78.83.5,20.41,14.07,29.6,40,21.54,62.34Z" style="fill:#000; stroke-width:0px;"/></svg>