<?xml version="1.0" encoding="UTF-8"?><svg id="Camada_1" xmlns="http://www.w3.org/2000/svg" viewBox="0 0 959.9 670.7"><path d="M479.96,670.68c-158.05,0-316.1,0-474.14-.01-6.81,0-5.76.84-5.76-5.7C.04,445.31.04,225.67.04,6.02Q.04,0,6.02,0C321.96,0,637.91,0,953.85,0q6.01,0,6.01,5.99c0,219.65,0,439.29-.02,658.94,0,6.57,1.06,5.73-5.73,5.73-158.05.02-316.1.01-474.14.01ZM66.23,335.41c1.67,1.21,2.85,2.14,4.11,2.96,20.36,13.3,40.73,26.57,61.08,39.87,13.28,8.67,26.54,17.36,39.81,26.06,19.2,12.59,38.39,25.2,57.58,37.79,13.39,8.78,26.79,17.53,40.18,26.31,19.32,12.68,38.64,25.37,57.96,38.05,13.39,8.78,26.78,17.55,40.17,26.33,19.07,12.51,38.15,25.01,57.21,37.54,12.37,8.14,24.7,16.34,37.06,24.48,5.42,3.57,10.92,7.02,16.33,10.61,1.71,1.13,3,1.21,4.84,0,22.56-14.9,45.19-29.69,67.81-44.51,13.52-8.85,27.05-17.68,40.56-26.55,19.2-12.59,38.38-25.22,57.58-37.81,13.51-8.87,27.06-17.69,40.56-26.57,21.46-14.11,42.89-28.25,64.34-42.38,10.09-6.65,20.18-13.31,30.29-19.92,21.36-13.97,42.73-27.93,64.1-41.89,12.26-8.01,24.55-15.99,36.78-24.07,2.96-1.96,6.14-3.68,8.68-6.23-1.02-1.5-2.43-2.16-3.68-2.98-7.45-4.89-14.94-9.71-22.4-14.59-23.62-15.48-47.24-30.97-70.86-46.46-13.77-9.03-27.53-18.06-41.3-27.1-23.49-15.41-46.97-30.83-70.47-46.24-13.64-8.95-27.3-17.86-40.94-26.81-19.2-12.59-38.39-25.2-57.58-37.79-13.51-8.86-27.04-17.71-40.55-26.58-20.08-13.18-40.15-26.37-60.21-39.59-5.3-3.49-5.25-3.52-10.51-.06-18.56,12.19-37.14,24.34-55.71,36.52-23.49,15.41-46.97,30.83-70.47,46.24-13.64,8.95-27.29,17.87-40.94,26.82-19.07,12.51-38.14,25.03-57.21,37.54-13.64,8.95-27.28,17.88-40.92,26.83-18.69,12.26-37.4,24.5-56.08,36.79-17.04,11.21-34.04,22.47-51.07,33.68-5.93,3.9-11.95,7.66-17.88,11.55-5.93,3.88-11.8,7.85-18.25,12.15Z" style="fill:#00ad00; stroke-width:0px;"/><path d="M66.23,335.41c6.45-4.3,12.33-8.27,18.25-12.15,5.93-3.89,11.95-7.65,17.88-11.55,17.04-11.21,34.04-22.47,51.07-33.68,18.68-12.28,37.38-24.53,56.08-36.79,13.64-8.94,27.28-17.88,40.92-26.83,19.07-12.51,38.13-25.03,57.21-37.54,13.64-8.95,27.3-17.87,40.94-26.82,23.49-15.41,46.97-30.83,70.47-46.24,18.57-12.18,37.15-24.34,55.71-36.52,5.26-3.45,5.2-3.43,10.51.06,20.06,13.22,40.13,26.4,60.21,39.59,13.51,8.87,27.04,17.71,40.55,26.58,19.2,12.59,38.38,25.2,57.58,37.79,13.64,8.95,27.3,17.87,40.94,26.81,23.49,15.41,46.98,30.82,70.47,46.24,13.77,9.03,27.53,18.07,41.3,27.1,23.62,15.49,47.23,30.98,70.86,46.46,7.45,4.88,14.95,9.7,22.4,14.59,1.25.82,2.65,1.48,3.68,2.98-2.54,2.56-5.71,4.28-8.68,6.23-12.22,8.07-24.51,16.05-36.78,24.07-21.37,13.96-42.74,27.91-64.1,41.89-10.11,6.62-20.2,13.28-30.29,19.92-21.45,14.12-42.88,28.27-64.34,42.38-13.5,8.88-27.05,17.7-40.56,26.57-19.2,12.6-38.38,25.22-57.58,37.81-13.51,8.86-27.05,17.69-40.56,26.55-22.62,14.82-45.25,29.61-67.81,44.51-1.84,1.21-3.13,1.14-4.84,0-5.41-3.59-10.91-7.04-16.33-10.61-12.37-8.14-24.69-16.34-37.06-24.48-19.06-12.53-38.13-25.03-57.21-37.54-13.39-8.78-26.78-17.55-40.17-26.33-19.32-12.68-38.64-25.37-57.96-38.05-13.39-8.78-26.79-17.53-40.18-26.31-19.2-12.59-38.39-25.2-57.58-37.79-13.26-8.7-26.53-17.39-39.81-26.06-20.36-13.3-40.73-26.57-61.08-39.87-1.25-.82-2.43-1.75-4.11-2.96ZM328.9,276.66c-4.53,10.86-8.18,21.96-9.33,33.76-1.19,6.25-1.74,12.58-1.89,18.91-.43,18.06,1.47,35.77,7.01,53.13,6.21,19.5,15.32,37.28,28.07,53.31,8.91,11.19,19.04,21,30.45,29.56,11.18,8.39,23.27,15.16,36.24,20.31,29.37,11.69,59.67,14.62,90.74,8.88,25.07-4.63,47.74-14.89,68.08-30.17,9.8-7.36,18.72-15.79,26.53-25.24,11.8-14.28,21.12-30.08,27.51-47.53,1.39-1.85,1.73-4.12,2.37-6.24,2.65-8.72,5.1-17.51,5.81-26.66,1.22-5.33,1.53-10.79,1.69-16.2.74-24.27-2.58-47.84-12.63-70.2-3.96-8.81-8.15-17.43-13.56-25.51-8.46-12.63-18.24-23.96-29.73-33.92-12.19-10.56-25.62-19.07-40.34-25.61-31.65-14.06-64.55-17.35-98.36-10.74-26.24,5.13-49.79,16.5-70.45,33.44-13.85,11.35-25.78,24.55-35.04,40-5.12,8.54-10.28,17.05-13.17,26.69Z" style="fill:#feff00; stroke-width:0px;"/><path d="M632.31,391.59c-6.39,17.45-15.7,33.25-27.51,47.53-7.81,9.45-16.72,17.87-26.53,25.24-20.34,15.29-43.01,25.54-68.08,30.17-31.07,5.74-61.37,2.8-90.74-8.88-12.96-5.16-25.06-11.93-36.24-20.31-11.41-8.57-21.55-18.37-30.45-29.56-12.76-16.03-21.86-33.81-28.07-53.31-5.53-17.36-7.44-35.07-7.01-53.13.15-6.34.69-12.66,1.89-18.91,14.12-2.58,28.33-4.49,42.66-5.24,39.8-2.08,78.97,2.02,117.51,12.29,34.44,9.18,67.12,22.68,98.27,39.89,17.71,9.79,34.91,20.4,51.16,32.5.96.72,1.89,1.52,3.14,1.73ZM356.95,412.57c3.44-1.12,4.88-4.15,7.2-3.83,2.17.3,4.13,2.21,6.24,3.45.31-1.28-.35-2.35-.66-3.45-1.04-3.65-1.04-3.61,1.84-5.96.82-.67,2.14-1,2.18-2.7-.85,0-1.6-.09-2.32.01-3.11.43-5.2-.47-5.83-3.87-.19-1.02-1.01-1.92-1.53-2.86-.37.25-.55.31-.6.42-.24.54-.47,1.09-.66,1.66q-1.51,4.5-6.49,4.66c-.64.02-1.54-.33-1.86,1.13,5.38,2.1,5.87,5.95,2.5,11.35ZM481.78,398.04c3.21-3.43,5.93-3.19,8.95-.76-2.35-3.91.02-6.17,2.67-8.48-3.89.62-6.06-1.01-7.2-4.7-.54,4.15-3.16,4.93-7.05,5.03,5.04,1.61,3.72,4.91,2.63,8.9ZM581.4,420.18c.46,2.21,2.27,2.33,2.8,3.6.61,1.47-1.19,2.78-.2,4.49,2.4-2.57,4.92-2.11,7.65-.04-1.4-3.31-.13-5.59,2.94-7.92-4.14.57-6.39-.61-7.07-4.87-1.2,3.42-2.24,6-6.13,4.74ZM598.18,403.51c-3.56.34-5.3-1.45-6.29-4.62-.55,3.83-2.92,4.75-6.12,4.31.25,1.82,2.02,2.07,2.58,3.3.65,1.43-1.16,2.79-.04,4.53,2.32-2.12,4.81-2.5,7.59-.08-1.22-3.14-.9-5.54,2.29-7.43ZM551.16,373.44c3.53,1.66,2.81,4.43,2.49,7.3,2.54-3.15,4.97-1.48,7.56-.13-2.31-3.6-.06-5.41,2.5-7.35-3.65.62-5.56-1.21-6.84-4.4-.48,3.58-2.46,4.67-5.71,4.58ZM560.98,449.92c-2.16-3.77.1-5.68,2.8-7.63-3.65.55-5.69-1-6.6-4.6q-1.78,4.06-6.29,4.87c2.71,1.69,3.96,3.82,2.48,7.07,2.64-1.89,5.01-2.35,7.6.29ZM565.9,453.03c-.64,3.8-3.11,4.62-6.77,4.74,4.51,1.08,3.71,4.15,3.14,7.04,1.76-.29,2.43-1.98,3.94-1.8,1.26.15,1.93,1.76,3.44,1.65q-.7-3.99,2.38-7.36c-3.59.75-5.13-1.2-6.13-4.26ZM516.54,459.65c-3.62.48-5.25-1.49-6.33-4.57-.48,3.9-2.9,4.72-6.4,4.52,3.17,1.81,4.27,4.18,2.75,7.65,2.6-2.47,5.06-2.35,7.78-.19-1.49-3.17-.83-5.45,2.2-7.41ZM617.59,401.35c-3.93.88-5.02-1.99-6.81-4.91-.15,4.16-2.28,5.08-5.45,5,3.08,1.74,3.12,4.36,2.52,7.41,2.42-2.98,4.79-1.7,7.38-.26-1.68-3.33-.59-5.44,2.37-7.23ZM473.99,413.78c-.39,3.22-2.37,4.29-5.4,4.38,2.68,1.67,2.82,3.91,2.3,6.63,2.48-2.74,4.69-1.03,7.25.1-2.44-3.33,0-4.98,2.75-7.33-4.08.72-5.99-.65-6.91-3.78ZM458.49,395.21c2.33-2.02,4.5-1.07,6.9-.16-1.86-2.76.4-4.26,1.79-6.46-3.2.75-4.66-.71-5.8-4.17-.45,3.66-1.98,4.7-5.47,4.3,2.76,2.04,3.76,3.84,2.58,6.48ZM412.39,374.88c2.6,1.46,2.48,3.48,1.75,5.87,2.13-1.7,4.02-1.72,5.91.24q-.12-3.79,2.56-6.75c-3.54,1.53-4.14-1.38-6-3.51,0,3.26-1.75,3.86-4.22,4.15ZM447.93,406.83c4.21.79,3.93,3,2.64,6.5,2.64-2.57,4.51-2.62,6.66-.98-1.3-2.69.36-4.29,2.5-6.7-3.88,1.36-4.54-.98-5.56-2.89q-1.65,3.09-6.24,4.07ZM470.4,408.53c2.13-1.79,4.11-1.56,6.27-.1-1.44-2.89.23-4.42,2.74-6.22-3.2.19-5.28-.22-6.13-3.6.1,3.7-2.54,3.45-5.35,4,3.07,1.58,3.39,3.44,2.46,5.93ZM347.18,328.63c-3.52.78-4.58-1.14-5.98-3.94-.14,4.18-2.68,3.97-5.71,4.29,3.18,1.41,3.86,3.39,3.2,6.19,1.99-2.15,3.88-1.53,6.66.46-1.85-3.36-.66-4.98,1.83-6.99ZM400.62,444.27c2.76-2.22,4.86-1.82,7.2-.31-2.25-3.04,0-4.47,2.29-6.46-3.23.35-5.19-.46-6.06-3.31-.52,2.78-2.2,3.69-4.97,3.69,2.49,1.38,2.83,3.26,1.54,6.38ZM498.63,449.71c1.23-.39,2.38-.77,3.93-.45,1.93.4-.2-2.92,1.82-3.45.32-.09.85-.25.69-1.13-1.84.04-3.35-.78-4.18-3.88-.65,3.1-2.11,3.66-3.72,4.04.4,1.42,2.2,2.46,1.16,4.28-.04.07.12.26.28.59ZM549.25,433.1c-2.32-.13-3.74-1.08-4.4-3.39-1,1.68-1.9,2.55-3.35,3.27-1.22.61,1.97,2.21.71,3.91-.23.31-.22.82.61,1.02,1.43-2.1,3.15-.21,5.7.49-1.99-2.57-1.27-3.95.72-5.29ZM520.11,456.83c1.78-1.29,3.41-1.29,5.84.55-1.26-2.9-.25-4.33,1.66-6.44-3.02.91-3.49-.99-4.7-1.89-.56-.41-1.5,2.75-3.62,2.25-.22-.05-.52.21-1.06.45,1.51,1.29,2.8,2.68,1.87,5.08ZM471.31,477.72c-.22-1.86-.65-2.86-.33-3.26,1.54-1.9,1.21-2.94-1.11-3.7-.53-.17-.79-1.2-1.34-2.11-.64,1.93-1.75,3.17-4.01,3.34,2.07,1.29,1.86,3.04,1.3,5.38,1.95-1.58,3.43-2.14,5.49.35ZM569.47,443.96c1.83-1.96,3.63-.69,5.49-.15-.28-1.32-.78-2.2-.4-3.09.37-.86,1.96-.76,1.81-2.38-2.34.6-3.47-.86-4.55-2.95,0,2.73-1.89,3-4.46,3.38,2.59,1.35,2.69,3.05,2.12,5.19ZM573.75,430.32c3.46,1.66.29-3.17,2.56-2.68-.16-1.76-2.53-.82-2.87-2.36-1.02.66-2.04,1.33-3.06,1.99.62.85.8,1.82,1.07,2.83.35,1.29,1.52-.42,2.3.21Z" style="fill:#2444b8; stroke-width:0px;"/><path d="M328.9,276.66c2.89-9.64,8.05-18.15,13.17-26.69,9.26-15.45,21.19-28.65,35.04-40,20.66-16.94,44.21-28.31,70.45-33.44,33.82-6.62,66.71-3.32,98.36,10.74,14.73,6.54,28.15,15.05,40.34,25.61,11.49,9.96,21.27,21.28,29.73,33.92,5.41,8.08,9.61,16.7,13.56,25.51,10.05,22.35,13.37,45.93,12.63,70.2-.16,5.41-.48,10.87-1.69,16.2-.4-.21-.83-.37-1.2-.62-14.74-10.29-29.97-19.81-45.72-28.47-7.12-3.91-14.08-8.2-21.76-11.05-.24-.46-.6-.73-1.12-.79l-.02-.02c0-.31.01-.61.02-.92,1.13-.73,2.27-1.44,3.39-2.19,3.54-2.39,3.52-2.38,6.91.08,1.06.77,1.98,1.81,3.5,2.11.06-2.1-.82-3.89-1.47-5.67-.65-1.77-.22-2.77,1.2-3.82,1.55-1.14,3.37-2.07,4.82-4.12-2.42,0-4.24-.1-6.04.03-1.84.13-2.7-.66-3.23-2.37-.57-1.82-.69-3.87-2.32-5.55-.54,1.58-1.02,2.97-1.49,4.36-.86,2.55-2.32,4-5.31,3.59-1.3-.18-2.89-.6-4.34.66,1.29,1.02,2.28,1.97,3.43,2.66,2.25,1.35,3.19,2.88,1.92,5.54-.68,1.41-1.52,3.01-.89,4.76-.61.04-1.22.08-1.84.13-4.05-2.71-8.69-4.17-13.07-6.17-17.16-7.85-34.81-14.4-52.87-19.91-33.8-10.32-68.3-16.4-103.64-17.89-23.62-1-47.08.3-70.46,3.61Z" style="fill:#2444b8; stroke-width:0px;"/><path d="M328.9,276.66c23.38-3.31,46.84-4.6,70.46-3.61,35.34,1.49,69.84,7.58,103.64,17.89,18.05,5.51,35.7,12.06,52.87,19.91,4.38,2,9.02,3.47,13.07,6.17.42.62,1.07.71,1.75.72,0,0,.02.02.02.02.23.46.6.73,1.12.79,7.67,2.85,14.63,7.14,21.76,11.05,15.75,8.65,30.98,18.17,45.72,28.47.37.26.8.42,1.2.62-.71,9.15-3.16,17.93-5.81,26.66-.64,2.12-.99,4.39-2.37,6.24-1.25-.21-2.18-1.01-3.14-1.73-16.25-12.1-33.46-22.71-51.16-32.5-31.15-17.22-63.83-30.71-98.27-39.89-38.54-10.27-77.71-14.37-117.51-12.29-14.32.75-28.54,2.66-42.66,5.24,1.15-11.79,4.8-22.9,9.33-33.76ZM433.69,294.18l-.07-.08c1.07,2.22-.16,4.37-.24,6.56-.05,1.44.15,2.3,1.78,2.45,1.69.16,1.97-.78,2.15-2.14.56-4.34,1.27-8.65,1.82-12.99.15-1.21.96-2.77-1.04-3.4-1.81-.57-2.86.38-3.72,1.76-.56.9-1.05,1.84-1.68,2.69-1.29,1.74-1.87,4.05-4.08,5.46-1.05-3.46-2.09-6.59-2.93-9.77-.41-1.53-1.08-2.35-2.74-2.4-2-.07-2.09,1.35-2.3,2.69-.73,4.62-1.4,9.24-2.14,13.86-.18,1.14.21,1.66,1.33,1.83,1.11.16,2.17.31,2.44-1.17.24-1.33.39-2.68.61-4.02.19-1.19.13-2.49,1.32-3.64.61,2.07,1,3.85,1.67,5.52.94,2.33,3.36,2.57,4.91.63,1-1.25,1.23-3.09,2.91-3.83ZM511.92,300.77c-5.16-.09-9.38,4.59-9.5,10.53-.11,5.39,3.73,9.16,9.42,9.26,5.18.09,9.49-4.59,9.62-10.45.11-4.91-4.33-9.25-9.55-9.34ZM373.82,288.73c.19,2.49-.34,5.5.29,8.46.05.21.43.47.67.5,3,.28,6.01.18,9.01-.08.15-.01.3-.04.44-.08,3.97-.97,6.47-4.58,6.41-9.24-.06-4.87-2.45-8.11-6.77-8.74-2.52-.37-5.1-.3-7.65-.43-1.65-.09-2.51.52-2.43,2.34.1,2.25.02,4.51.02,7.26ZM496.37,315.88c-.04-2.45-.76-4.46-1.45-6.38-.64-1.78-.8-2.63,1.23-3.83,4.27-2.51,3.82-7-.73-8.94-2.2-.94-4.62-1.35-6.94-2.03-.94-.28-1.48.21-1.69.98-1.41,5.08-2.79,10.17-4.12,15.28-.39,1.51.93,1.69,1.9,1.98,1.17.35,1.57-.42,1.8-1.41.24-1.03.52-2.05.85-3.05.3-.93.09-2.39,1.53-2.36,1.26.02,1.46,1.38,1.86,2.31.66,1.52,1.4,3.05,1.72,4.65.41,2.06,1.62,2.73,4.03,2.8ZM346.78,293.33c-.02-6.17-3.61-9.98-9.28-9.86-5.43.11-8.95,3.93-9.03,9.76-.08,6.12,3.47,10,9.14,10.01,5.77,0,9.19-3.69,9.17-9.91ZM629.14,366.95c.18-4.96-3.93-9.22-9.01-9.34-5.14-.12-10.04,5.05-10.14,10.7-.09,4.72,4.24,8.96,9.36,9.17,4.81.19,9.58-4.94,9.79-10.53ZM363.59,289.52c.78-.5,1.13-.73,1.49-.95,2.12-1.31,3.23-3.1,2.63-5.65-.58-2.46-2.5-3.27-4.7-3.51-1.94-.21-3.9-.14-5.85-.28-1.87-.13-2.73.52-2.68,2.54.1,4.51.03,9.02.03,13.53,0,1.38-.16,2.76,1.99,2.64,2.17-.12,1.64-1.64,1.78-2.91.18-1.67-.51-3.49.7-5.16,2.53,1.07,3.25,3.32,4.4,5.19,1.83,2.99,1.79,3.01,5.68,2.29-1.43-2.69-2.67-5.4-5.46-7.72ZM534.22,309.52c-2.23-.1-4.29.49-5.75,2.17-2.9,3.33-4.7,7.18-3.18,11.64,1.52,4.44,5.38,5.76,9.62,6.34,2.05.28,3.35-.26,4.09-2.42,2.09-6.06,2.87-4.62-3.07-7.2-.41-.18-.82-.4-1.26-.5-.73-.17-1.58-.32-1.86.62-.21.7.44.94.99,1.24.98.52,2.51.44,2.56,2.08.09,2.89-2.1,4.4-4.77,3.32-2.27-.92-3.14-2.77-3.1-5.04.05-2.79.97-5.36,2.67-7.56,2.5-3.23,6.33-2.97,8.52.49.23.36.23.98.53,1.18.7.48,1.47,1.29,2.41.65.81-.55.33-1.4.09-2.06-1.03-2.8-4.73-4.92-8.5-4.93ZM553.46,330.32c.45-.82,1.14-.58,1.69-.73,2.2-.58,3.89-1.72,4.17-4.17.27-2.37-.92-4.05-2.87-5.23-1.68-1.01-3.42-1.91-5.1-2.92-1.14-.69-1.82-.47-2.55.69-2.76,4.33-5.04,8.91-7.39,13.46-.74,1.44.17,1.88,1.09,2.4.92.52,1.67.43,2.22-.63.76-1.47,1.5-2.97,2.47-4.3.95-1.31,2.21-1.06,2.53.55.41,2.06.64,4.19.67,6.29.03,2.23,1.01,3.29,3.54,3.44-.16-3.06-.32-6.03-.47-8.85ZM467.5,299.94c3.43.56,6.5,1.25,9.29-1.11,3.13-2.64,3.04-5.95-.44-8.03-2.63-1.57-5.69-1.83-8.56-2.66-1.55-.45-1.86.7-2.04,1.7-.84,4.73-2.2,9.33-3.58,13.92-.57,1.89.28,2.34,1.79,2.74,1.66.44,2.13-.37,2.38-1.76.27-1.47.69-2.9,1.15-4.79ZM611.29,353.85c-.21-3.91-2.1-5.98-6.24-7.33-2.24-.73-4.19-.36-5.8,1.31-1.77,1.83-1.36,3.91-.2,5.83,1.09,1.8,2.46,3.43,3.59,5.2,1.3,2.05.14,4.3-2.26,4.36-2,.05-3.46-.93-4.12-2.87-.19-.55.08-1.29-.19-1.75-.54-.9-1.44-1.77-2.52-1.32-.89.37-.83,1.48-.62,2.41.69,3.08,5.39,6.34,9.08,6.3,4.24-.05,6.28-3.24,4.42-7.06-.86-1.76-2.13-3.25-3.42-4.74-1.65-1.9-1.56-3.56-.06-4.67,1.58-1.16,3.95-.72,4.9,1.42.7,1.57,1.49,2.49,3.43,2.91ZM578.3,348.89c-.6,3.86.45,5.58,4.58,7.56,3.33,1.6,6.65,1.27,8.34-.82,1.76-2.18,1.21-4.9-1.8-8-1.06-1.09-2.24-2.07-2.81-3.5-.88-2.2.45-4,2.8-3.83,1.43.1,2.71.55,3.13,2.11.47,1.74,1.75,2.1,3.41,2.42.53-3.35-1.57-4.68-3.68-5.82-2.28-1.23-4.72-2.2-7.31-.76-2.07,1.15-2.81,3.14-2.04,5.39.5,1.46,1.45,2.63,2.42,3.8.77.93,1.56,1.86,2.19,2.89.8,1.3.69,2.6-.45,3.7-1.16,1.11-2.44,1.01-3.74.26-1.07-.61-2.13-1.32-2.09-2.71.06-2.12-1.46-2.32-2.94-2.68ZM570.47,330.59c2.18,1.02,4.36,2.04,6.53,3.06.57.27,1.16.47,1.6-.14.62-.86.02-1.45-.64-1.8-2.93-1.54-5.9-3.02-8.86-4.52-1.16-.59-1.62.22-2.05,1.05-2.28,4.42-4.29,8.98-7.05,13.14-.52.79-.82,1.78.24,2.35,3.2,1.69,6.44,3.3,9.68,4.91.53.26,1.25.39,1.57-.28.39-.81-.02-1.37-.81-1.77-1.75-.89-3.47-1.82-5.19-2.78-.65-.36-1.22-.76-1.09-1.73.48-3.49,2.68-4.74,5.73-3.18.81.41,1.59.87,2.41,1.26.44.21.87.1,1.19-.31.5-.63.23-1.08-.36-1.43-.65-.38-1.31-.75-1.97-1.11q-3.79-2.13-1.6-5.95c.14-.25.39-.44.67-.75ZM395.52,288.6c0,2.26.06,4.51-.02,6.77-.05,1.62.36,2.54,2.23,2.48,3.16-.09,6.32,0,9.48-.04.7,0,1.62.09,1.69-.96.07-1.02-.76-1.17-1.52-1.19-1.96-.04-3.91-.03-5.87-.05-.9-.01-1.8,0-2.21-1.1-1.18-3.19.28-5.43,3.63-5.53.9-.03,1.81,0,2.7-.11.4-.05.79-.27.81-.85.02-.58-.38-.91-.75-.94-1.5-.11-3.01-.17-4.51-.1-2.1.09-2-1.29-1.96-2.69.04-1.3-.36-2.87,1.8-2.86,1.81.01,3.61.01,5.42-.03.72-.02,1.62,0,1.66-1.02.04-.99-.75-1.19-1.53-1.2-2.86-.03-5.72.04-8.58-.06-2.02-.07-2.6.87-2.51,2.73.11,2.25.03,4.51.03,6.77ZM452.13,305.57c-1.52-2.06-3.23-1.37-4.57-1.83-1.47-.51-3.36-.19-2.96-2.87.35-2.39,1.59-2.5,3.46-2.2,1.04.17,2.23.54,3.26-.37-1.14-1.62-2.64-1.27-3.91-1.41-1.61-.18-1.97-.92-1.8-2.41.21-1.84,1.17-2.03,2.79-1.98,1.54.05,3.37,1.73,5.03-.62-2.83-1.04-5.54-1.13-8.18-1.6-1.69-.3-2.16.6-2.36,1.94-.52,3.43-.99,6.88-1.55,10.3-.17,1.03-.06,1.99,1.01,2.13,3.07.4,6.07,1.67,9.77.93Z" style="fill:#fff; stroke-width:0px;"/><path d="M356.95,412.57c3.38-5.4,2.88-9.25-2.5-11.35.32-1.46,1.22-1.11,1.86-1.13q4.98-.17,6.49-4.66c.19-.56.42-1.11.66-1.66.05-.11.23-.17.6-.42.53.95,1.34,1.85,1.53,2.86.63,3.4,2.73,4.3,5.83,3.87.72-.1,1.47-.01,2.32-.01-.04,1.7-1.36,2.04-2.18,2.7-2.88,2.34-2.88,2.31-1.84,5.96.32,1.11.98,2.18.66,3.45-2.11-1.24-4.07-3.15-6.24-3.45-2.32-.32-3.76,2.71-7.2,3.83Z" style="fill:#f2f6fb; stroke-width:0px;"/><path d="M481.78,398.04c1.09-3.99,2.41-7.29-2.63-8.9,3.89-.1,6.51-.88,7.05-5.03,1.14,3.69,3.31,5.31,7.2,4.7-2.64,2.3-5.01,4.56-2.67,8.48-3.02-2.43-5.74-2.67-8.95.76Z" style="fill:#e2eaf7; stroke-width:0px;"/><path d="M581.4,420.18c3.89,1.25,4.93-1.32,6.13-4.74.68,4.26,2.93,5.44,7.07,4.87-3.07,2.34-4.34,4.62-2.94,7.92-2.73-2.08-5.25-2.53-7.65.04-.99-1.71.81-3.03.2-4.49-.53-1.27-2.34-1.39-2.8-3.6Z" style="fill:#e2eaf7; stroke-width:0px;"/><path d="M598.18,403.51c-3.18,1.89-3.51,4.29-2.29,7.43-2.77-2.42-5.26-2.04-7.59.08-1.13-1.74.69-3.1.04-4.53-.56-1.23-2.33-1.47-2.58-3.3,3.2.44,5.58-.49,6.12-4.31.99,3.18,2.73,4.96,6.29,4.62Z" style="fill:#e2eaf7; stroke-width:0px;"/><path d="M551.16,373.44c3.25.09,5.23-1,5.71-4.58,1.28,3.18,3.19,5.01,6.84,4.4-2.55,1.94-4.81,3.75-2.5,7.35-2.6-1.35-5.02-3.02-7.56.13.32-2.87,1.04-5.64-2.49-7.3Z" style="fill:#e9eef8; stroke-width:0px;"/><path d="M560.98,449.92c-2.6-2.64-4.96-2.18-7.6-.29,1.47-3.25.23-5.38-2.48-7.07q4.51-.82,6.29-4.87c.91,3.6,2.95,5.16,6.6,4.6-2.7,1.95-4.95,3.86-2.8,7.63Z" style="fill:#e9eef8; stroke-width:0px;"/><path d="M565.9,453.03c1,3.07,2.54,5.02,6.13,4.26q-3.08,3.38-2.38,7.36c-1.51.11-2.18-1.5-3.44-1.65-1.51-.18-2.18,1.51-3.94,1.8.58-2.88,1.37-5.96-3.14-7.04,3.66-.12,6.13-.94,6.77-4.74Z" style="fill:#e9eef8; stroke-width:0px;"/><path d="M516.54,459.65c-3.03,1.96-3.69,4.25-2.2,7.41-2.72-2.17-5.18-2.29-7.78.19,1.53-3.47.42-5.84-2.75-7.65,3.5.21,5.92-.62,6.4-4.52,1.09,3.08,2.71,5.04,6.33,4.57Z" style="fill:#e2eaf7; stroke-width:0px;"/><path d="M617.59,401.35c-2.95,1.8-4.04,3.91-2.37,7.23-2.59-1.44-4.96-2.72-7.38.26.6-3.05.56-5.67-2.52-7.41,3.18.08,5.3-.85,5.45-5,1.79,2.92,2.88,5.8,6.81,4.91Z" style="fill:#e9eef8; stroke-width:0px;"/><path d="M473.99,413.78c.92,3.13,2.83,4.5,6.91,3.78-2.74,2.35-5.19,4-2.75,7.33-2.56-1.13-4.78-2.84-7.25-.1.52-2.72.38-4.97-2.3-6.63,3.03-.09,5-1.16,5.4-4.38Z" style="fill:#dbe5f5; stroke-width:0px;"/><path d="M458.49,395.21c1.18-2.64.18-4.44-2.58-6.48,3.49.4,5.02-.64,5.47-4.3,1.14,3.46,2.6,4.92,5.8,4.17-1.39,2.2-3.65,3.7-1.79,6.46-2.4-.91-4.57-1.86-6.9.16Z" style="fill:#d1dcf2; stroke-width:0px;"/><path d="M412.39,374.88c2.47-.29,4.22-.88,4.22-4.15,1.86,2.13,2.46,5.04,6,3.51q-2.68,2.96-2.56,6.75c-1.89-1.96-3.77-1.94-5.91-.24.73-2.39.85-4.41-1.75-5.87Z" style="fill:#dbe5f5; stroke-width:0px;"/><path d="M447.93,406.83q4.59-.98,6.24-4.07c1.02,1.9,1.68,4.25,5.56,2.89-2.13,2.41-3.8,4.01-2.5,6.7-2.15-1.64-4.02-1.59-6.66.98,1.29-3.49,1.57-5.71-2.64-6.5Z" style="fill:#e2eaf7; stroke-width:0px;"/><path d="M470.4,408.53c.93-2.49.61-4.35-2.46-5.93,2.81-.55,5.45-.29,5.35-4,.84,3.38,2.92,3.79,6.13,3.6-2.52,1.81-4.18,3.34-2.74,6.22-2.16-1.46-4.14-1.69-6.27.1Z" style="fill:#e2eaf7; stroke-width:0px;"/><path d="M347.18,328.63c-2.49,2.01-3.67,3.63-1.83,6.99-2.78-1.99-4.67-2.61-6.66-.46.66-2.8-.03-4.77-3.2-6.19,3.03-.32,5.57-.11,5.71-4.29,1.4,2.8,2.46,4.72,5.98,3.94Z" style="fill:#dbe5f5; stroke-width:0px;"/><path d="M400.62,444.27c1.29-3.12.95-5-1.54-6.38,2.77,0,4.45-.91,4.97-3.69.87,2.85,2.83,3.66,6.06,3.31-2.28,1.99-4.53,3.42-2.29,6.46-2.34-1.51-4.44-1.91-7.2.31Z" style="fill:#dbe5f5; stroke-width:0px;"/><path d="M498.63,449.71c-.16-.33-.32-.52-.28-.59,1.04-1.82-.76-2.86-1.16-4.28,1.6-.37,3.07-.94,3.72-4.04.83,3.1,2.34,3.92,4.18,3.88.16.88-.37,1.04-.69,1.13-2.02.53.1,3.86-1.82,3.45-1.56-.32-2.7.06-3.93.45Z" style="fill:#e2eaf7; stroke-width:0px;"/><path d="M549.25,433.1c-1.99,1.34-2.71,2.72-.72,5.29-2.55-.7-4.27-2.59-5.7-.49-.83-.21-.84-.71-.61-1.02,1.26-1.7-1.94-3.29-.71-3.91,1.44-.72,2.34-1.58,3.35-3.27.66,2.31,2.08,3.26,4.4,3.39Z" style="fill:#e2eaf7; stroke-width:0px;"/><path d="M520.11,456.83c.93-2.4-.36-3.78-1.87-5.08.54-.24.83-.51,1.06-.45,2.12.5,3.06-2.66,3.62-2.25,1.21.9,1.68,2.8,4.7,1.89-1.92,2.11-2.92,3.54-1.66,6.44-2.43-1.84-4.06-1.83-5.84-.55Z" style="fill:#d1dcf2; stroke-width:0px;"/><path d="M471.31,477.72c-2.06-2.48-3.53-1.93-5.49-.35.56-2.34.77-4.09-1.3-5.38,2.26-.17,3.37-1.41,4.01-3.34.55.91.81,1.94,1.34,2.11,2.31.75,2.64,1.79,1.11,3.7-.32.4.11,1.4.33,3.26Z" style="fill:#e2eaf7; stroke-width:0px;"/><path d="M569.47,443.96c.56-2.14.47-3.84-2.12-5.19,2.57-.38,4.47-.65,4.46-3.38,1.09,2.09,2.21,3.55,4.55,2.95.16,1.63-1.44,1.53-1.81,2.38-.38.89.12,1.77.4,3.09-1.86-.54-3.66-1.81-5.49.15Z" style="fill:#dbe5f5; stroke-width:0px;"/><path d="M573.75,430.32c-.77-.63-1.95,1.08-2.3-.21-.27-1-.45-1.98-1.07-2.83,1.02-.66,2.04-1.33,3.06-1.99.34,1.54,2.72.59,2.87,2.36-2.27-.49.9,4.33-2.56,2.68Z" style="fill:#d1dcf2; stroke-width:0px;"/><path d="M570.77,316.91c-.63-1.75.22-3.35.89-4.76,1.27-2.66.33-4.2-1.92-5.54-1.15-.69-2.14-1.64-3.43-2.66,1.46-1.25,3.04-.83,4.34-.66,2.99.41,4.45-1.05,5.31-3.59.47-1.4.95-2.79,1.49-4.36,1.63,1.67,1.75,3.73,2.32,5.55.53,1.71,1.39,2.5,3.23,2.37,1.8-.12,3.61-.03,6.04-.03-1.45,2.05-3.27,2.97-4.82,4.12-1.42,1.05-1.85,2.05-1.2,3.82.65,1.78,1.53,3.57,1.47,5.67-1.52-.3-2.44-1.34-3.5-2.11-3.38-2.46-3.36-2.47-6.91-.08-1.11.75-2.26,1.46-3.39,2.19,0,0,.07.08.07.08Z" style="fill:#f2f6fb; stroke-width:0px;"/><path d="M570.68,317.75c-.68,0-1.32-.09-1.75-.72.61-.04,1.22-.08,1.84-.13,0,0-.07-.08-.07-.08,0,.31-.01.61-.02.92Z" style="fill:#f2f6fb; stroke-width:0px;"/><path d="M571.82,318.56c-.52-.06-.89-.33-1.12-.79.52.06.89.33,1.12.79Z" style="fill:#f2f6fb; stroke-width:0px;"/><path d="M433.69,294.18c.1-.23.21-.47.31-.7.08.18.24.37.22.53-.04.32-.29.34-.6.09,0,0,.07.08.07.08Z" style="fill:#f6fbf9; stroke-width:0px;"/></svg>