<?xml version="1.0" encoding="UTF-8"?><svg id="Camada_1" xmlns="http://www.w3.org/2000/svg" viewBox="0 0 768 480"><path d="M.03,159.89C.03,107.08.03,54.27,0,1.47,0,.27.27,0,1.47,0c255.02.03,510.04.03,765.06,0,1.2,0,1.47.27,1.47,1.47-.03,52.81-.03,105.61-.03,158.42H.03Z" style="fill:#000; stroke-width:0px;"/><path d="M.03,159.89h767.94v159.86H.03v-159.86Z" style="fill:#fe0000; stroke-width:0px;"/><path d="M.03,319.74h767.94v159.86H.03v-159.86Z" style="fill:#fec80e; stroke-width:0px;"/><path d="M.03,479.6h767.94c-.07.1.16.33-.16.32-.43-.01-.85,0-1.28,0-255.02,0-510.04,0-765.06-.02-.47,0-1.08.37-1.44-.3Z" style="fill:#fefefe; stroke-width:0px;"/></svg>