<?xml version="1.0" encoding="UTF-8"?><svg id="Camada_1" xmlns="http://www.w3.org/2000/svg" viewBox="0 0 736.13 494.86"><path d="M731.75,26.27v126.98H4.91V21.89C8.24,13.44,14.08,6.87,22.43,2.19,251.57-.73,480.71-.73,709.86,2.19c8.2,7.46,15.5,15.49,21.89,24.08Z" style="fill:#1d2d35; fill-rule:evenodd; stroke-width:0px;"/><path d="M4.91,21.89v131.36h726.84c-243,4.37-486.74,5.83-731.22,4.38-1.44-46.04.03-91.28,4.38-135.73Z" style="fill:#334143; fill-rule:evenodd; stroke-width:0px;"/><path d="M731.75,26.27c5.84,102.16,5.84,204.33,0,306.5v-4.38c1.41-55.08-.05-109.81-4.38-164.2-241.56-3.64-482.37-2.91-722.46,2.19H.53v-8.76c244.48,1.45,488.22,0,731.22-4.38V26.27Z" style="fill:#9a6b69; fill-rule:evenodd; stroke-width:0px;"/><path d="M731.75,328.39H4.91v-162.01c240.08-5.1,480.9-5.83,722.46-2.19,4.33,54.38,5.79,109.11,4.38,164.2Z" style="fill:#ef4f4c; fill-rule:evenodd; stroke-width:0px;"/><path d="M.53,166.39h4.38v162.01h726.84v4.38H.53v-166.38Z" style="fill:#ee7562; fill-rule:evenodd; stroke-width:0px;"/><path d="M.53,332.77h731.22v4.38c-244.05-1.44-487.79.02-731.22,4.38v-8.76Z" style="fill:#f4b25e; fill-rule:evenodd; stroke-width:0px;"/><path d="M731.75,337.15c2.31,50.26-.61,99.88-8.76,148.87-6.39-.29-12.22,1.16-17.51,4.38-224.77.73-449.54,0-674.29-2.19-5.5-1.83-8.42-5.47-8.76-10.95-6.39.29-12.22-1.16-17.51-4.38C.56,429.89-.9,386.1.53,341.53c243.42-4.36,487.16-5.82,731.22-4.38Z" style="fill:#f2dd44; fill-rule:evenodd; stroke-width:0px;"/><path d="M22.43,477.26c-2.11-4.01-3.57-8.39-4.38-13.14,4.85-10.43,7.76-21.37,8.76-32.84-5.99-17.9-8.17-36.14-6.57-54.73,9.52-3.31,19.01-6.95,28.46-10.95,211.63-1.46,423.26-2.92,634.89-4.38,7.3-4.38,14.59-8.76,21.89-13.14-231.38-2.14-461.98-2.87-691.81-2.19,236.42-4.38,472.86-5.84,709.32-4.38.73,37.98,0,75.92-2.19,113.84-.71,9.53-4.36,17.55-10.95,24.08-229.32,3.61-458.47,2.88-687.43-2.19Z" style="fill:#f8e341; fill-rule:evenodd; stroke-width:0px;"/><path d="M4.91,472.88c5.29,3.21,11.13,4.67,17.51,4.38.34,5.47,3.26,9.12,8.76,10.95,224.76,2.19,449.53,2.92,674.29,2.19-226.95,5.1-454.63,5.83-683.05,2.19-9.86-3.28-15.69-9.84-17.51-19.7Z" style="fill:#e6da6e; fill-rule:evenodd; stroke-width:0px;"/></svg>