<?xml version="1.0" encoding="UTF-8"?><svg id="Camada_1" xmlns="http://www.w3.org/2000/svg" viewBox="0 0 579.06 387.1"><path d="M297.72.42c86.12-1.13,171.66,0,256.6,3.42h-253.18v23.95h-3.42V.42Z" style="fill:#db6b6e; fill-rule:evenodd; stroke-width:0px;"/><path d="M554.32,3.84c7.4.76,13.1,4.18,17.11,10.26v13.69h-270.29V3.84h253.18Z" style="fill:#ea4e4a; fill-rule:evenodd; stroke-width:0px;"/><path d="M571.43,17.53c3.2,3.65,4.34,8.21,3.42,13.69h-273.71v-3.42h270.29v-10.26Z" style="fill:#f4a5a0; fill-rule:evenodd; stroke-width:0px;"/><path d="M571.43,17.53v-3.42c6.72,24.84,9.01,51.07,6.84,78.69h-10.26c-89.54,1.13-178.5,0-266.87-3.42h273.71v-30.79h-277.13v-30.79h3.42v27.37h266.87v-20.53c-87.26,1.13-173.94,0-260.02-3.42h266.87c.92-5.47-.23-10.03-3.42-13.69Z" style="fill:#f7dede; fill-rule:evenodd; stroke-width:0px;"/><path d="M301.14,31.22h6.84c86.08,3.41,172.76,4.55,260.02,3.42v20.53h-266.87v-23.95Z" style="fill:#fdfcfc; fill-rule:evenodd; stroke-width:0px;"/><path d="M297.72,58.59h277.13v30.79h-277.13v-30.79Z" style="fill:#f0817f; fill-rule:evenodd; stroke-width:0px;"/><path d="M301.14,62.01h270.29v23.95h-270.29v-23.95Z" style="fill:#ef504b; fill-rule:evenodd; stroke-width:0px;"/><path d="M6.9,14.11c-3.33,63.71-4.47,127.57-3.42,191.6C-.49,143.57-1.07,80.84,1.77,17.53c1.31-1.9,3.02-3.04,5.13-3.42Z" style="fill:#a6bbd6; fill-rule:evenodd; stroke-width:0px;"/><path d="M297.72,89.38h3.42c88.37,3.41,177.32,4.55,266.87,3.42v23.95h-270.29v-27.37Z" style="fill:#fdfcfc; fill-rule:evenodd; stroke-width:0px;"/><path d="M297.72,116.75h270.29c6.46,8.51,8.74,18.78,6.84,30.79h-277.13v-30.79Z" style="fill:#f18783; fill-rule:evenodd; stroke-width:0px;"/><path d="M301.14,120.17h270.29v23.95h-270.29v-23.95Z" style="fill:#ef514d; fill-rule:evenodd; stroke-width:0px;"/><path d="M297.72,147.54h3.42c88.37,3.41,177.32,4.55,266.87,3.42v23.95c-89.54-1.13-178.5,0-266.87,3.42h-3.42v-30.79Z" style="fill:#fcfcf9; fill-rule:evenodd; stroke-width:0px;"/><path d="M297.72.42v208.7c-98.67,1.13-196.75,0-294.24-3.42-1.05-64.02.09-127.89,3.42-191.6,2.7-4.43,6.12-8.42,10.26-11.97C110.68.42,204.2-.15,297.72.42Z" style="fill:#2961a9; fill-rule:evenodd; stroke-width:0px;"/><path d="M71.91,140.7c8.25.66,11.67,5.23,10.26,13.69h-13.69c-.23-4.99.91-9.55,3.42-13.69Z" style="fill:#bdcee8; fill-rule:evenodd; stroke-width:0px;"/><path d="M24.01,140.7c8.25.66,11.67,5.23,10.26,13.69h-13.69c-.23-4.99.91-9.55,3.42-13.69Z" style="fill:#bccce4; fill-rule:evenodd; stroke-width:0px;"/><path d="M119.81,140.7c8.25.66,11.67,5.23,10.26,13.69h-13.69c-.23-4.99.91-9.55,3.42-13.69Z" style="fill:#c5d1ec; fill-rule:evenodd; stroke-width:0px;"/><path d="M260.08,144.12h10.26v10.26h-10.26v-10.26Z" style="fill:#d3e0f3; fill-rule:evenodd; stroke-width:0px;"/><path d="M188.23,120.17c11.67-.4,16.23,5.3,13.69,17.11h-13.69v-17.11Z" style="fill:#9ab3d8; fill-rule:evenodd; stroke-width:0px;"/><path d="M150.6,120.17c6.01,3.6,8.29,9.3,6.84,17.11,6.55-.97,12.25.17,17.11,3.42,4.08,1.61,6.36,5.03,6.84,10.26-.06,10.31-4.05,12.59-11.97,6.84-6.95,4.1-12.09,9.8-15.4,17.11-5.29,3.26-10.99,4.4-17.11,3.42-.73-5.62.41-10.76,3.42-15.4,6.75-1.7,13.59-2.27,20.53-1.71,1.12-15.59-6.29-23.57-22.24-23.95-2.62-5.36-2.05-9.92,1.71-13.69v10.26h10.26v-13.69Z" style="fill:#547fbc; fill-rule:evenodd; stroke-width:0px;"/><path d="M174.55,140.7c2.51,4.13,3.65,8.69,3.42,13.69h-13.69v-13.69h10.26Z" style="fill:#c1cfe9; fill-rule:evenodd; stroke-width:0px;"/><path d="M95.86,120.17c8.25.66,11.67,5.23,10.26,13.69h-13.69c-.23-4.99.91-9.55,3.42-13.69Z" style="fill:#b6c9e4; fill-rule:evenodd; stroke-width:0px;"/><path d="M150.6,120.17v13.69h-10.26v-10.26c2.43-3.09,5.85-4.23,10.26-3.42Z" style="fill:#c9d4eb; fill-rule:evenodd; stroke-width:0px;"/><path d="M212.18,96.22c6.12-.98,11.82.16,17.11,3.42-2.55,4.23-3.69,8.79-3.42,13.69,20.12-1.54,28.11,7.58,23.95,27.37h-17.11v-23.95h-23.95c-.6-7.26.54-14.1,3.42-20.53Z" style="fill:#6187c1; fill-rule:evenodd; stroke-width:0px;"/><path d="M256.66,99.64h17.11v13.69h-17.11v-13.69Z" style="fill:#8ca8d1; fill-rule:evenodd; stroke-width:0px;"/><path d="M160.86,99.64h17.11v13.69h-17.11v-13.69Z" style="fill:#8ea9d3; fill-rule:evenodd; stroke-width:0px;"/><path d="M68.49,99.64h13.69v13.69h-13.69v-13.69Z" style="fill:#a3bddc; fill-rule:evenodd; stroke-width:0px;"/><path d="M20.59,99.64h13.69v13.69h-13.69v-13.69Z" style="fill:#a6bddd; fill-rule:evenodd; stroke-width:0px;"/><path d="M109.54,96.22h23.95c-.2,14.67-7.04,19.23-20.53,13.69-2.55-4.23-3.69-8.79-3.42-13.69Z" style="fill:#7597c8; fill-rule:evenodd; stroke-width:0px;"/><path d="M188.23,75.69c10.94,2.1,15.5,8.94,13.69,20.53h-17.11c.06-7.06,1.2-13.91,3.42-20.53Z" style="fill:#809fcd; fill-rule:evenodd; stroke-width:0px;"/><path d="M95.86,79.11c8.84,1.88,12.26,7.58,10.26,17.11h-13.69c-.46-6.13.68-11.83,3.42-17.11Z" style="fill:#85a3cf; fill-rule:evenodd; stroke-width:0px;"/><path d="M232.71,79.11h17.11v13.69c-10.42,1.09-16.12-3.48-17.11-13.69Z" style="fill:#93aed4; fill-rule:evenodd; stroke-width:0px;"/><path d="M47.96,75.69c8.84,1.88,12.26,7.58,10.26,17.11h-13.69c.44-5.87,1.58-11.57,3.42-17.11Z" style="fill:#afc5e2; fill-rule:evenodd; stroke-width:0px;"/><path d="M208.76,55.17h17.11v17.11h-17.11v-17.11Z" style="fill:#80a0cf; fill-rule:evenodd; stroke-width:0px;"/><path d="M150.6,38.06h-10.26v10.26c4.99.23,9.55-.91,13.69-3.42-.45,3,.69,5.28,3.42,6.84,6.44,2.03,12.71,4.31,18.82,6.84,1.68,4.42,2.25,8.99,1.71,13.69-8.28-.71-16.26.43-23.95,3.42-1.44,6.25-1.44,13.09,0,20.53h-17.11c.27-4.89-.87-9.46-3.42-13.69,7.55-5.85,15.54-10.98,23.95-15.4-6.56-9.99-15.68-19.68-27.37-29.08,7.31-4.42,14.15-4.42,20.53,0Z" style="fill:#5881bd; fill-rule:evenodd; stroke-width:0px;"/><path d="M256.66,55.17c17.28-1.41,20.13,3.15,8.55,13.69-5.46-2.93-8.31-7.49-8.55-13.69Z" style="fill:#b2c6df; fill-rule:evenodd; stroke-width:0px;"/><path d="M71.91,55.17c8.25.66,11.67,5.23,10.26,13.69h-13.69c-.23-4.99.91-9.55,3.42-13.69Z" style="fill:#b0c4e2; fill-rule:evenodd; stroke-width:0px;"/><path d="M17.17,55.17c14.29-2.25,19.42,3.45,15.4,17.11-9.14-2.26-14.28-7.97-15.4-17.11Z" style="fill:#a0b7dd; fill-rule:evenodd; stroke-width:0px;"/><path d="M191.66,34.64c7.73,2.89,11.15,8.59,10.26,17.11h-17.11c-.46-7.03,1.82-12.73,6.84-17.11Z" style="fill:#88a5d2; fill-rule:evenodd; stroke-width:0px;"/><path d="M95.86,34.64c8.84,1.88,12.26,7.58,10.26,17.11h-17.11c-.46-7.03,1.82-12.73,6.84-17.11Z" style="fill:#82a0cf; fill-rule:evenodd; stroke-width:0px;"/><path d="M236.13,38.06h10.26v10.26h-10.26v-10.26Z" style="fill:#e1e5f4; fill-rule:evenodd; stroke-width:0px;"/><path d="M150.6,38.06c2.87,1.17,4.01,3.45,3.42,6.84-4.13,2.51-8.69,3.65-13.69,3.42v-10.26h10.26Z" style="fill:#d0daf0; fill-rule:evenodd; stroke-width:0px;"/><path d="M47.96,34.64c5.12-.29,8.54,1.99,10.26,6.84-2.81,5.51-7.37,7.79-13.69,6.84-.23-4.99.91-9.55,3.42-13.69Z" style="fill:#cfd9ef; fill-rule:evenodd; stroke-width:0px;"/><path d="M164.29,14.11h10.26v13.69h-13.69c-.23-4.99.91-9.55,3.42-13.69Z" style="fill:#b4c4e3; fill-rule:evenodd; stroke-width:0px;"/><path d="M119.81,14.11c8.25.66,11.67,5.23,10.26,13.69h-13.69c-.23-4.99.91-9.55,3.42-13.69Z" style="fill:#bacce4; fill-rule:evenodd; stroke-width:0px;"/><path d="M260.08,17.53h10.26v10.26h-10.26v-10.26Z" style="fill:#cfd8ee; fill-rule:evenodd; stroke-width:0px;"/><path d="M212.18,14.11h10.26v13.69h-10.26v-13.69Z" style="fill:#ced8ec; fill-rule:evenodd; stroke-width:0px;"/><path d="M71.91,14.11c8.25.66,11.67,5.23,10.26,13.69h-13.69c-.23-4.99.91-9.55,3.42-13.69Z" style="fill:#b9c8e4; fill-rule:evenodd; stroke-width:0px;"/><path d="M24.01,14.11c8.25.66,11.67,5.23,10.26,13.69h-13.69c-.23-4.99.91-9.55,3.42-13.69Z" style="fill:#becde5; fill-rule:evenodd; stroke-width:0px;"/><path d="M212.18,140.7h17.11v20.53h23.95c-.2,14.67-7.04,19.23-20.53,13.69-2.84-10.85-9.69-16.55-20.53-17.11v-17.11Z" style="fill:#658ac4; fill-rule:evenodd; stroke-width:0px;"/><path d="M95.86,161.23c8.25.66,11.67,5.23,10.26,13.69h-13.69c-.23-4.99.91-9.55,3.42-13.69Z" style="fill:#bccce9; fill-rule:evenodd; stroke-width:0px;"/><path d="M188.23,161.23c11.67-.4,16.23,5.3,13.69,17.11h-17.11c-.46-6.13.68-11.83,3.42-17.11Z" style="fill:#89a4d3; fill-rule:evenodd; stroke-width:0px;"/><path d="M297.72,178.33h277.13c1.05,9.87-.09,19-3.42,27.37v-23.95h-270.29v23.95h-3.42v-27.37Z" style="fill:#eb7271; fill-rule:evenodd; stroke-width:0px;"/><path d="M61.64,181.76c9.4-1.07,18.52.07,27.37,3.42-2.55,4.23-3.69,8.79-3.42,13.69h-20.53c-.44-5.87-1.58-11.57-3.42-17.11Z" style="fill:#6b92c4; fill-rule:evenodd; stroke-width:0px;"/><path d="M160.86,181.76h20.53c.04,13.5-6.8,19.2-20.53,17.11v-17.11Z" style="fill:#7d9ecd; fill-rule:evenodd; stroke-width:0px;"/><path d="M571.43,205.71h-270.29v-23.95h270.29v23.95Z" style="fill:#ee4e4a; fill-rule:evenodd; stroke-width:0px;"/><path d="M24.01,181.76h13.69v17.11h-17.11c-.46-6.13.68-11.83,3.42-17.11Z" style="fill:#87a5d0; fill-rule:evenodd; stroke-width:0px;"/><path d="M119.81,181.76c5.06-.9,9.62.24,13.69,3.42-2.55,4.23-3.69,8.79-3.42,13.69h-17.11c-.46-7.03,1.82-12.73,6.84-17.11Z" style="fill:#8ea9d4; fill-rule:evenodd; stroke-width:0px;"/><path d="M212.18,181.76c11.67-.4,16.23,5.3,13.69,17.11h-13.69v-17.11Z" style="fill:#96b0d7; fill-rule:evenodd; stroke-width:0px;"/><path d="M256.66,181.76c13.69-2.28,19.39,3.42,17.11,17.11h-17.11v-17.11Z" style="fill:#89a5d2; fill-rule:evenodd; stroke-width:0px;"/><path d="M297.72,209.13c88.96-.57,177.92,0,266.87,1.71,3.16,6.98,4.3,14.4,3.42,22.24H13.75v-20.53c95.25,1.13,189.9,0,283.97-3.42Z" style="fill:#fdfdfa; fill-rule:evenodd; stroke-width:0px;"/><path d="M301.14,147.54h273.71c4.38,40.4,4.38,80.31,0,119.75v-30.79H3.48c2.43-3.09,5.85-4.23,10.26-3.42h554.26c.88-7.84-.26-15.26-3.42-22.24-88.95-1.71-177.9-2.28-266.87-1.71v-3.42h273.71c3.33-8.38,4.47-17.5,3.42-27.37h-273.71c88.37-3.41,177.32-4.55,266.87-3.42v-23.95c-89.54,1.13-178.5,0-266.87-3.42Z" style="fill:#f8d0ce; fill-rule:evenodd; stroke-width:0px;"/><path d="M3.48,239.92h567.95v23.95H3.48v-23.95Z" style="fill:#ef514e; fill-rule:evenodd; stroke-width:0px;"/><path d="M3.48,239.92v-3.42h571.37v30.79c-191.04,1.14-381.49,0-571.37-3.42h567.95v-23.95H3.48Z" style="fill:#f68b8a; fill-rule:evenodd; stroke-width:0px;"/><path d="M564.58,294.66H6.9c5.64-6.69,7.92-14.67,6.84-23.95h550.84v23.95Z" style="fill:#fefdfc; fill-rule:evenodd; stroke-width:0px;"/><path d="M3.48,298.08h567.95v23.95H3.48v-23.95Z" style="fill:#ee4e4a; fill-rule:evenodd; stroke-width:0px;"/><path d="M3.48,298.08c0-2.28,1.14-3.42,3.42-3.42h567.95v30.79c-191.04,1.14-381.49,0-571.37-3.42h567.95v-23.95H3.48Z" style="fill:#f48c85; fill-rule:evenodd; stroke-width:0px;"/><path d="M13.75,328.87c183.66-1.02,367.27.12,550.84,3.42v17.11H13.75v-20.53Z" style="fill:#fdfdfb; fill-rule:evenodd; stroke-width:0px;"/><path d="M3.48,356.25c189.88-3.42,380.33-4.56,571.37-3.42.55,6.94-.02,13.78-1.71,20.53-2.79,4.53-6.78,6.81-11.97,6.84,6.45-5.31,9.87-12.16,10.26-20.53-188.74-3.42-378.05-4.56-567.95-3.42Z" style="fill:#f8bcbc; fill-rule:evenodd; stroke-width:0px;"/><path d="M3.48,356.25c189.9-1.14,379.21,0,567.95,3.42H6.9c.44,5.87,1.58,11.57,3.42,17.11-6.09-5.1-8.37-11.94-6.84-20.53Z" style="fill:#f27571; fill-rule:evenodd; stroke-width:0px;"/><path d="M571.43,359.67c-.39,8.37-3.81,15.21-10.26,20.53-3.39-.59-5.67.55-6.84,3.42-179.19,1.11-358.25-.03-537.15-3.42-2.28-1.14-4.56-2.28-6.84-3.42-1.84-5.53-2.98-11.24-3.42-17.11h564.53Z" style="fill:#e94e4a; fill-rule:evenodd; stroke-width:0px;"/><path d="M17.17,380.19c178.91,3.39,357.96,4.53,537.15,3.42-177.34,3.99-355.25,4.56-533.73,1.71-1.9-1.31-3.04-3.02-3.42-5.13Z" style="fill:#e59a96; fill-rule:evenodd; stroke-width:0px;"/></svg>