<?xml version="1.0" encoding="UTF-8"?>
<svg id="Camada_1" data-name="Camada 1" xmlns="http://www.w3.org/2000/svg" version="1.1" viewBox="0 0 994.9 808.2">
  <defs>
    <style>
      .cls-1 {
        fill: #fff;
        stroke-width: 0px;
      }
    </style>
  </defs>
  <path class="cls-1" d="M643.6,482.8c-.2.9-.3,1.9-.5,2.8h0c0,1.4-.5,2.5-2.2,2.5.3-.6.7-1.3,1-2,.4-1.3.9-2.5,1.8-3.4h0Z"/>
  <path class="cls-1" d="M827.6,756.2c0,25.4-15.1,45-38.9,50.9-3.1.8-6.3.8-9.4.8-44.1,0-88.3,0-132.4,0-5,0-5.9-1.7-5.9-6.2,0-102.7,0-205.5,0-308.2s0-3.6-.2-5.5c-24.4,18-48.9,36.1-73.4,54.2-33.3,24.6-66.6,49.1-99.8,73.7-16.2,11.9-32.4,23.8-48.4,35.9-3.9,3-6.2,3.7-10.7.2-35-27.3-70.3-54.2-105.4-81.2-38.2-29.4-76.3-58.8-114.5-88.2-.6-.5-1.5-.6-2.2-.9v319.7c0,4.5-2.2,6.7-6.7,6.7H45.8c-19.6,0-40.8-18.4-43.7-38C0,765,0,759.5,0,754v-393.8c0-4,0-8,.2-12,0-27.8-.5-55.6.2-83.4.3-11,5.3-21.2,10-31.1,7.4-15.5,17-29.2,31.5-39,13.5-9.1,28.4-11.9,44.2-9.9,19.5,2.4,37,9.9,52.8,21.6,15.9,11.7,32.1,23,48.1,34.4h0c20.9,15.5,41.9,30.8,62.8,46.4,27.9,20.7,55.6,41.6,83.5,62.3,26.4,19.7,52.8,39.2,79.2,58.9,2.7,2,4.3,2.4,7.2.2,35.1-26.9,70.3-53.6,105.5-80.4,37.8-28.8,75.5-57.6,113.3-86.5.9-.7,2-1.2,3-1.7,17.6-12.5,35.1-25.1,52.8-37.5,15.9-11.2,33.7-17.4,53-18.3,26.6-1.3,46,11.6,60.6,32.9,9.2,13.5,15.1,28.4,19,44.2.5,1.9.6,3.9.6,5.9v78.3c0,9.5,0,19,0,28.5v382.1h0Z"/>
</svg>