<?xml version="1.0" encoding="UTF-8"?><svg id="Camada_1" xmlns="http://www.w3.org/2000/svg" viewBox="0 0 985.74 519.09"><path d="M.51,22.45c.04-6.49.19-12.99.05-19.48C.51.65,1.05.02,3.45.03c48.58.08,97.17.06,145.75.05,80.84,0,161.68,0,242.51,0,.97,0,1.95.05,2.92.08.02,13.28.03,26.56.05,39.84,0,13.3,0,26.6,0,39.9,0,.18,0,.36,0,.54,0,12.84,0,25.68,0,38.52-.06.15-.06.3,0,.45-.06.13-.06.26,0,.39v39.76c-.05.13-.05.25,0,.38-.07.15-.07.3,0,.45,0,12.84,0,25.68,0,38.52,0,.18,0,.37,0,.55,0,13.3,0,26.6,0,39.9,0,13,0,26.01,0,39.01-.03.27-.06.53-.08.8-1.05.04-2.1.1-3.16.1-129.16,0-258.33,0-387.49,0-.97,0-1.95.05-2.92.08-.11-.12-.25-.18-.42-.18,0-84.61,0-169.21-.01-253.82,0-.97-.06-1.94-.09-2.91ZM296.58,41.44c.08.09.17.18.25.27,0-.09.02-.19.03-.28-.11.03-.21.05-.32.08.11-2.95-1.38-5.48-2.22-8.17-.53-1.71-.43-2.72,1.22-3.73,2.4-1.48,4.59-3.28,7.41-5.33-3.54,0-6.3-.13-9.05.05-1.86.12-2.74-.44-3.22-2.27-.72-2.77-1.74-5.46-2.83-8.8-1.07,3.21-2.14,5.82-2.78,8.53-.49,2.07-1.47,2.68-3.51,2.54-2.74-.18-5.5-.04-8.87-.04,2.88,2.09,5.01,3.87,7.37,5.29,1.79,1.07,1.9,2.19,1.22,3.96-.98,2.53-1.71,5.16-2.54,7.75,2.73-1.39,5.12-3,7.37-4.78,1.21-.96,2.07-1.09,3.36-.07,2.28,1.79,4.74,3.36,7.12,5.02ZM71.81,41.57c2.42-1.75,4.88-3.45,7.24-5.28,1.1-.85,1.88-.79,2.97.03,2.37,1.79,4.86,3.42,7.3,5.12.08.09.15.19.23.28.01-.09.03-.18.04-.28-.1.02-.21.04-.31.06.08-2.8-1.19-5.28-2.15-7.75-.86-2.24-.3-3.32,1.53-4.47,2.22-1.4,4.28-3.05,6.98-4.99-3.73,0-6.78-.07-9.82.03-1.29.04-1.87-.41-2.23-1.6-.89-2.96-1.89-5.88-3.08-9.55-1.16,3.62-2.14,6.5-3.01,9.41-.38,1.27-.97,1.8-2.39,1.74-3.01-.13-6.04-.04-9.71-.04,2.36,1.72,4.11,3.01,5.87,4.28,3.44,2.48,3.35,2.45,2.17,6.5-.63,2.16-2.09,4.14-1.62,6.57l-.29-.25c-.04.06-.08.11-.12.17l.39.02ZM244.88,41.45c.04.07.06.14.11.2.02.02.09-.01.14-.02-.1-.04-.19-.08-.29-.12-.15-3.11-1.65-5.85-2.51-8.76-.4-1.36-.19-2,.94-2.77,2.49-1.69,4.88-3.53,7.83-5.69-3.26,0-5.86-.23-8.4.07-2.58.3-3.55-.77-4.12-3.06-.63-2.54-1.59-5-2.59-8.08-1.16,3.57-2.15,6.47-3.01,9.4-.38,1.3-1.01,1.77-2.4,1.72-3.01-.12-6.02-.04-9.71-.04,3.06,2.23,5.42,4.06,7.9,5.71,1.18.78,1.34,1.54.9,2.8-1.03,2.91-1.92,5.86-3.02,9.28,2.84-2.05,5.26-3.68,7.53-5.51,1.29-1.04,2.19-1.11,3.57-.07,2.31,1.74,4.49,3.69,7.13,4.96ZM89.26,188.73c.13.04.26.07.38.11-.03-.07-.05-.14-.08-.21l-.34.18c.75-.79,0-1.49-.2-2.18-.69-2.33-1.37-4.66-2.24-6.93-.44-1.14-.21-1.72.75-2.38,2.57-1.77,5.06-3.66,8.1-5.88-3.58,0-6.56-.11-9.52.04-1.63.08-2.26-.57-2.67-2-.82-2.82-1.79-5.6-2.94-9.13-1.16,3.59-2.14,6.46-3.01,9.36-.38,1.27-.95,1.82-2.38,1.76-3.04-.13-6.09-.04-9.77-.04,2.76,2.01,4.91,3.71,7.2,5.18,1.67,1.07,2.24,2.1,1.39,4.1-1.06,2.49-1.71,5.15-2.76,8.45,2.96-2.12,5.36-3.72,7.62-5.51,1.23-.97,2.09-1.06,3.37-.05,2.28,1.82,4.72,3.43,7.1,5.12ZM149.23,151.59c.68.62,1-.14,1.38-.41,1.99-1.4,4.03-2.75,5.89-4.32,1.33-1.11,2.27-.97,3.55.05,2.27,1.81,4.69,3.44,7.57,5.53-1.03-3.21-1.7-5.88-2.76-8.4-.87-2.07-.34-3.19,1.48-4.32,2.29-1.42,4.39-3.15,7.15-5.16-3.74,0-6.72-.08-9.7.04-1.47.06-2.16-.39-2.57-1.83-.81-2.86-1.82-5.67-2.97-9.19-1.15,3.49-2.16,6.29-2.98,9.14-.4,1.39-.99,1.95-2.51,1.88-3.02-.14-6.04-.04-9.75-.04,3.12,2.27,5.57,4.13,8.1,5.87,1.05.73,1.24,1.39.81,2.62-.99,2.81-1.77,5.71-2.63,8.57-.07.1-.15.21-.22.31.07,0,.14,0,.22,0-.02-.11-.04-.23-.06-.34ZM279.16,188.97c2.16-2.1,4.85-3.51,7.12-5.45,1.18-1,2.02-.82,3.16.07,2.39,1.86,4.9,3.57,7.75,5.61-1.11-3.44-2.01-6.45-3.07-9.4-.44-1.21-.2-1.86.84-2.57,2.53-1.73,4.97-3.59,8-5.8-3.51,0-6.4-.13-9.28.05-1.84.12-2.54-.62-3-2.26-.76-2.75-1.74-5.44-2.84-8.79-1.13,3.4-2.15,6.18-2.95,9.02-.42,1.5-1.08,2.09-2.69,2.02-2.97-.13-5.94-.04-9.52-.04,2.15,1.57,3.78,2.76,5.41,3.95,3.88,2.84,3.77,2.81,2.46,7.42-.58,2.02-2.03,3.89-1.41,6.18-.06-.21-.05-.53-.4-.23.13.07.27.14.4.21ZM244.77,188.85c.13-.01.26-.03.38-.04-.05-.05-.13-.14-.13-.13-.1.07-.19.16-.28.24.56-.72.09-1.38-.12-2.04-.73-2.31-1.38-4.66-2.24-6.91-.49-1.29-.33-2,.85-2.79,2.53-1.69,4.93-3.56,7.91-5.73-3.52,0-6.42-.11-9.31.04-1.67.09-2.43-.43-2.88-2.06-.78-2.84-1.82-5.61-2.95-8.98-1.09,3.37-2.09,6.08-2.83,8.86-.46,1.74-1.34,2.26-3.08,2.17-2.84-.15-5.69-.04-9.24-.04,2.99,2.17,5.3,3.94,7.72,5.55,1.29.86,1.6,1.7,1.06,3.17-1.04,2.83-1.89,5.73-2.98,9.08,2.96-2.15,5.48-3.91,7.92-5.78.99-.76,1.74-.87,2.77-.07,2.43,1.89,4.94,3.66,7.43,5.47ZM88.99,262.08c.19.14.37.28.56.42.17-.31.26-.61-.19-.76-.82-2.7-1.55-5.43-2.5-8.08-.5-1.38-.27-2.16.95-2.98,2.49-1.66,4.86-3.49,7.29-5.25-3.23-.47-6.22-.54-9.2-.43-1.38.05-2.03-.41-2.41-1.72-.84-2.89-1.82-5.74-2.74-8.61-1.25,2.42-2.19,4.81-2.78,7.28-.56,2.34-1.62,3.35-4.16,3.07-2.56-.28-5.16-.06-7.75-.06,2.34,2.3,4.73,4.1,7.2,5.79,1.11.76,1.41,1.46.92,2.79-1.05,2.84-1.89,5.76-3.01,9.27,3.02-2.19,5.54-3.94,7.97-5.8,1-.77,1.72-.78,2.74,0,2.32,1.77,4.74,3.4,7.12,5.08ZM37.54,188.74c.06.03.12.06.18.08.02,0,.05-.03.08-.04-.1,0-.2.02-.3.02-.04-3.12-1.56-5.84-2.43-8.74-.43-1.42-.27-2.16.96-2.99,2.48-1.67,4.85-3.5,7.8-5.65-3.52,0-6.35-.1-9.17.04-1.72.08-2.6-.35-3.06-2.16-.73-2.84-1.81-5.58-2.93-8.89-.92,2.83-1.58,5.08-2.37,7.28-1.61,4.49-.28,3.63-5.04,3.72-2.34.05-4.67,0-7.01,0,2.12,2.07,4.22,3.73,6.46,5.17,1.67,1.07,2.21,2.13,1.39,4.11-1.07,2.57-1.74,5.31-2.76,8.53,2.79-2.03,5.13-3.61,7.34-5.38,1.41-1.13,2.47-1.28,3.97-.04,2.17,1.8,4.59,3.3,6.91,4.93ZM89.3,115.06c.1.08.21.15.31.23,0-.07,0-.14,0-.22-.11.02-.23.03-.34.05-.01-3.01-1.46-5.63-2.33-8.39-.48-1.52-.4-2.42,1.08-3.36,2.45-1.56,4.73-3.41,7.07-5.14-3.2-.44-6.19-.51-9.17-.4-1.39.05-2.02-.44-2.4-1.74-.85-2.9-1.82-5.75-2.97-9.34-1.15,3.5-2.17,6.27-2.95,9.11-.43,1.56-1.19,2.02-2.74,1.96-2.93-.11-5.86-.03-8.79-.03,2.19,2.17,4.38,3.98,6.78,5.45,1.7,1.04,1.75,2.12,1.14,3.77-.94,2.52-1.67,5.12-2.49,7.69,2.86-1.38,5.25-3.01,7.54-4.79,1.08-.84,1.84-.87,2.95-.02,2.37,1.81,4.88,3.46,7.33,5.17ZM14.39,244.96l-.24.53c2.21,1.61,4.36,3.34,6.67,4.8,1.64,1.04,2.09,2.03,1.31,3.92-1.07,2.59-1.76,5.33-2.8,8.62,2.98-2.16,5.5-3.9,7.91-5.79,1.1-.87,1.86-.79,2.92.04,2.35,1.84,4.81,3.54,7.85,5.75-1.11-3.5-1.87-6.35-2.93-9.1-.6-1.55-.18-2.32,1.08-3.17,2.43-1.64,4.76-3.42,7.14-5.15-3.11-.45-6.02-.57-8.9-.41-1.74.1-2.34-.58-2.84-2.14-.88-2.76-1.5-5.64-3.01-8.57-1.01,3.15-1.94,5.9-2.75,8.7-.42,1.44-1.08,2.1-2.7,2.01-2.89-.15-5.8-.04-8.7-.04ZM37.31,115.15c.17-.09.33-.18.5-.27-.85-2.59-1.59-5.22-2.57-7.76-.68-1.78-.5-2.9,1.25-3.97,2.38-1.46,4.54-3.26,7.38-5.34-3.72,0-6.7-.08-9.67.03-1.48.05-2.14-.42-2.54-1.88-.81-2.91-1.87-5.74-3.01-9.16-1.12,3.47-2.11,6.3-2.92,9.18-.4,1.43-1.11,1.91-2.58,1.86-2.97-.11-5.94-.03-8.91-.03,2.22,2.2,4.49,4.02,6.92,5.59,1.48.95,1.59,1.87,1.03,3.4-1.02,2.74-1.82,5.55-2.89,8.9,3.04-2.21,5.57-3.98,8.01-5.86,1.02-.79,1.72-.75,2.73.04,2.36,1.84,4.83,3.54,7.25,5.29ZM174.77,115.69c3.05-2.22,5.55-3.95,7.94-5.81,1.09-.85,1.84-.82,2.92.02,2.37,1.85,4.87,3.54,7.86,5.69-1.09-3.45-1.83-6.26-2.88-8.95-.59-1.52-.3-2.34.99-3.22,2.44-1.66,4.79-3.46,7.76-5.63-3.81,0-6.86-.05-9.91.02-1.26.03-1.86-.38-2.23-1.64-.87-2.99-1.93-5.94-3.06-9.36-1.12,3.4-2.16,6.29-3,9.23-.38,1.35-1.02,1.8-2.39,1.76-3.03-.09-6.07-.03-9.81-.03,3.07,2.25,5.51,4.11,8.04,5.84,1.07.73,1.28,1.46.87,2.64-1,2.88-1.92,5.79-3.11,9.42ZM224.6,61.49c-.06-.16-.12-.33-.18-.49-2.98,0-5.96-.08-8.94.03-1.4.05-2.01-.43-2.39-1.75-.85-2.92-1.87-5.79-3.01-9.28-1.15,3.49-2.18,6.31-2.99,9.18-.41,1.43-1.06,1.92-2.55,1.85-2.93-.13-5.88-.04-8.82-.04,2.28,2.26,4.65,4.05,7.1,5.73,1.11.77,1.39,1.5.9,2.83-1.05,2.86-1.89,5.79-3.01,9.31,2.63-1.9,4.84-3.27,6.77-4.96,1.83-1.6,3.24-1.79,5.15-.08,1.95,1.75,4.22,3.13,6.89,5.07-1.16-3.56-2.02-6.5-3.08-9.37-.49-1.32-.21-2.02.93-2.79,2.47-1.67,4.84-3.49,7.25-5.25ZM146.91,98.28c-.04-.16-.08-.31-.12-.47-2.97,0-5.94-.07-8.9.03-1.45.05-2.18-.37-2.59-1.83-.81-2.92-1.83-5.78-2.95-9.23-1,3.06-2,5.53-2.59,8.1-.53,2.3-1.58,3.2-4,2.98-2.62-.24-5.28-.05-8.65-.05,3.01,2.19,5.39,3.99,7.85,5.68,1.17.8,1.57,1.52,1,2.99-1.06,2.76-1.84,5.64-2.96,9.18,2.76-2.01,4.99-3.47,7.02-5.17,1.62-1.36,2.84-1.54,4.54-.05,2.07,1.8,4.43,3.27,7.16,5.23-1.13-3.48-2-6.33-3-9.13-.47-1.32-.36-2.17.92-3.02,2.49-1.64,4.84-3.48,7.25-5.24ZM236.24,87.51c-.16-.02-.32-.05-.47-.07-.91,2.84-1.88,5.66-2.7,8.53-.4,1.4-1.07,1.93-2.57,1.87-2.97-.12-5.95-.04-9.69-.04,3.02,2.21,5.38,4.03,7.84,5.69,1.19.81,1.54,1.56,1.01,2.97-1.07,2.85-1.92,5.78-3.04,9.21,2.95-2.15,5.48-3.89,7.9-5.79,1.1-.86,1.85-.84,2.94.01,2.35,1.84,4.82,3.52,7.85,5.7-1.12-3.58-1.94-6.51-2.99-9.36-.47-1.27-.17-1.9.84-2.6,2.51-1.75,4.97-3.58,8.06-5.84-3.72,0-6.69-.08-9.65.03-1.46.05-2.17-.39-2.57-1.84-.81-2.86-1.82-5.66-2.75-8.49ZM302.38,98.28c-.04-.16-.08-.31-.12-.47-2.8,0-5.6-.11-8.39.04-1.82.1-2.75-.4-3.22-2.29-.68-2.75-1.72-5.41-2.81-8.75-1.14,3.45-2.18,6.23-2.94,9.08-.43,1.6-1.22,2-2.74,1.95-2.92-.1-5.85-.03-8.77-.03,2.01,2.01,4,3.68,6.2,5.02,1.97,1.2,2.52,2.4,1.59,4.67-.98,2.38-1.94,4.84-2.29,7.85,2.75-1.99,5.2-3.69,7.56-5.52,1-.78,1.72-.79,2.73-.01,2.48,1.91,5.06,3.7,8.03,5.84-1.12-3.47-2.03-6.47-3.08-9.41-.42-1.19-.26-1.85.81-2.58,2.53-1.71,4.97-3.58,7.44-5.39ZM252.48,78.9c2.79-2.02,5.1-3.53,7.22-5.28,1.54-1.27,2.71-1.49,4.35-.09,2.11,1.8,4.48,3.3,7.28,5.31-.98-3.03-1.57-5.48-2.57-7.75-1.07-2.42-.67-3.94,1.67-5.29,2.15-1.24,4.06-2.91,6.07-4.39-3.22-.41-6.14-.5-9.06-.38-1.5.06-2.15-.48-2.55-1.89-.82-2.85-1.82-5.64-2.97-9.16-1.15,3.53-2.14,6.32-2.95,9.16-.4,1.4-1.03,1.96-2.55,1.89-2.95-.13-5.91-.04-8.87-.04,2.31,2.27,4.72,4.12,7.24,5.82,1.09.74,1.23,1.47.83,2.62-1.01,2.89-1.93,5.82-3.13,9.46ZM40.28,60.99l-.2.51c2.35,1.71,4.65,3.49,7.07,5.1,1.32.88,1.55,1.74.99,3.22-1.04,2.78-1.86,5.64-2.95,9.05,2.99-2.16,5.51-3.9,7.93-5.77,1.09-.84,1.87-.85,2.96,0,2.41,1.87,4.91,3.6,7.94,5.8-1.1-3.4-1.87-6.2-2.93-8.89-.67-1.69-.28-2.61,1.18-3.57,2.38-1.56,4.62-3.33,6.92-5-3.21-.44-6.2-.5-9.18-.41-1.38.04-2.01-.41-2.4-1.75-.85-2.93-1.88-5.81-3.04-9.31-1.08,3.35-2.05,6.06-2.81,8.83-.46,1.67-1.19,2.38-3.03,2.26-2.8-.19-5.63-.05-8.45-.05ZM158.5,50.76l-.51-.02c-.82,2.53-1.78,5.02-2.43,7.59-.52,2.06-1.41,2.93-3.66,2.73-2.68-.24-5.39-.06-8.09-.06,2.32,2.24,4.7,4.05,7.17,5.73,1.12.76,1.42,1.45.91,2.8-1.06,2.85-1.89,5.79-3.01,9.34,2.94-2.14,5.38-3.75,7.62-5.6,1.35-1.11,2.29-.96,3.56.05,2.28,1.8,4.68,3.45,7.62,5.59-1.09-3.35-1.81-6.1-2.89-8.69-.81-1.92-.27-2.91,1.35-3.94,2.28-1.46,4.41-3.16,6.6-4.76-3.13-.52-6.1-.59-9.05-.48-1.38.05-2.04-.38-2.42-1.72-.83-2.88-1.83-5.7-2.77-8.55ZM313.98,50.72c-.16,0-.32,0-.48,0-.94,2.89-1.92,5.77-2.8,8.68-.36,1.18-.93,1.67-2.23,1.63-3.04-.1-6.08-.03-9.11-.03,2.3,2.24,4.72,4.08,7.22,5.8,1.03.71,1.33,1.32.87,2.57-1.08,2.93-1.95,5.94-3.08,9.49,2.96-2.14,5.48-3.88,7.89-5.76,1.08-.84,1.85-.88,2.95-.02,2.41,1.87,4.93,3.6,7.93,5.77-.99-3.06-1.57-5.6-2.63-7.92-1.1-2.43-.51-3.9,1.72-5.07.92-.48,1.74-1.19,2.56-1.85,1.12-.91,2.58-1.46,3.46-3.01-3.1,0-5.94-.12-8.76.04-1.73.1-2.42-.54-2.86-2.13-.76-2.76-1.75-5.46-2.65-8.19ZM158.25,197.21c-1.16,3.53-2.17,6.41-3.02,9.32-.39,1.32-1.02,1.76-2.41,1.71-3.01-.12-6.03-.04-9.75-.04,2.99,2.18,5.29,3.98,7.71,5.58,1.31.87,1.59,1.66,1.06,3.18-.95,2.74-2.08,5.45-2.67,8.88,2.74-1.99,5.11-3.56,7.29-5.34,1.31-1.07,2.26-1.07,3.57-.02,2.27,1.82,4.68,3.45,7.03,5.16-.54-3.12-1.36-5.91-2.37-8.63-.54-1.45-.35-2.32.99-3.2,2.43-1.6,4.73-3.42,7.08-5.14-3.15-.46-6.05-.54-8.94-.43-1.46.06-2.18-.38-2.59-1.82-.82-2.87-1.83-5.69-2.98-9.21ZM146.83,171.93c-.02-.17-.04-.33-.05-.5-2.74,0-5.49-.17-8.21.05-2.14.17-2.97-.68-3.48-2.62-.69-2.67-1.68-5.26-2.73-8.44-1.12,3.37-2.17,6.16-2.96,9.02-.42,1.53-1.11,2.09-2.7,2.02-2.97-.12-5.94-.03-9.51-.03,3.01,2.19,5.47,4.04,7.99,5.79,1.03.71,1.31,1.36.85,2.61-1.05,2.86-1.88,5.79-3.02,9.36,2.54-1.84,4.61-3.11,6.41-4.69,2.01-1.77,3.65-2.06,5.76-.07,1.81,1.7,4.01,2.98,6.51,4.78-1.03-3.27-1.74-6.08-2.82-8.73-.75-1.83-.24-2.76,1.27-3.74,2.3-1.5,4.47-3.2,6.69-4.81ZM210.07,197.2c-1.08,3.33-2.05,5.98-2.78,8.7-.47,1.75-1.26,2.49-3.18,2.36-2.78-.19-5.58-.05-8.36-.05,2.17,2.19,4.46,3.94,6.84,5.55,1.26.85,1.67,1.65,1.08,3.2-1.07,2.76-1.85,5.64-2.95,9.1,2.94-2.13,5.4-3.79,7.71-5.64,1.26-1.01,2.15-.92,3.37.03,2.33,1.83,4.78,3.52,7.72,5.66-1.15-3.54-2.02-6.48-3.07-9.34-.48-1.3-.26-2.02.9-2.8,2.5-1.69,4.88-3.54,7.89-5.74-3.67,0-6.57-.09-9.46.04-1.56.07-2.31-.4-2.74-1.94-.8-2.86-1.81-5.66-2.95-9.11ZM106.42,49.99c-1.1,3.3-2.11,5.83-2.75,8.45-.49,1.99-1.35,2.77-3.47,2.61-2.73-.21-5.48-.05-8.22-.05,2.31,2.24,4.59,4.07,7.04,5.64,1.4.9,1.47,1.79.97,3.18-1.01,2.79-1.87,5.64-3.01,9.11,2.99-2.17,5.5-3.88,7.88-5.76,1.17-.92,2-.9,3.15,0,2.37,1.85,4.85,3.54,7.83,5.7-1.15-3.54-1.97-6.42-3.03-9.21-.55-1.44-.19-2.18,1-2.99,2.44-1.65,4.78-3.44,7.16-5.18-2.25-.5-4.32-.5-6.39-.5q-4.55,0-5.93-4.21c-.67-2.03-1.33-4.06-2.23-6.79ZM147,245.4c-.06-.15-.13-.29-.19-.44-2.73,0-5.46-.12-8.18.04-2,.12-3.06-.42-3.55-2.51-.64-2.69-1.67-5.3-2.71-8.5-1.14,3.44-2.18,6.31-3.02,9.24-.39,1.36-1.03,1.8-2.39,1.76-3.03-.08-6.07-.03-9.84-.03,2.95,2.16,5.24,3.94,7.65,5.54,1.36.9,1.79,1.73,1.14,3.37-1.06,2.68-1.8,5.47-2.9,8.93,3.07-2.22,5.57-3.95,7.97-5.81,1.01-.79,1.72-.78,2.72,0,2.45,1.89,5,3.66,8,5.84-1.03-3.25-1.65-5.94-2.75-8.42-.94-2.12-.27-3.19,1.46-4.3,2.27-1.46,4.39-3.13,6.58-4.71ZM175.01,188.55c.15.07.31.14.46.21,2.22-1.62,4.55-3.11,6.63-4.9,1.56-1.34,2.68-1.18,4.17.05,2.12,1.74,4.42,3.26,6.65,4.88-.54-3.2-1.36-6.07-2.4-8.86-.5-1.34-.19-2.05.92-2.82,2.48-1.7,4.89-3.52,7.89-5.69-3.54,0-6.38-.1-9.2.04-1.74.09-2.62-.4-3.09-2.17-.74-2.83-1.79-5.58-2.88-8.89-1.04,3.2-2.05,5.77-2.69,8.43-.52,2.15-1.6,2.81-3.75,2.64-2.64-.2-5.32-.05-8.71-.05,3.05,2.22,5.48,4.06,7.99,5.78,1.06.72,1.28,1.46.87,2.64-1.01,2.88-1.91,5.8-2.86,8.7ZM45.15,226.13c2.96-2.15,5.38-3.79,7.65-5.6,1.29-1.03,2.24-1.1,3.57-.02,2.27,1.84,4.7,3.47,7.66,5.62-1.17-3.59-2-6.47-3.06-9.26-.54-1.43-.19-2.19,1.01-3,2.45-1.66,4.8-3.46,7.19-5.2-3.12-.46-6.09-.54-9.05-.43-1.48.06-2.14-.44-2.55-1.87-.83-2.93-1.88-5.79-3-9.16-1.01,3.1-2.06,5.59-2.62,8.19-.52,2.42-1.77,3.02-4.05,2.85-2.54-.19-5.11-.04-7.67-.04,2.28,2.26,4.69,4.1,7.19,5.81,1.07.73,1.27,1.47.86,2.65-1.01,2.89-1.92,5.81-3.12,9.47ZM271.31,226.05c-.87-2.7-1.53-4.77-2.2-6.83q-1.36-4.22,2.3-6.88c1.7-1.23,3.4-2.46,5.1-3.69-2.97-.44-5.66-.59-8.32-.4-2.07.15-3.04-.53-3.55-2.55-.66-2.66-1.67-5.25-2.52-7.86-1.36,2.84-2.36,5.51-3.06,8.25-.46,1.79-1.37,2.24-3.09,2.15-2.82-.14-5.66-.04-8.49-.04,2.25,2.18,4.49,3.92,6.86,5.48,1.36.9,1.78,1.74,1.15,3.37-1.08,2.76-1.88,5.64-2.98,9.03,2.98-2.16,5.52-3.91,7.93-5.8,1.1-.86,1.87-.83,2.96.01,2.4,1.86,4.91,3.59,7.91,5.75ZM351.35,61.01c-.07.18-.14.36-.2.54,2.28,1.67,4.5,3.44,6.87,4.96,1.44.92,1.67,1.8,1.11,3.39-.96,2.73-2.07,5.45-2.64,8.76,2.81-2.04,5.29-3.72,7.64-5.58,1.11-.88,1.87-.81,2.94.03,2.38,1.85,4.87,3.56,7.9,5.76-1.05-3.25-1.67-5.87-2.74-8.29-.97-2.19-.35-3.34,1.53-4.51,2.19-1.37,4.2-3.04,6.29-4.57-3.15-.48-6.05-.57-8.94-.44-1.52.07-2.14-.5-2.55-1.88-.83-2.85-1.82-5.65-2.97-9.16-1.18,3.61-2.19,6.5-3.06,9.43-.36,1.23-.97,1.65-2.25,1.61-2.97-.09-5.95-.03-8.92-.03ZM64,152.5c-1.02-3.14-1.59-5.69-2.66-8.01-1.13-2.46-.39-3.77,1.74-5.06,2.18-1.32,4.15-2.98,6.74-4.87-3.46,0-6.28-.14-9.08.05-1.97.13-2.9-.45-3.39-2.42-.68-2.75-1.7-5.41-2.78-8.72-1.17,3.6-2.19,6.42-2.98,9.31-.4,1.48-1.13,1.86-2.58,1.81-3.01-.11-6.02-.03-9.68-.03,3.04,2.22,5.39,4.09,7.9,5.72,1.32.86,1.39,1.71.93,3.02-.99,2.84-1.87,5.72-2.98,9.18,2.84-2.06,5.23-3.6,7.39-5.42,1.45-1.23,2.48-1.23,3.93-.04,2.19,1.79,4.55,3.36,7.48,5.49ZM354.2,98.28l-.11-.47c-3.05,0-6.1-.05-9.15.02-1.26.03-1.86-.37-2.22-1.63-.85-2.98-1.9-5.91-3.04-9.37-1.1,3.34-2.14,6.15-2.93,9.02-.42,1.54-1.15,2.06-2.72,2-2.94-.11-5.89-.03-9.55-.03,2.84,2.07,4.96,3.84,7.3,5.27,1.83,1.12,2.05,2.3,1.31,4.18-.99,2.52-1.71,5.14-2.76,8.36,2.95-2.13,5.38-3.75,7.64-5.57,1.22-.98,2.06-1.06,3.32-.05,2.32,1.86,4.81,3.52,7.71,5.61-1.05-3.32-1.79-6.13-2.85-8.81-.68-1.72-.24-2.61,1.2-3.56,2.35-1.55,4.57-3.3,6.85-4.97ZM304.35,226.09c2.98-2.17,5.41-3.78,7.65-5.62,1.34-1.1,2.26-.98,3.55.06,2.27,1.82,4.69,3.44,7.56,5.51-1.06-3.31-1.83-6.1-2.87-8.79-.64-1.66-.36-2.62,1.14-3.59,2.37-1.54,4.6-3.32,6.88-4.99-2.92-.45-5.58-.59-8.23-.41-2.03.14-3.06-.45-3.56-2.52-.65-2.65-1.66-5.22-2.52-7.82-1.37,2.81-2.38,5.46-3.09,8.18-.46,1.76-1.33,2.24-3.07,2.15-2.83-.15-5.67-.04-8.51-.04,2.37,2.25,4.73,4.09,7.23,5.74,1.2.79,1.33,1.52.87,2.79-1.03,2.87-1.91,5.8-3.05,9.35ZM273.41,244.97c-.05.15-.11.3-.16.45,2.19,1.61,4.28,3.39,6.61,4.76,1.99,1.16,2.11,2.4,1.34,4.34-.97,2.45-1.65,5.01-2.45,7.53,2.8-1.47,5.25-3.16,7.59-4.99,1.08-.84,1.83-.89,2.94-.02,2.43,1.9,4.98,3.64,7.9,5.75-1.01-3.18-1.64-5.88-2.74-8.37-.93-2.1-.36-3.15,1.43-4.27,2.26-1.42,4.35-3.12,6.51-4.7-3.14-.47-6.05-.57-8.95-.43-1.62.08-2.28-.54-2.69-2.02-.79-2.81-1.77-5.56-2.89-9.04-1.17,3.6-2.15,6.49-3.02,9.41-.36,1.2-.96,1.67-2.25,1.63-3.05-.09-6.1-.03-9.16-.03ZM120.95,208.7c-.08-.16-.16-.33-.24-.49-2.67,0-5.34-.14-8,.05-2.05.15-3.05-.5-3.55-2.54-.66-2.67-1.67-5.25-2.54-7.86-1.4,2.97-2.37,5.8-3.2,8.66-.38,1.29-.98,1.8-2.39,1.74-3.02-.12-6.04-.04-9.06-.04,2.07,2.04,4.15,3.72,6.4,5.13,1.79,1.12,2.34,2.2,1.43,4.28-1.1,2.53-1.74,5.26-2.75,8.46,2.93-2.13,5.4-3.81,7.74-5.67,1.25-1,2.14-.92,3.36.05,2.31,1.84,4.76,3.5,7.71,5.63-1.07-3.28-1.77-5.94-2.81-8.47-.84-2.04-.38-3.19,1.48-4.31,2.25-1.36,4.3-3.07,6.43-4.62ZM380.11,208.66c-.08-.15-.16-.29-.23-.44-2.92,0-5.85-.09-8.77.04-1.5.07-2.15-.46-2.56-1.86-.82-2.86-1.82-5.67-2.97-9.16-1.18,3.58-2.19,6.48-3.06,9.42-.37,1.23-.97,1.64-2.25,1.6-3.03-.09-6.07-.03-9.83-.03,2.56,1.87,4.4,3.46,6.47,4.67,2.35,1.37,3.07,2.82,1.82,5.45-1.06,2.22-1.55,4.72-2.48,7.68,3.01-2.17,5.54-3.91,7.97-5.79,1.03-.79,1.74-.76,2.75.02,2.43,1.87,4.95,3.6,7.98,5.79-1.11-3.46-1.94-6.32-2.97-9.12-.51-1.38-.33-2.17.93-3.02,2.47-1.64,4.81-3.48,7.2-5.24ZM193.51,262.81c-1.05-3.29-1.75-6.02-2.81-8.6-.78-1.91-.24-2.92,1.36-3.96,2.29-1.48,4.43-3.18,6.64-4.78-2.3-.5-4.47-.46-6.63-.5-5.4-.12-3.82.92-5.69-4.2-.75-2.04-1.11-4.23-2.34-6.44-.95,2.93-1.96,5.5-2.58,8.17-.49,2.12-1.59,2.63-3.59,2.51-2.7-.16-5.41-.04-8.12-.04,2.31,2.28,4.68,4.09,7.15,5.77,1.14.77,1.4,1.54.94,2.83-1.02,2.86-1.9,5.76-3.04,9.27,3.04-2.21,5.57-3.97,7.99-5.85,1.01-.78,1.71-.77,2.72,0,2.43,1.88,4.95,3.62,7.99,5.82ZM252.52,152.46c3.03-2.19,5.62-4,8.12-5.92.94-.72,1.58-.74,2.52,0,2.49,1.91,5.07,3.7,8.13,5.91-1.13-3.5-2-6.43-3.04-9.3-.48-1.32-.2-2.03.94-2.81,2.52-1.71,4.93-3.58,7.92-5.77-3.71,0-6.76-.07-9.8.03-1.37.05-2.01-.37-2.4-1.72-.83-2.92-1.85-5.78-3.02-9.35-1.16,3.58-2.16,6.38-2.96,9.24-.4,1.44-1.09,1.9-2.56,1.84-3.01-.11-6.03-.03-9.7-.03,3.02,2.2,5.38,4.04,7.87,5.69,1.26.83,1.47,1.65.99,3-1.02,2.87-1.91,5.79-3.02,9.21ZM121.68,134.57c-3.33,0-5.93-.2-8.49.06-2.47.24-3.66-.56-4.2-3.01-.56-2.52-1.54-4.94-2.34-7.4-1.39,2.85-2.39,5.51-3.1,8.25-.46,1.75-1.32,2.24-3.05,2.15-2.87-.15-5.76-.04-9.33-.04,3.04,2.21,5.47,4.07,8,5.77,1.14.77,1.4,1.49.93,2.78-1.05,2.9-1.93,5.86-3.07,9.36,2.94-2.14,5.42-3.82,7.76-5.69,1.25-1,2.13-.91,3.34.05,2.3,1.84,4.75,3.5,7.68,5.63-1.16-3.59-2.05-6.53-3.08-9.42-.42-1.2-.23-1.91.84-2.63,2.54-1.74,4.99-3.6,8.1-5.86ZM314,124.33c-.18.02-.36.04-.54.06-.92,2.83-1.89,5.65-2.72,8.51-.38,1.31-.99,1.77-2.39,1.72-3.02-.12-6.06-.04-9.83-.04,3.04,2.22,5.4,4.02,7.86,5.69,1.18.8,1.56,1.52,1.01,2.96-1.08,2.85-1.92,5.79-3.03,9.23,2.34-1.69,4.24-3.05,6.12-4.41q3.27-2.37,6.62.05c1.83,1.32,3.65,2.66,6.02,4.39-1.12-3.46-1.93-6.33-2.98-9.11-.57-1.51-.22-2.32,1.07-3.19,2.45-1.65,4.79-3.46,7.72-5.62-3.66,0-6.64-.1-9.6.04-1.61.08-2.27-.51-2.69-2.01-.77-2.79-1.77-5.52-2.67-8.28ZM236.26,234.71c-.16-.02-.33-.05-.49-.07-.91,2.84-1.88,5.65-2.69,8.51-.4,1.4-1.09,1.91-2.57,1.85-2.96-.12-5.93-.04-8.9-.04,2.11,2.14,4.3,3.9,6.66,5.4,1.56.99,1.99,1.91,1.27,3.7-1.07,2.66-1.81,5.45-2.88,8.74,2.84-2.06,5.26-3.7,7.53-5.51,1.26-1.01,2.17-1.19,3.52-.08,2.23,1.83,4.66,3.42,7.63,5.57-1.07-3.3-1.74-5.96-2.8-8.45-.84-1.99-.3-3.04,1.4-4.12,2.3-1.48,4.43-3.22,7.19-5.25-3.41,0-6.01-.19-8.57.06-2.43.24-3.45-.73-3.98-2.97-.6-2.49-1.53-4.9-2.32-7.35ZM195.64,134.57c-.06.15-.13.29-.19.44,2.27,1.65,4.49,3.38,6.84,4.92,1.51.99,2.03,1.92,1.28,3.75-1.07,2.64-1.77,5.42-2.83,8.77,2.92-2.12,5.35-3.74,7.59-5.58,1.34-1.11,2.26-.97,3.54.05,2.23,1.78,4.61,3.38,6.92,5.05-.5-3.11-1.29-5.91-2.32-8.62-.57-1.51-.2-2.31,1.08-3.17,2.44-1.64,4.77-3.45,7.72-5.62-3.66,0-6.56-.12-9.44.04-1.7.09-2.43-.47-2.87-2.1-.75-2.8-1.76-5.52-2.66-8.28-1.42,2.96-2.45,5.78-3.25,8.66-.39,1.39-1.06,1.74-2.41,1.7-3-.09-6-.03-9.01-.03ZM349.03,262.81c-1.13-3.49-1.99-6.34-3-9.13-.49-1.37-.26-2.19.97-3.02,2.46-1.65,4.8-3.46,7.19-5.2-2.73-.48-5.31-.63-7.87-.44-2.29.17-3.51-.44-4.03-2.87-.55-2.58-1.61-5.04-2.63-8.1-1.13,3.42-2.18,6.23-2.96,9.1-.41,1.5-1.14,1.89-2.58,1.84-2.96-.09-5.93-.03-9.61-.03,2.25,1.65,3.91,2.89,5.59,4.11,3.8,2.77,3.78,2.76,2.4,7.08-.64,1.99-1.53,3.92-1.82,6.38,2.56-1.85,4.87-3.37,6.99-5.11,1.41-1.16,2.4-1.35,3.9-.08,2.15,1.83,4.56,3.36,7.46,5.45ZM374.23,151.92c.15-.09.3-.19.45-.28-.89-2.77-1.67-5.57-2.7-8.28-.59-1.53-.19-2.31,1.09-3.17,2.44-1.64,4.76-3.46,7.68-5.61-3.71,0-6.7-.1-9.68.04-1.53.07-2.13-.52-2.53-1.89-.83-2.84-1.83-5.64-2.97-9.12-.9,2.76-1.57,4.83-2.25,6.89q-1.33,4.07-5.51,4.07c-2.23,0-4.47,0-7.41,0,2.91,2.13,5.16,3.96,7.59,5.49,1.56.99,1.73,1.97,1.11,3.59-1,2.63-1.77,5.34-2.63,8.02,2.73-1.39,5.15-2.99,7.37-4.82,1.34-1.1,2.26-.98,3.54.05,2.2,1.77,4.56,3.35,6.85,5.01ZM43.84,24.27c-3.61,0-6.52-.13-9.41.05-1.74.1-2.37-.55-2.81-2.13-.79-2.85-1.84-5.63-2.96-8.98-1.08,3.35-2.06,6.07-2.82,8.86-.46,1.67-1.21,2.35-3.03,2.24-2.84-.18-5.71-.05-8.56-.05,2.3,2.19,4.61,3.97,7.03,5.57,1.32.88,1.5,1.78.98,3.21-1.02,2.79-1.86,5.64-2.95,9,2.87-2.07,5.34-3.7,7.64-5.56,1.36-1.1,2.27-.97,3.56.07,2.21,1.78,4.59,3.35,6.89,5.01-.55-3.26-1.4-6.19-2.43-9.07-.42-1.16-.16-1.74.8-2.4,2.53-1.74,4.99-3.59,8.08-5.83ZM199.31,24.28c-3.73,0-6.73-.07-9.72.03-1.38.05-1.98-.4-2.37-1.75-.85-2.97-1.91-5.88-3.06-9.34-1.08,3.33-2.06,6.07-2.83,8.87-.46,1.68-1.23,2.35-3.04,2.24-2.86-.17-5.73-.05-9.26-.05,2.92,2.12,5.2,3.91,7.62,5.48,1.45.94,1.62,1.86,1.03,3.41-1.01,2.7-1.79,5.49-2.87,8.89,2.81-2.04,5.14-3.61,7.32-5.37,1.41-1.14,2.49-1.28,3.96-.07,2.18,1.79,4.54,3.35,7.39,5.41-1.08-3.45-1.84-6.31-2.9-9.06-.6-1.56-.19-2.33,1.08-3.18,2.4-1.61,4.7-3.38,7.64-5.51ZM147.45,24.28c-3.53,0-6.34-.14-9.13.05-1.93.14-2.69-.65-3.17-2.37-.76-2.76-1.73-5.45-2.8-8.76-1.06,3.22-2.07,5.86-2.76,8.58-.51,2.01-1.46,2.71-3.53,2.56-2.73-.2-5.48-.05-8.86-.05,3.02,2.19,5.34,3.96,7.76,5.6,1.19.8,1.55,1.53,1,2.99-1.05,2.76-1.83,5.63-2.94,9.14,2.74-1.97,4.99-3.4,7-5.11,1.64-1.4,2.86-1.52,4.56-.06,2.08,1.79,4.43,3.26,7.13,5.21-1.12-3.45-1.97-6.31-2.98-9.11-.48-1.34-.31-2.2.92-3.03,2.45-1.65,4.8-3.44,7.8-5.62ZM354.09,171.95c-.04-.17-.08-.34-.12-.51-2.97,0-5.95-.08-8.92.03-1.41.05-1.98-.45-2.36-1.77-.85-2.93-1.89-5.81-3.03-9.26-1.14,3.42-2.21,6.21-2.96,9.09-.43,1.63-1.24,1.98-2.74,1.93-2.92-.1-5.84-.03-9.42-.03,2.81,2.05,4.86,3.79,7.14,5.13,1.98,1.16,2.09,2.43,1.36,4.37-.93,2.49-1.92,4.98-2.44,8.06,2.68-1.95,5.03-3.53,7.23-5.3,1.28-1.02,2.21-1.15,3.56-.06,2.27,1.85,4.73,3.46,7.65,5.56-1.17-3.58-2.09-6.49-3.09-9.37-.41-1.18-.18-1.91.87-2.64,2.47-1.69,4.85-3.5,7.26-5.25ZM349.01,42.03c-1.1-3.45-1.85-6.26-2.91-8.94-.65-1.65-.18-2.47,1.15-3.37,2.36-1.59,4.6-3.34,7.47-5.43-3.34,0-5.92-.15-8.49.04-2.19.16-3.38-.38-3.88-2.73-.57-2.67-1.65-5.23-2.66-8.3-1.11,3.31-2.21,6.16-2.98,9.09-.43,1.62-1.22,1.99-2.73,1.93-2.92-.1-5.85-.03-9.4-.03,2.83,2.07,4.96,3.84,7.3,5.26,1.76,1.07,1.93,2.19,1.24,3.97-.98,2.55-1.7,5.2-2.54,7.8,2.8-1.51,5.2-3.16,7.49-4.95,1.15-.9,1.97-.95,3.15-.02,2.34,1.86,4.82,3.53,7.79,5.67ZM71.53,115.11l-.07.13h.11s-.04-.13-.04-.13Z" style="fill:#012767; stroke-width:0px;"/><path d="M12.35,519.09c-1.25-1.09-2.74-.36-4.11-.51-2.57-.3-5.2.38-7.75-.39.03-13.13.05-26.26.08-39.39.17-.1.34-.19.5-.28.15.07.3.13.45.2.16.28.32.28.48,0,.89-.03,1.78-.1,2.67-.1,124.37,0,248.75,0,373.12,0,.89,0,1.78.06,2.67.1.8.86,1.84.48,2.77.48,14.38.02,28.77.02,43.15.02,3.05,0,3.25.28,1.98,3.14-.81,1.81-2.43,3.21-2.8,5.24-.46,2.52-1.57,4.67-3.31,6.53-.98,1.05-1.47,2.32-1.32,3.79.08.8-.23,1.57-.91,1.86-1.73.74-2.14,2.37-2.72,3.84-1.33,3.39-3.03,6.58-4.83,9.73-.67,1.17-1.84,2.43-1.07,3.79.7,1.23,2.23.55,3.38.55,188.78.03,377.56.03,566.35.03.41,0,.82-.05,1.22,0,1.99.32,2.45-.61,2.43-2.47-.08-11.13-.04-22.26-.03-33.38,0-1.05-.17-2.12.48-3.07.12.19.34.39.34.58.01,12.51,0,25.02.03,37.54,0,1.37-.66,1.63-1.81,1.62-2.11-.03-4.23.01-6.34.01-313.35,0-626.71,0-940.06.01-8.34,0-16.7-.26-25.02.54Z" style="fill:#bf113e; stroke-width:0px;"/><path d="M985.72,18.5c-.04,6.35-.07,12.71-.15,19.06,0,.84.35,1.78-.38,2.52-.15-.06-.3-.11-.45-.16,0-12.1,0-24.21,0-36.31q0-3.11-3.22-3.11c-45.23,0-90.46-.03-135.69.03-7.46,0-14.92.24-22.37.33-39.64.5-79.28-.35-118.92.58-9.67.23-19.34-.03-29.01.09-1.97.02-4.83-.65-4.58,3.06.02.33-.53.85-.93,1.05-1.73.84-2.28,2.5-2.71,4.09-.49,1.82-1.37,3.51-2.15,5.14-1.9,3.93-3.5,8-5.48,11.9-1.73,3.4-4.34,6.4-5.12,10.29-.24,1.19-2.17,1.31-1.93,2.87-.97.03-1.95.08-2.92.08-85,0-170,0-255,0-.02-13.28-.03-26.56-.05-39.84.89-.03,1.78-.09,2.67-.09,194.64,0,389.27,0,583.91,0,.65,0,1.31.08,1.95-.01,1.88-.27,2.51.39,2.47,2.37-.11,5.36.04,10.72.09,16.08Z" style="fill:#bf113e; stroke-width:0px;"/><path d="M.57,478.81c-.03,13.13-.05,26.26-.08,39.39-.73-.75-.42-1.7-.42-2.55-.01-163.55-.01-327.1,0-490.65,0-.86-.32-1.81.45-2.54.03.97.09,1.94.09,2.91,0,84.61,0,169.21.01,253.82-.02,13.4-.04,26.8-.05,40.2,0,13.11,0,26.23,0,39.34,0,13.4.02,26.8.03,40.2,0,13.23,0,26.47,0,39.7-.01,13.39-.02,26.79-.03,40.18Z" style="fill:#fdfdfd; stroke-width:0px;"/><path d="M1.03,279.36c.97-.03,1.95-.08,2.92-.08,129.16,0,258.33,0,387.49,0,1.05,0,2.1-.07,3.16-.11.16,0,.33,0,.49,0,1.05.04,2.1.11,3.16.11,71.86,0,143.73,0,215.59.01,1.05,0,2.11.06,3.16.09-.06,1.25-1.08,1.51-1.97,1.84-.54.21-1.34.37-1.27.94.26,2.04-1.46,3.12-2.08,4.7-1.53,3.89-3.66,7.49-5.27,11.36-2.5,5.98-5.65,11.69-8.65,17.45-.73,1.41-.81,2.1.95,2.17.78.03,1.24.27,1.2,1.12-1.05.05-2.1.16-3.15.16-63.74.01-127.48.01-191.22.02-1.05,0-2.1.07-3.16.11-.97-.04-1.94-.12-2.91-.12-131.52,0-263.04,0-394.56,0-.97,0-1.94.08-2.91.12-.32,0-.65.02-.97.03l.08-.12-.07-.12c0-13.23,0-26.46,0-39.68Z" style="fill:#fdfdfd; stroke-width:0px;"/><path d="M984.74,39.92c.15.05.3.1.45.16,0,13.24,0,26.49,0,39.73-.05.09-.04.16.05.21-.97-.04-1.94-.12-2.91-.12-101.21,0-202.42,0-303.63,0-.89,0-1.78.05-2.67.08-.81-.03-1.62-.09-2.43-.09-92.02,0-184.05,0-276.07,0-.81,0-1.62.06-2.43.09-.13-.07-.26-.1-.41-.09,0-13.3,0-26.6,0-39.9,85,0,170,0,255,0,.97,0,1.95-.05,2.92-.08.81.03,1.62.07,2.43.07,109.09,0,218.18,0,327.26,0,.81,0,1.62-.05,2.43-.08Z" style="fill:#f7f7f7; stroke-width:0px;"/><path d="M985.19,199.55c0,13.24,0,26.49,0,39.73,0,0,.05.2.05.2-.97-.04-1.94-.11-2.91-.11-114.7,0-229.41,0-344.11,0-1.05,0-2.11.05-3.16.07-.97-.03-1.95-.08-2.92-.08-79.15,0-158.3,0-237.45,0,0-13.3,0-26.6,0-39.9.14,0,.28-.03.41-.1.81.03,1.62.09,2.43.09,85.52,0,171.04,0,256.56,0,.81,0,1.62-.06,2.43-.09.81.03,1.62.08,2.43.08,107.96,0,215.91,0,323.87,0,.81,0,1.62-.08,2.42-.12-.08.06-.1.13-.05.22Z" style="fill:#f7f7f7; stroke-width:0px;"/><path d="M985.47,158.36c-.08.36-.16.72-.24,1.08-.07.14-.05.26.05.38-1.01-.46-2.08-.23-3.13-.23-101.56,0-203.13,0-304.69,0-.97,0-1.94.09-2.91.14-1.05-.05-2.1-.15-3.15-.15-92.24,0-184.48,0-276.72-.01,0-13.25,0-26.51,0-39.76,87.2,0,174.4,0,261.6-.01,1.05,0,2.1-.09,3.15-.14.97.05,1.94.13,2.91.13,106.52,0,213.04,0,319.56,0,.97,0,1.94-.09,2.91-.14.13.09.26.18.4.27.09.35.18.71.27,1.06.4.5.23,1.09.23,1.64.01,11.37.01,22.73,0,34.1,0,.55.17,1.14-.23,1.64Z" style="fill:#f7f7f7; stroke-width:0px;"/><path d="M659.43,119.65c-1.05.05-2.1.14-3.15.14-87.2,0-174.4,0-261.6.01-.05-.13-.05-.26,0-.39.05-.04.16-.1.15-.13-.04-.11-.1-.22-.16-.32,0-12.84,0-25.68,0-38.52.14-.15.27-.3.41-.44.81-.03,1.62-.09,2.43-.09,92.02,0,184.05,0,276.07,0,.81,0,1.62.06,2.43.09-.37,2.66-.8,5.29-3.01,7.2-.34.3-.57.81-.7,1.26-1.13,3.78-3,7.2-4.9,10.63-1.04,1.88-2.25,3.67-2.78,5.87-.47,1.93-1.42,3.78-2.37,5.55-1.56,2.88-3.44,5.62-2.81,9.16Z" style="fill:#bf113e; stroke-width:0px;"/><path d="M394.68,159.57c92.24,0,184.48,0,276.72.01,1.05,0,2.1.1,3.15.15-.2,2.18-.69,4.26-1.78,6.21-2.26,3.99-4.78,7.84-6.41,12.15-1.57,4.15-4.63,7.49-6.01,11.81-.62,1.93-1.43,4.07-2.59,5.76-.85,1.24-1.3,2.31-1.25,3.72-.81.03-1.62.09-2.43.09-85.52,0-171.04,0-256.56,0-.81,0-1.62-.06-2.43-.09-.14-.15-.27-.3-.41-.45,0-12.84,0-25.68,0-38.52.05-.04.16-.1.15-.13-.03-.11-.09-.21-.15-.32-.06-.12-.06-.25,0-.38Z" style="fill:#bf113e; stroke-width:0px;"/><path d="M394.69,239.36c79.15,0,158.3,0,237.45,0,.97,0,1.95.05,2.92.08,1.24,1.88,3.1,2.36,5.21,2.36,8.69,0,17.38,0,26.07,0q3.13,0,1.57,2.72c-.16.28-.27.61-.3.92-.29,3.19-2.71,5.42-3.71,8.32-.88,2.53-2.05,4.9-3.59,7.24-2.7,4.08-3.97,9.01-6.29,13.4-1.09,2.06-2.22,2.55-4.3,2.53-9.09-.08-18.19-.05-27.29-.02-1.71,0-3.43.12-3.95,2.26-.49.07-.98.14-1.47.21-1.05-.03-2.11-.09-3.16-.09-71.86,0-143.73,0-215.59-.01-1.05,0-2.1-.07-3.16-.11-.14-.26-.27-.53-.41-.79,0-13,0-26.01,0-39.01Z" style="fill:#bf113e; stroke-width:0px;"/><path d="M14.39,244.96c2.9,0,5.81-.11,8.7.04,1.63.08,2.29-.57,2.7-2.01.81-2.79,1.75-5.55,2.75-8.7,1.51,2.93,2.13,5.81,3.01,8.57.5,1.56,1.1,2.24,2.84,2.14,2.89-.16,5.79-.04,8.9.41-2.37,1.73-4.7,3.51-7.14,5.15-1.26.85-1.68,1.62-1.08,3.17,1.06,2.74,1.82,5.6,2.93,9.1-3.04-2.21-5.5-3.91-7.85-5.75-1.07-.83-1.82-.91-2.92-.04-2.4,1.89-4.93,3.62-7.91,5.79,1.04-3.28,1.73-6.03,2.8-8.62.78-1.89.32-2.88-1.31-3.92-2.31-1.47-4.45-3.19-6.67-4.8l.24-.53Z" style="fill:#f7f7f7; stroke-width:0px;"/><path d="M37.31,115.15c-2.42-1.75-4.89-3.45-7.25-5.29-1.01-.78-1.71-.82-2.73-.04-2.44,1.88-4.97,3.65-8.01,5.86,1.07-3.34,1.88-6.16,2.89-8.9.56-1.52.45-2.45-1.03-3.4-2.44-1.56-4.71-3.39-6.92-5.59,2.97,0,5.94-.08,8.91.03,1.47.05,2.17-.43,2.58-1.86.81-2.88,1.8-5.71,2.92-9.18,1.14,3.42,2.2,6.25,3.01,9.16.41,1.45,1.06,1.93,2.54,1.88,2.97-.11,5.95-.03,9.67-.03-2.84,2.08-5.01,3.88-7.38,5.34-1.76,1.08-1.93,2.2-1.25,3.97.98,2.54,1.72,5.17,2.57,7.76-.17.09-.33.18-.5.27Z" style="fill:#f7f7f7; stroke-width:0px;"/><path d="M174.77,115.69c1.19-3.63,2.11-6.54,3.11-9.42.41-1.17.2-1.91-.87-2.64-2.53-1.73-4.97-3.59-8.04-5.84,3.74,0,6.78-.06,9.81.03,1.37.04,2-.42,2.39-1.76.84-2.94,1.88-5.83,3-9.23,1.13,3.42,2.19,6.36,3.06,9.36.37,1.26.96,1.67,2.23,1.64,3.05-.07,6.1-.02,9.91-.02-2.97,2.17-5.32,3.97-7.76,5.63-1.28.87-1.58,1.7-.99,3.22,1.05,2.69,1.79,5.5,2.88,8.95-2.99-2.15-5.49-3.84-7.86-5.69-1.08-.85-1.84-.88-2.92-.02-2.39,1.87-4.89,3.59-7.94,5.81Z" style="fill:#f7f7f7; stroke-width:0px;"/><path d="M224.6,61.49c-2.41,1.76-4.78,3.58-7.25,5.25-1.14.77-1.42,1.47-.93,2.79,1.06,2.87,1.92,5.8,3.08,9.37-2.68-1.94-4.95-3.32-6.89-5.07-1.91-1.71-3.32-1.52-5.15.08-1.93,1.69-4.14,3.06-6.77,4.96,1.12-3.51,1.96-6.45,3.01-9.31.49-1.33.21-2.07-.9-2.83-2.44-1.68-4.82-3.47-7.1-5.73,2.94,0,5.88-.09,8.82.04,1.49.07,2.15-.42,2.55-1.85.81-2.87,1.84-5.68,2.99-9.18,1.14,3.49,2.16,6.36,3.01,9.28.38,1.32,1,1.8,2.39,1.75,2.98-.11,5.96-.03,8.94-.03.06.16.12.33.18.49Z" style="fill:#f7f7f7; stroke-width:0px;"/><path d="M146.91,98.28c-2.41,1.76-4.76,3.6-7.25,5.24-1.29.85-1.39,1.7-.92,3.02.99,2.81,1.86,5.66,3,9.13-2.73-1.97-5.09-3.43-7.16-5.23-1.7-1.49-2.93-1.31-4.54.05-2.02,1.7-4.26,3.16-7.02,5.17,1.12-3.54,1.89-6.42,2.96-9.18.56-1.47.17-2.19-1-2.99-2.46-1.69-4.84-3.49-7.85-5.68,3.37,0,6.03-.18,8.65.05,2.42.22,3.47-.68,4-2.98.6-2.57,1.59-5.05,2.59-8.1,1.12,3.46,2.14,6.32,2.95,9.23.41,1.46,1.14,1.88,2.59,1.83,2.96-.1,5.93-.03,8.9-.03.04.16.08.31.12.47Z" style="fill:#f7f7f7; stroke-width:0px;"/><path d="M236.24,87.51c.93,2.83,1.94,5.63,2.75,8.49.41,1.45,1.12,1.89,2.57,1.84,2.96-.11,5.93-.03,9.65-.03-3.1,2.25-5.55,4.09-8.06,5.84-1.01.7-1.32,1.33-.84,2.6,1.06,2.85,1.87,5.78,2.99,9.36-3.02-2.18-5.49-3.87-7.85-5.7-1.09-.85-1.84-.87-2.94-.01-2.41,1.89-4.94,3.64-7.9,5.79,1.12-3.42,1.97-6.35,3.04-9.21.53-1.42.18-2.17-1.01-2.97-2.46-1.67-4.82-3.48-7.84-5.69,3.74,0,6.72-.09,9.69.04,1.5.06,2.17-.47,2.57-1.87.82-2.87,1.79-5.69,2.7-8.53.16.02.32.05.47.07Z" style="fill:#f7f7f7; stroke-width:0px;"/><path d="M302.38,98.28c-2.47,1.8-4.91,3.67-7.44,5.39-1.08.73-1.24,1.39-.81,2.58,1.05,2.94,1.96,5.94,3.08,9.41-2.96-2.14-5.54-3.93-8.03-5.84-1.01-.78-1.73-.76-2.73.01-2.36,1.83-4.82,3.53-7.56,5.52.35-3.01,1.31-5.48,2.29-7.85.93-2.27.38-3.46-1.59-4.67-2.2-1.34-4.19-3.01-6.2-5.02,2.92,0,5.85-.07,8.77.03,1.52.05,2.32-.35,2.74-1.95.76-2.85,1.81-5.63,2.94-9.08,1.1,3.34,2.13,6,2.81,8.75.47,1.89,1.4,2.39,3.22,2.29,2.79-.15,5.59-.04,8.39-.04.04.16.08.31.12.47Z" style="fill:#f7f7f7; stroke-width:0px;"/><path d="M89.3,115.06c-2.45-1.71-4.95-3.36-7.33-5.17-1.11-.85-1.87-.81-2.95.02-2.28,1.78-4.68,3.41-7.54,4.79.82-2.57,1.55-5.17,2.49-7.69.61-1.65.57-2.73-1.14-3.77-2.4-1.47-4.59-3.28-6.78-5.45,2.93,0,5.87-.08,8.79.03,1.55.06,2.31-.4,2.74-1.96.78-2.84,1.8-5.61,2.95-9.11,1.15,3.59,2.13,6.44,2.97,9.34.38,1.3,1.01,1.79,2.4,1.74,2.98-.11,5.97-.03,9.17.4-2.35,1.73-4.62,3.58-7.07,5.14-1.47.94-1.56,1.84-1.08,3.36.88,2.76,2.32,5.38,2.33,8.39l.03-.06Z" style="fill:#f7f7f7; stroke-width:0px;"/><path d="M252.48,78.9c1.2-3.65,2.12-6.57,3.13-9.46.4-1.15.26-1.88-.83-2.62-2.52-1.7-4.93-3.56-7.24-5.82,2.96,0,5.92-.09,8.87.04,1.52.07,2.15-.49,2.55-1.89.81-2.84,1.8-5.63,2.95-9.16,1.16,3.52,2.16,6.31,2.97,9.16.4,1.41,1.05,1.95,2.55,1.89,2.92-.12,5.84-.04,9.06.38-2.01,1.48-3.92,3.15-6.07,4.39-2.34,1.35-2.75,2.87-1.67,5.29,1,2.27,1.59,4.72,2.57,7.75-2.79-2.01-5.17-3.5-7.28-5.31-1.64-1.41-2.81-1.19-4.35.09-2.12,1.75-4.43,3.26-7.22,5.28Z" style="fill:#f7f7f7; stroke-width:0px;"/><path d="M40.28,60.99c2.82,0,5.64-.14,8.45.05,1.84.12,2.58-.59,3.03-2.26.76-2.77,1.73-5.47,2.81-8.83,1.16,3.5,2.19,6.38,3.04,9.31.39,1.34,1.02,1.79,2.4,1.75,2.98-.1,5.97-.03,9.18.41-2.3,1.68-4.54,3.44-6.92,5-1.46.96-1.84,1.88-1.18,3.57,1.06,2.69,1.83,5.49,2.93,8.89-3.02-2.19-5.53-3.93-7.94-5.8-1.09-.84-1.87-.84-2.96,0-2.42,1.88-4.94,3.61-7.93,5.77,1.1-3.41,1.91-6.28,2.95-9.05.56-1.48.32-2.34-.99-3.22-2.41-1.61-4.72-3.39-7.07-5.1l.2-.51Z" style="fill:#f7f7f7; stroke-width:0px;"/><path d="M158.5,50.76c.93,2.85,1.93,5.67,2.77,8.55.39,1.34,1.05,1.77,2.42,1.72,2.96-.11,5.92-.03,9.05.48-2.19,1.6-4.32,3.3-6.6,4.76-1.62,1.04-2.16,2.02-1.35,3.94,1.09,2.59,1.8,5.34,2.89,8.69-2.94-2.14-5.34-3.79-7.62-5.59-1.27-1.01-2.21-1.16-3.56-.05-2.25,1.85-4.68,3.46-7.62,5.6,1.13-3.55,1.95-6.49,3.01-9.34.5-1.35.21-2.04-.91-2.8-2.47-1.68-4.84-3.49-7.17-5.73,2.7,0,5.41-.19,8.09.06,2.25.2,3.15-.67,3.66-2.73.64-2.57,1.6-5.06,2.43-7.59l.51.02Z" style="fill:#f7f7f7; stroke-width:0px;"/><path d="M313.98,50.72c.9,2.73,1.89,5.43,2.65,8.19.44,1.59,1.13,2.24,2.86,2.13,2.82-.16,5.66-.04,8.76-.04-.88,1.54-2.34,2.1-3.46,3.01-.82.66-1.64,1.37-2.56,1.85-2.24,1.17-2.83,2.64-1.72,5.07,1.06,2.33,1.64,4.87,2.63,7.92-3-2.17-5.52-3.89-7.93-5.77-1.1-.86-1.88-.81-2.95.02-2.41,1.88-4.93,3.62-7.89,5.76,1.13-3.54,2-6.55,3.08-9.49.46-1.26.17-1.87-.87-2.57-2.5-1.71-4.92-3.55-7.22-5.8,3.04,0,6.08-.07,9.11.03,1.3.04,1.87-.45,2.23-1.63.88-2.91,1.86-5.79,2.8-8.68.16,0,.32,0,.48,0Z" style="fill:#f7f7f7; stroke-width:0px;"/><path d="M37.53,188.75c-2.31-1.63-4.73-3.13-6.9-4.93-1.5-1.24-2.56-1.09-3.97.04-2.2,1.76-4.55,3.35-7.34,5.38,1.02-3.22,1.69-5.95,2.76-8.53.82-1.98.28-3.04-1.39-4.11-2.24-1.44-4.34-3.1-6.46-5.17,2.34,0,4.67.04,7.01,0,4.75-.09,3.43.77,5.04-3.72.79-2.2,1.45-4.45,2.37-7.28,1.11,3.31,2.2,6.05,2.93,8.89.46,1.81,1.35,2.24,3.06,2.16,2.82-.13,5.65-.04,9.17-.04-2.94,2.15-5.31,3.98-7.8,5.65-1.23.83-1.39,1.57-.96,2.99.87,2.89,2.39,5.62,2.43,8.74,0,0,.04-.05.04-.05Z" style="fill:#f7f7f7; stroke-width:0px;"/><path d="M158.25,197.21c1.15,3.52,2.16,6.34,2.98,9.21.41,1.44,1.13,1.88,2.59,1.82,2.89-.11,5.79-.03,8.94.43-2.35,1.73-4.65,3.54-7.08,5.14-1.35.89-1.54,1.75-.99,3.2,1.02,2.72,1.83,5.52,2.37,8.63-2.35-1.71-4.76-3.34-7.03-5.16-1.31-1.05-2.25-1.05-3.57.02-2.19,1.78-4.55,3.35-7.29,5.34.58-3.43,1.71-6.15,2.67-8.88.53-1.52.25-2.31-1.06-3.18-2.42-1.6-4.72-3.4-7.71-5.58,3.72,0,6.74-.08,9.75.04,1.39.05,2.02-.39,2.41-1.71.86-2.92,1.87-5.79,3.02-9.32Z" style="fill:#f7f7f7; stroke-width:0px;"/><path d="M146.83,171.93c-2.22,1.61-4.39,3.31-6.69,4.81-1.51.99-2.02,1.91-1.27,3.74,1.08,2.65,1.79,5.46,2.82,8.73-2.5-1.81-4.7-3.08-6.51-4.78-2.11-1.99-3.75-1.7-5.76.07-1.8,1.58-3.87,2.86-6.41,4.69,1.13-3.57,1.97-6.51,3.02-9.36.46-1.25.18-1.9-.85-2.61-2.52-1.75-4.98-3.59-7.99-5.79,3.57,0,6.55-.09,9.51.03,1.59.06,2.27-.49,2.7-2.02.79-2.86,1.84-5.65,2.96-9.02,1.04,3.18,2.04,5.77,2.73,8.44.5,1.95,1.33,2.8,3.48,2.62,2.72-.22,5.47-.05,8.21-.05.02.17.04.33.05.5Z" style="fill:#f7f7f7; stroke-width:0px;"/><path d="M210.07,197.2c1.13,3.45,2.15,6.25,2.95,9.11.43,1.54,1.19,2.01,2.74,1.94,2.89-.13,5.79-.04,9.46-.04-3.01,2.21-5.4,4.06-7.89,5.74-1.15.78-1.38,1.5-.9,2.8,1.05,2.87,1.92,5.8,3.07,9.34-2.94-2.14-5.39-3.82-7.72-5.66-1.21-.95-2.11-1.03-3.37-.03-2.31,1.85-4.77,3.51-7.71,5.64,1.1-3.46,1.89-6.34,2.95-9.1.6-1.55.18-2.35-1.08-3.2-2.38-1.61-4.67-3.35-6.84-5.55,2.79,0,5.59-.14,8.36.05,1.92.13,2.7-.62,3.18-2.36.74-2.71,1.7-5.36,2.78-8.7Z" style="fill:#f7f7f7; stroke-width:0px;"/><path d="M106.42,49.99c.9,2.73,1.57,4.76,2.23,6.79q1.38,4.21,5.93,4.21c2.07,0,4.14,0,6.39.5-2.38,1.73-4.73,3.52-7.16,5.18-1.19.81-1.55,1.55-1,2.99,1.06,2.79,1.88,5.67,3.03,9.21-2.98-2.16-5.47-3.85-7.83-5.7-1.16-.9-1.99-.92-3.15,0-2.38,1.88-4.89,3.59-7.88,5.76,1.14-3.48,2.01-6.32,3.01-9.11.5-1.39.43-2.28-.97-3.18-2.45-1.56-4.73-3.39-7.04-5.64,2.74,0,5.5-.16,8.22.05,2.12.16,2.98-.61,3.47-2.61.64-2.62,1.65-5.15,2.75-8.45Z" style="fill:#f7f7f7; stroke-width:0px;"/><path d="M147,245.4c-2.19,1.58-4.32,3.25-6.58,4.71-1.73,1.11-2.4,2.18-1.46,4.3,1.1,2.48,1.72,5.17,2.75,8.42-3.01-2.18-5.55-3.95-8-5.84-1-.77-1.71-.78-2.72,0-2.4,1.86-4.91,3.59-7.97,5.81,1.1-3.46,1.84-6.26,2.9-8.93.65-1.64.22-2.47-1.14-3.37-2.41-1.6-4.7-3.39-7.65-5.54,3.77,0,6.81-.06,9.84.03,1.36.04,2.01-.4,2.39-1.76.83-2.93,1.88-5.8,3.02-9.24,1.04,3.21,2.08,5.81,2.71,8.5.49,2.09,1.55,2.63,3.55,2.51,2.72-.17,5.45-.04,8.18-.04.06.15.13.29.19.44Z" style="fill:#f7f7f7; stroke-width:0px;"/><path d="M175.01,188.55c.95-2.9,1.85-5.82,2.86-8.7.42-1.19.19-1.92-.87-2.64-2.51-1.72-4.94-3.56-7.99-5.78,3.39,0,6.07-.15,8.71.05,2.15.17,3.22-.49,3.75-2.64.65-2.66,1.65-5.23,2.69-8.43,1.09,3.31,2.14,6.06,2.88,8.89.47,1.78,1.36,2.26,3.09,2.17,2.82-.14,5.65-.04,9.2-.04-2.99,2.17-5.4,3.99-7.89,5.69-1.11.76-1.42,1.47-.92,2.82,1.03,2.79,1.85,5.66,2.4,8.86-2.22-1.62-4.53-3.13-6.65-4.88-1.49-1.23-2.61-1.39-4.17-.05-2.08,1.78-4.41,3.28-6.63,4.9-.15-.07-.31-.14-.46-.21Z" style="fill:#f7f7f7; stroke-width:0px;"/><path d="M88.99,262.08c-2.38-1.69-4.8-3.32-7.12-5.08-1.02-.78-1.73-.76-2.74,0-2.43,1.87-4.94,3.62-7.97,5.8,1.12-3.51,1.96-6.43,3.01-9.27.49-1.33.2-2.03-.92-2.79-2.47-1.68-4.85-3.49-7.2-5.79,2.59,0,5.19-.21,7.75.06,2.55.27,3.6-.74,4.16-3.07.59-2.47,1.52-4.86,2.78-7.28.92,2.87,1.9,5.72,2.74,8.61.38,1.31,1.02,1.77,2.41,1.72,2.98-.11,5.96-.03,9.2.43-2.42,1.76-4.8,3.59-7.29,5.25-1.23.82-1.45,1.59-.95,2.98.95,2.65,1.68,5.38,2.5,8.08-.12.11-.25.23-.37.34Z" style="fill:#f7f7f7; stroke-width:0px;"/><path d="M45.15,226.13c1.2-3.66,2.11-6.58,3.12-9.47.41-1.17.21-1.92-.86-2.65-2.5-1.71-4.91-3.55-7.19-5.81,2.56,0,5.12-.15,7.67.04,2.28.17,3.53-.42,4.05-2.85.56-2.6,1.6-5.09,2.62-8.19,1.12,3.36,2.16,6.23,3,9.16.41,1.43,1.07,1.92,2.55,1.87,2.96-.11,5.93-.03,9.05.43-2.39,1.74-4.74,3.54-7.19,5.2-1.2.81-1.55,1.57-1.01,3,1.05,2.79,1.89,5.66,3.06,9.26-2.95-2.15-5.39-3.78-7.66-5.62-1.33-1.08-2.27-1.01-3.57.02-2.28,1.82-4.69,3.45-7.65,5.6Z" style="fill:#f7f7f7; stroke-width:0px;"/><path d="M244.76,188.87c-2.48-1.82-4.99-3.6-7.42-5.49-1.03-.8-1.78-.69-2.77.07-2.44,1.87-4.96,3.63-7.92,5.78,1.09-3.35,1.94-6.25,2.98-9.08.54-1.47.23-2.32-1.06-3.17-2.42-1.6-4.73-3.38-7.72-5.55,3.54,0,6.4-.11,9.24.04,1.74.09,2.61-.44,3.08-2.17.74-2.78,1.74-5.5,2.83-8.86,1.12,3.37,2.17,6.14,2.95,8.98.45,1.63,1.21,2.15,2.88,2.06,2.89-.15,5.79-.04,9.31-.04-2.98,2.17-5.38,4.04-7.91,5.73-1.18.79-1.34,1.5-.85,2.79.87,2.26,1.51,4.6,2.24,6.91.21.67.68,1.33.12,2.04l.02-.05Z" style="fill:#f7f7f7; stroke-width:0px;"/><path d="M271.31,226.05c-3-2.17-5.51-3.89-7.91-5.75-1.09-.84-1.85-.88-2.96-.01-2.42,1.89-4.95,3.64-7.93,5.8,1.1-3.4,1.9-6.27,2.98-9.03.63-1.63.21-2.47-1.15-3.37-2.36-1.56-4.61-3.3-6.86-5.48,2.83,0,5.66-.1,8.49.04,1.72.08,2.64-.36,3.09-2.15.7-2.74,1.7-5.41,3.06-8.25.86,2.62,1.86,5.2,2.52,7.86.51,2.03,1.48,2.71,3.55,2.55,2.66-.2,5.34-.05,8.32.4-1.7,1.23-3.4,2.46-5.1,3.69q-3.66,2.66-2.3,6.88c.67,2.06,1.33,4.12,2.2,6.83Z" style="fill:#f7f7f7; stroke-width:0px;"/><path d="M351.35,61.01c2.97,0,5.95-.06,8.92.03,1.28.04,1.88-.38,2.25-1.61.87-2.93,1.88-5.82,3.06-9.43,1.15,3.51,2.14,6.31,2.97,9.16.4,1.39,1.03,1.95,2.55,1.88,2.89-.13,5.79-.04,8.94.44-2.09,1.54-4.09,3.21-6.29,4.57-1.88,1.17-2.5,2.32-1.53,4.51,1.07,2.42,1.69,5.04,2.74,8.29-3.03-2.19-5.52-3.91-7.9-5.76-1.07-.83-1.83-.9-2.94-.03-2.35,1.86-4.83,3.54-7.64,5.58.57-3.31,1.68-6.03,2.64-8.76.56-1.59.33-2.46-1.11-3.39-2.37-1.53-4.59-3.3-6.87-4.96.07-.18.14-.36.2-.54Z" style="fill:#f7f7f7; stroke-width:0px;"/><path d="M279.16,189c-.62-2.3.83-4.17,1.41-6.19,1.31-4.61,1.43-4.58-2.46-7.42-1.63-1.19-3.25-2.38-5.41-3.95,3.57,0,6.55-.09,9.52.04,1.61.07,2.26-.52,2.69-2.02.8-2.84,1.82-5.62,2.95-9.02,1.1,3.35,2.08,6.04,2.84,8.79.46,1.64,1.15,2.38,3,2.26,2.87-.18,5.77-.05,9.28-.05-3.03,2.21-5.47,4.07-8,5.8-1.04.71-1.28,1.36-.84,2.57,1.07,2.95,1.96,5.96,3.07,9.4-2.85-2.05-5.37-3.75-7.75-5.61-1.15-.89-1.98-1.07-3.16-.07-2.28,1.94-4.96,3.35-7.12,5.45v.03Z" style="fill:#f7f7f7; stroke-width:0px;"/><path d="M64,152.5c-2.93-2.13-5.29-3.7-7.48-5.49-1.45-1.18-2.48-1.18-3.93.04-2.16,1.82-4.55,3.36-7.39,5.42,1.12-3.45,2-6.33,2.98-9.18.45-1.31.39-2.16-.93-3.02-2.51-1.63-4.87-3.5-7.9-5.72,3.66,0,6.67-.08,9.68.03,1.44.05,2.17-.33,2.58-1.81.79-2.89,1.81-5.71,2.98-9.31,1.08,3.31,2.1,5.97,2.78,8.72.49,1.97,1.42,2.55,3.39,2.42,2.8-.19,5.61-.05,9.08-.05-2.59,1.89-4.56,3.56-6.74,4.87-2.13,1.29-2.87,2.6-1.74,5.06,1.07,2.32,1.65,4.87,2.66,8.01Z" style="fill:#f7f7f7; stroke-width:0px;"/><path d="M354.2,98.28c-2.28,1.67-4.5,3.42-6.85,4.97-1.44.95-1.88,1.84-1.2,3.56,1.06,2.68,1.8,5.48,2.85,8.81-2.9-2.09-5.39-3.75-7.71-5.61-1.26-1.01-2.1-.93-3.32.05-2.27,1.82-4.69,3.44-7.64,5.57,1.05-3.22,1.77-5.85,2.76-8.36.74-1.88.52-3.06-1.31-4.18-2.33-1.43-4.46-3.2-7.3-5.27,3.66,0,6.61-.08,9.55.03,1.57.06,2.3-.46,2.72-2,.79-2.87,1.83-5.67,2.93-9.02,1.14,3.47,2.19,6.39,3.04,9.37.36,1.27.96,1.66,2.22,1.63,3.05-.07,6.1-.02,9.15-.02l.11.47Z" style="fill:#f7f7f7; stroke-width:0px;"/><path d="M304.35,226.09c1.15-3.55,2.02-6.48,3.05-9.35.46-1.27.32-2-.87-2.79-2.49-1.64-4.86-3.49-7.23-5.74,2.84,0,5.68-.11,8.51.04,1.73.09,2.61-.39,3.07-2.15.71-2.73,1.71-5.38,3.09-8.18.86,2.6,1.87,5.16,2.52,7.82.5,2.07,1.53,2.66,3.56,2.52,2.64-.18,5.31-.04,8.23.41-2.29,1.68-4.51,3.45-6.88,4.99-1.5.98-1.78,1.93-1.14,3.59,1.04,2.69,1.81,5.48,2.87,8.79-2.87-2.07-5.29-3.7-7.56-5.51-1.29-1.03-2.21-1.15-3.55-.06-2.25,1.84-4.68,3.46-7.65,5.62Z" style="fill:#f7f7f7; stroke-width:0px;"/><path d="M273.41,244.97c3.05,0,6.11-.06,9.16.03,1.29.04,1.89-.43,2.25-1.63.87-2.92,1.86-5.81,3.02-9.41,1.13,3.48,2.1,6.24,2.89,9.04.42,1.47,1.07,2.1,2.69,2.02,2.9-.14,5.81-.04,8.95.43-2.16,1.58-4.24,3.28-6.51,4.7-1.79,1.12-2.36,2.17-1.43,4.27,1.1,2.49,1.73,5.19,2.74,8.37-2.92-2.11-5.47-3.85-7.9-5.75-1.11-.87-1.86-.82-2.94.02-2.34,1.83-4.79,3.52-7.59,4.99.8-2.52,1.49-5.08,2.45-7.53.77-1.94.65-3.18-1.34-4.34-2.33-1.36-4.42-3.15-6.61-4.76.05-.15.11-.3.16-.45Z" style="fill:#f7f7f7; stroke-width:0px;"/><path d="M120.95,208.7c-2.14,1.56-4.18,3.26-6.43,4.62-1.86,1.12-2.32,2.27-1.48,4.31,1.04,2.52,1.74,5.19,2.81,8.47-2.95-2.14-5.4-3.8-7.71-5.63-1.22-.97-2.1-1.05-3.36-.05-2.34,1.86-4.81,3.54-7.74,5.67,1.02-3.2,1.65-5.93,2.75-8.46.91-2.09.36-3.16-1.43-4.28-2.25-1.41-4.33-3.09-6.4-5.13,3.02,0,6.05-.09,9.06.04,1.41.06,2.01-.45,2.39-1.74.84-2.86,1.8-5.68,3.2-8.66.86,2.62,1.87,5.2,2.54,7.86.51,2.04,1.5,2.69,3.55,2.54,2.65-.19,5.33-.05,8-.05.08.16.16.33.24.49Z" style="fill:#f7f7f7; stroke-width:0px;"/><path d="M380.11,208.66c-2.39,1.76-4.73,3.59-7.2,5.24-1.26.84-1.44,1.64-.93,3.02,1.03,2.79,1.86,5.66,2.97,9.12-3.03-2.18-5.55-3.92-7.98-5.79-1.01-.78-1.72-.81-2.75-.02-2.43,1.88-4.96,3.62-7.97,5.79.93-2.96,1.42-5.45,2.48-7.68,1.26-2.63.53-4.08-1.82-5.45-2.07-1.21-3.91-2.8-6.47-4.67,3.76,0,6.8-.06,9.83.03,1.27.04,1.88-.37,2.25-1.6.87-2.94,1.88-5.83,3.06-9.42,1.14,3.49,2.14,6.3,2.97,9.16.4,1.4,1.05,1.93,2.56,1.86,2.92-.13,5.85-.04,8.77-.04.08.15.16.29.23.44Z" style="fill:#f7f7f7; stroke-width:0px;"/><path d="M193.51,262.81c-3.04-2.2-5.57-3.95-7.99-5.82-1.01-.78-1.71-.79-2.72,0-2.43,1.88-4.95,3.64-7.99,5.85,1.14-3.51,2.02-6.41,3.04-9.27.46-1.29.21-2.06-.94-2.83-2.47-1.67-4.84-3.49-7.15-5.77,2.71,0,5.42-.12,8.12.04,2,.12,3.1-.4,3.59-2.51.62-2.67,1.63-5.24,2.58-8.17,1.22,2.2,1.59,4.39,2.34,6.44,1.87,5.12.29,4.08,5.69,4.2,2.16.05,4.32,0,6.63.5-2.21,1.6-4.35,3.3-6.64,4.78-1.6,1.04-2.14,2.05-1.36,3.96,1.06,2.58,1.76,5.31,2.81,8.6Z" style="fill:#f7f7f7; stroke-width:0px;"/><path d="M252.52,152.46c1.11-3.43,2-6.34,3.02-9.21.48-1.35.27-2.17-.99-3-2.49-1.64-4.85-3.49-7.87-5.69,3.67,0,6.69-.08,9.7.03,1.47.06,2.16-.4,2.56-1.84.79-2.86,1.8-5.66,2.96-9.24,1.17,3.57,2.19,6.44,3.02,9.35.38,1.35,1.02,1.77,2.4,1.72,3.04-.1,6.09-.03,9.8-.03-2.99,2.2-5.41,4.06-7.92,5.77-1.14.77-1.42,1.49-.94,2.81,1.04,2.87,1.91,5.8,3.04,9.3-3.06-2.21-5.64-4-8.13-5.91-.95-.73-1.58-.71-2.52,0-2.5,1.92-5.09,3.72-8.12,5.92Z" style="fill:#f7f7f7; stroke-width:0px;"/><path d="M121.68,134.57c-3.11,2.26-5.56,4.12-8.1,5.86-1.06.73-1.26,1.44-.84,2.63,1.02,2.89,1.91,5.83,3.08,9.42-2.93-2.13-5.38-3.79-7.68-5.63-1.21-.97-2.09-1.05-3.34-.05-2.34,1.87-4.82,3.55-7.76,5.69,1.13-3.5,2.02-6.46,3.07-9.36.47-1.3.21-2.02-.93-2.78-2.53-1.7-4.96-3.56-8-5.77,3.57,0,6.46-.11,9.33.04,1.73.09,2.6-.4,3.05-2.15.71-2.73,1.71-5.39,3.1-8.25.8,2.46,1.78,4.89,2.34,7.4.54,2.45,1.73,3.25,4.2,3.01,2.56-.25,5.16-.06,8.49-.06Z" style="fill:#f7f7f7; stroke-width:0px;"/><path d="M314,124.33c.9,2.76,1.89,5.49,2.67,8.28.42,1.5,1.07,2.08,2.69,2.01,2.96-.14,5.93-.04,9.6-.04-2.94,2.15-5.27,3.97-7.72,5.62-1.29.86-1.64,1.68-1.07,3.19,1.05,2.78,1.86,5.64,2.98,9.11-2.38-1.73-4.2-3.07-6.02-4.39q-3.35-2.43-6.62-.05c-1.89,1.37-3.78,2.73-6.12,4.41,1.11-3.44,1.95-6.38,3.03-9.23.55-1.44.17-2.16-1.01-2.96-2.46-1.67-4.82-3.47-7.86-5.69,3.77,0,6.81-.08,9.83.04,1.39.06,2.01-.41,2.39-1.72.83-2.86,1.8-5.67,2.72-8.51.18-.02.36-.04.54-.06Z" style="fill:#f7f7f7; stroke-width:0px;"/><path d="M236.26,234.71c.79,2.44,1.72,4.85,2.32,7.35.54,2.24,1.55,3.21,3.98,2.97,2.56-.25,5.16-.06,8.57-.06-2.76,2.04-4.89,3.77-7.19,5.25-1.69,1.09-2.24,2.13-1.4,4.12,1.06,2.49,1.73,5.15,2.8,8.45-2.98-2.15-5.41-3.74-7.63-5.57-1.35-1.11-2.26-.93-3.52.08-2.27,1.81-4.69,3.45-7.53,5.51,1.06-3.29,1.81-6.08,2.88-8.74.72-1.79.29-2.71-1.27-3.7-2.36-1.5-4.55-3.26-6.66-5.4,2.97,0,5.94-.08,8.9.04,1.48.06,2.17-.44,2.57-1.85.82-2.86,1.79-5.68,2.69-8.51.16.02.33.05.49.07Z" style="fill:#f7f7f7; stroke-width:0px;"/><path d="M195.64,134.57c3,0,6.01-.06,9.01.03,1.34.04,2.02-.31,2.41-1.7.8-2.88,1.83-5.7,3.25-8.66.9,2.76,1.91,5.48,2.66,8.28.44,1.62,1.17,2.19,2.87,2.1,2.89-.16,5.79-.04,9.44-.04-2.95,2.17-5.28,3.98-7.72,5.62-1.28.86-1.66,1.65-1.08,3.17,1.03,2.71,1.82,5.5,2.32,8.62-2.32-1.67-4.69-3.27-6.92-5.05-1.28-1.02-2.2-1.16-3.54-.05-2.24,1.85-4.68,3.46-7.59,5.58,1.06-3.34,1.76-6.13,2.83-8.77.75-1.84.23-2.76-1.28-3.75-2.35-1.54-4.57-3.27-6.84-4.92.06-.15.13-.29.19-.44Z" style="fill:#f7f7f7; stroke-width:0px;"/><path d="M349.03,262.81c-2.9-2.09-5.31-3.62-7.46-5.45-1.5-1.27-2.5-1.09-3.9.08-2.12,1.75-4.43,3.26-6.99,5.11.29-2.47,1.19-4.4,1.82-6.38,1.38-4.32,1.4-4.31-2.4-7.08-1.68-1.22-3.34-2.46-5.59-4.11,3.68,0,6.65-.06,9.61.03,1.44.04,2.17-.34,2.58-1.84.78-2.88,1.83-5.68,2.96-9.1,1.02,3.05,2.08,5.52,2.63,8.1.52,2.43,1.74,3.04,4.03,2.87,2.56-.19,5.14-.04,7.87.44-2.39,1.74-4.73,3.56-7.19,5.2-1.23.83-1.47,1.65-.97,3.02,1.01,2.79,1.86,5.65,3,9.13Z" style="fill:#f7f7f7; stroke-width:0px;"/><path d="M149.29,151.62c.86-2.86,1.63-5.75,2.63-8.57.43-1.23.25-1.89-.81-2.62-2.53-1.74-4.98-3.6-8.1-5.87,3.71,0,6.74-.1,9.75.04,1.52.07,2.11-.49,2.51-1.88.82-2.85,1.83-5.65,2.98-9.14,1.15,3.52,2.16,6.33,2.97,9.19.41,1.43,1.1,1.89,2.57,1.83,2.97-.12,5.96-.04,9.7-.04-2.76,2.01-4.86,3.74-7.15,5.16-1.81,1.13-2.35,2.25-1.48,4.32,1.06,2.51,1.73,5.19,2.76,8.4-2.88-2.09-5.29-3.72-7.57-5.53-1.28-1.02-2.22-1.17-3.55-.05-1.86,1.56-3.9,2.92-5.89,4.32-.38.27-.71,1.03-1.38.41l.06.03Z" style="fill:#f7f7f7; stroke-width:0px;"/><path d="M374.23,151.92c-2.29-1.66-4.65-3.24-6.85-5.01-1.28-1.03-2.2-1.15-3.54-.05-2.23,1.83-4.65,3.43-7.37,4.82.87-2.68,1.63-5.39,2.63-8.02.61-1.62.45-2.6-1.11-3.59-2.43-1.54-4.68-3.36-7.59-5.49,2.95,0,5.18,0,7.41,0q4.18,0,5.51-4.07c.68-2.07,1.35-4.13,2.25-6.89,1.15,3.49,2.14,6.28,2.97,9.12.4,1.37.99,1.96,2.53,1.89,2.98-.14,5.96-.04,9.68-.04-2.92,2.15-5.24,3.96-7.68,5.61-1.27.86-1.67,1.64-1.09,3.17,1.04,2.71,1.82,5.52,2.7,8.28-.15.09-.3.19-.45.28Z" style="fill:#f7f7f7; stroke-width:0px;"/><path d="M89.26,188.74c-2.37-1.7-4.82-3.31-7.09-5.12-1.27-1.02-2.14-.93-3.37.05-2.26,1.79-4.66,3.39-7.62,5.51,1.05-3.3,1.7-5.96,2.76-8.45.85-2,.28-3.03-1.39-4.1-2.29-1.47-4.43-3.17-7.2-5.18,3.68,0,6.73-.09,9.77.04,1.43.06,2-.49,2.38-1.76.86-2.9,1.85-5.77,3.01-9.36,1.15,3.53,2.12,6.31,2.94,9.13.42,1.43,1.05,2.09,2.67,2,2.96-.15,5.94-.04,9.52-.04-3.05,2.22-5.54,4.11-8.1,5.88-.97.67-1.19,1.24-.75,2.38.87,2.26,1.55,4.6,2.24,6.93.2.69.95,1.39.2,2.18l.03-.07Z" style="fill:#f7f7f7; stroke-width:0px;"/><path d="M43.84,24.27c-3.09,2.24-5.55,4.09-8.08,5.83-.96.66-1.21,1.24-.8,2.4,1.03,2.87,1.88,5.81,2.43,9.07-2.31-1.66-4.68-3.23-6.89-5.01-1.29-1.04-2.2-1.17-3.56-.07-2.29,1.86-4.77,3.5-7.64,5.56,1.09-3.36,1.92-6.22,2.95-9,.53-1.43.35-2.33-.98-3.21-2.42-1.6-4.72-3.38-7.03-5.57,2.85,0,5.72-.13,8.56.05,1.82.11,2.57-.57,3.03-2.24.76-2.79,1.74-5.52,2.82-8.86,1.12,3.35,2.17,6.13,2.96,8.98.44,1.58,1.07,2.23,2.81,2.13,2.89-.17,5.8-.05,9.41-.05Z" style="fill:#f7f7f7; stroke-width:0px;"/><path d="M199.31,24.28c-2.94,2.14-5.24,3.9-7.64,5.51-1.27.85-1.68,1.62-1.08,3.18,1.06,2.75,1.82,5.61,2.9,9.06-2.85-2.06-5.21-3.62-7.39-5.41-1.47-1.21-2.55-1.08-3.96.07-2.17,1.76-4.51,3.33-7.32,5.37,1.08-3.4,1.85-6.19,2.87-8.89.58-1.55.41-2.47-1.03-3.41-2.42-1.57-4.7-3.36-7.62-5.48,3.52,0,6.4-.12,9.26.05,1.81.11,2.58-.56,3.04-2.24.77-2.8,1.75-5.53,2.83-8.87,1.15,3.46,2.22,6.37,3.06,9.34.38,1.35.99,1.79,2.37,1.75,2.99-.1,6-.03,9.72-.03Z" style="fill:#f7f7f7; stroke-width:0px;"/><path d="M244.88,41.45c-2.64-1.27-4.82-3.22-7.13-4.96-1.38-1.04-2.28-.97-3.57.07-2.27,1.82-4.7,3.45-7.53,5.51,1.1-3.42,2-6.37,3.02-9.28.44-1.26.28-2.02-.9-2.8-2.48-1.65-4.85-3.48-7.9-5.71,3.69,0,6.7-.08,9.71.04,1.39.05,2.02-.42,2.4-1.72.86-2.93,1.86-5.82,3.01-9.4,1,3.08,1.96,5.54,2.59,8.08.57,2.29,1.54,3.37,4.12,3.06,2.54-.3,5.15-.07,8.4-.07-2.95,2.16-5.34,4-7.83,5.69-1.13.76-1.34,1.41-.94,2.77.86,2.91,2.36,5.65,2.51,8.76l.04-.05Z" style="fill:#f7f7f7; stroke-width:0px;"/><path d="M89.31,41.44c-2.44-1.7-4.93-3.33-7.3-5.12-1.09-.82-1.87-.88-2.97-.03-2.36,1.83-4.82,3.53-7.24,5.28l.02.07c-.48-2.44.99-4.42,1.61-6.58,1.18-4.04,1.27-4.01-2.17-6.5-1.76-1.27-3.51-2.56-5.87-4.28,3.67,0,6.7-.09,9.71.04,1.42.06,2.01-.46,2.39-1.74.87-2.91,1.84-5.79,3.01-9.41,1.19,3.66,2.19,6.59,3.08,9.55.36,1.19.94,1.64,2.23,1.6,3.04-.1,6.09-.03,9.82-.03-2.7,1.95-4.76,3.6-6.98,4.99-1.83,1.15-2.4,2.24-1.53,4.47.96,2.47,2.23,4.96,2.15,7.75,0,0,.04-.06.04-.06Z" style="fill:#fdfdfd; stroke-width:0px;"/><path d="M147.45,24.28c-3,2.18-5.35,3.97-7.8,5.62-1.24.83-1.41,1.68-.92,3.03,1.01,2.8,1.86,5.66,2.98,9.11-2.7-1.95-5.05-3.42-7.13-5.21-1.7-1.46-2.92-1.33-4.56.06-2.01,1.71-4.26,3.13-7,5.11,1.11-3.51,1.89-6.37,2.94-9.14.55-1.46.19-2.18-1-2.99-2.42-1.63-4.74-3.41-7.76-5.6,3.38,0,6.13-.15,8.86.05,2.08.15,3.03-.55,3.53-2.56.69-2.72,1.7-5.35,2.76-8.58,1.07,3.31,2.03,6.01,2.8,8.76.48,1.72,1.23,2.51,3.17,2.37,2.78-.19,5.59-.05,9.13-.05Z" style="fill:#fdfdfd; stroke-width:0px;"/><path d="M296.58,41.44c-2.38-1.66-4.84-3.23-7.12-5.02-1.29-1.01-2.15-.89-3.36.07-2.25,1.78-4.64,3.39-7.37,4.78.83-2.59,1.56-5.22,2.54-7.75.68-1.77.57-2.88-1.22-3.96-2.35-1.41-4.49-3.19-7.37-5.29,3.38,0,6.14-.14,8.87.04,2.04.13,3.01-.47,3.51-2.54.65-2.71,1.71-5.31,2.78-8.53,1.09,3.34,2.1,6.03,2.83,8.8.48,1.83,1.36,2.39,3.22,2.27,2.75-.18,5.51-.05,9.05-.05-2.82,2.05-5.01,3.85-7.41,5.33-1.65,1.02-1.75,2.02-1.22,3.73.84,2.69,2.33,5.22,2.22,8.17,0,0,.04-.06.04-.06Z" style="fill:#f7f7f7; stroke-width:0px;"/><path d="M354.09,171.95c-2.41,1.76-4.8,3.57-7.26,5.25-1.06.72-1.28,1.46-.87,2.64,1.01,2.88,1.92,5.8,3.09,9.37-2.92-2.1-5.38-3.72-7.65-5.56-1.35-1.1-2.28-.97-3.56.06-2.2,1.76-4.55,3.35-7.23,5.3.51-3.08,1.51-5.58,2.44-8.06.72-1.94.62-3.21-1.36-4.37-2.29-1.34-4.34-3.09-7.14-5.13,3.58,0,6.5-.07,9.42.03,1.51.05,2.32-.29,2.74-1.93.75-2.88,1.83-5.67,2.96-9.09,1.14,3.45,2.18,6.33,3.03,9.26.38,1.31.95,1.82,2.36,1.77,2.97-.11,5.94-.03,8.92-.03.04.17.08.34.12.51Z" style="fill:#f7f7f7; stroke-width:0px;"/><path d="M349.01,42.03c-2.97-2.14-5.45-3.82-7.79-5.67-1.18-.94-2.01-.88-3.15.02-2.29,1.79-4.69,3.45-7.49,4.95.83-2.6,1.56-5.25,2.54-7.8.69-1.79.52-2.9-1.24-3.97-2.34-1.43-4.47-3.19-7.3-5.26,3.55,0,6.48-.07,9.4.03,1.52.05,2.3-.31,2.73-1.93.78-2.93,1.88-5.78,2.98-9.09,1.01,3.08,2.09,5.64,2.66,8.3.51,2.35,1.69,2.9,3.88,2.73,2.56-.19,5.15-.04,8.49-.04-2.86,2.1-5.11,3.84-7.47,5.43-1.33.9-1.81,1.72-1.15,3.37,1.06,2.69,1.81,5.5,2.91,8.94Z" style="fill:#fdfdfd; stroke-width:0px;"/><path d="M1.03,279.36c0,13.23,0,26.46,0,39.68-.16.11-.32.23-.48.34.02-13.4.04-26.8.05-40.2.16,0,.3.06.42.18Z" style="fill:#dcdcdc; stroke-width:0px;"/><path d="M394.69,278.38c.14.26.27.53.41.79-.16,0-.33,0-.49,0,.03-.27.06-.53.08-.8Z" style="fill:#b50d38; stroke-width:0px;"/><path d="M89.36,261.74c.45.16.36.45.19.76-.19-.14-.37-.28-.56-.42.12-.11.25-.23.37-.34Z" style="fill:#f7f7f7; stroke-width:0px;"/><path d="M89.23,188.81l.34-.18c.03.07.05.14.08.21-.13-.04-.26-.07-.39-.1,0,0-.03.07-.03.07Z" style="fill:#f7f7f7; stroke-width:0px;"/><path d="M244.74,188.92c.09-.08.18-.17.28-.24,0,0,.09.09.13.13-.13.01-.26.03-.39.05,0,0-.02.06-.02.06Z" style="fill:#f7f7f7; stroke-width:0px;"/><path d="M394.68,198.91c.14.15.27.3.41.45-.13.07-.26.1-.41.1,0-.18,0-.37,0-.55Z" style="fill:#b50d38; stroke-width:0px;"/><path d="M37.49,188.8c.1,0,.2-.02.3-.02-.03.02-.06.05-.08.04-.06-.02-.12-.05-.18-.08,0,0-.04.06-.04.06Z" style="fill:#f7f7f7; stroke-width:0px;"/><path d="M149.23,151.59c.02.11.04.23.06.34-.07,0-.14,0-.22,0,.07-.1.15-.21.22-.31,0,0-.06-.03-.06-.03Z" style="fill:#f7f7f7; stroke-width:0px;"/><path d="M279.16,188.97c-.13-.07-.27-.14-.4-.21.35-.3.34.02.4.24,0,0,0-.02,0-.02Z" style="fill:#f7f7f7; stroke-width:0px;"/><path d="M394.68,118.97c.06.11.12.21.16.32,0,.02-.1.08-.15.13-.07-.15-.07-.3,0-.45Z" style="fill:#b50d38; stroke-width:0px;"/><path d="M296.55,41.5c.11-.03.21-.05.32-.08,0,.09-.02.19-.03.28-.08-.09-.17-.18-.25-.27,0,0-.04.06-.04.06Z" style="fill:#f7f7f7; stroke-width:0px;"/><path d="M244.84,41.5c.1.04.19.08.29.12-.05,0-.12.04-.14.02-.05-.05-.08-.13-.11-.2,0,0-.04.05-.04.05Z" style="fill:#f7f7f7; stroke-width:0px;"/><path d="M71.81,41.57c-.13,0-.26-.02-.39-.02.04-.06.08-.11.12-.17.1.08.19.17.29.26,0,0-.02-.06-.02-.06Z" style="fill:#fdfdfd; stroke-width:0px;"/><path d="M89.27,41.5c.1-.02.21-.04.31-.06-.01.09-.03.18-.04.28-.08-.09-.15-.19-.23-.28,0,0-.04.06-.04.06Z" style="fill:#fdfdfd; stroke-width:0px;"/><path d="M394.69,159.95c.05.11.12.21.15.32,0,.03-.1.08-.15.13-.06-.15-.06-.3,0-.45Z" style="fill:#b50d38; stroke-width:0px;"/><path d="M395.09,80c-.14.15-.27.3-.41.44,0-.18,0-.36,0-.54.14,0,.28.03.41.09Z" style="fill:#b50d38; stroke-width:0px;"/><path d="M89.27,115.12c.11-.02.23-.03.34-.05v.22c-.1-.08-.21-.15-.31-.22,0,0-.03.06-.03.06Z" style="fill:#f7f7f7; stroke-width:0px;"/><polygon points="71.53 115.11 71.57 115.25 71.46 115.24 71.53 115.11" style="fill:#f7f7f7; stroke-width:0px;"/><path d="M380.46,478.71c-.89-.03-1.78-.1-2.67-.1-124.37,0-248.75,0-373.12,0-.89,0-1.78.07-2.67.1-.16,0-.32,0-.48,0-.15-.07-.3-.13-.45-.2,0-13.24-.01-26.48-.02-39.72.97-.03,1.95-.08,2.92-.08,115.99,0,231.98,0,347.97,0,1.05,0,2.11-.06,3.16-.09.89.03,1.78.08,2.67.08,92.99,0,185.99,0,278.98.01,1.05,0,2.11.05,3.16.08-.16.26-.29.74-.48.76-2.41.26-3.45,1.73-3.85,3.96-.25,1.36-1.06,2.49-1.84,3.64-1.74,2.54-3.26,5.25-3.52,8.39-.11,1.34-.64,1.99-1.74,2.6-2.46,1.36-3.4,3.35-2.89,6.01.13.71.05,1.29-.29,1.84-1.81,2.93-3.62,5.86-5.47,8.76-.51.8-.57,1.55.14,2.17.51.44,1.01.8.92,1.57-1.13.03-2.27.1-3.4.1-77.96,0-155.92,0-233.87.01-1.05,0-2.11.06-3.16.09Z" style="fill:#fdfdfd; stroke-width:0px;"/><path d="M380.46,478.71c1.05-.03,2.11-.09,3.16-.09,77.96,0,155.92,0,233.87-.01,1.13,0,2.27-.06,3.4-.1.97.04,1.94.1,2.91.1,119.41,0,238.83,0,358.24,0,.89,0,1.78-.04,2.68-.06.16.09.33.17.49.26-.64.95-.47,2.03-.48,3.07,0,11.13-.04,22.26.03,33.38.01,1.87-.44,2.79-2.43,2.47-.4-.06-.81,0-1.22,0-188.78,0-377.56,0-566.35-.03-1.14,0-2.68.67-3.38-.55-.77-1.36.4-2.62,1.07-3.79,1.81-3.15,3.5-6.34,4.83-9.73.58-1.47.99-3.09,2.72-3.84.69-.3,1-1.06.91-1.86-.15-1.47.33-2.74,1.32-3.79,1.74-1.86,2.85-4.01,3.31-6.53.37-2.03,1.99-3.43,2.8-5.24,1.27-2.86,1.07-3.14-1.98-3.14-14.38,0-28.77,0-43.15-.02-.93,0-1.97.38-2.77-.48Z" style="fill:#b50d38; stroke-width:0px;"/><path d="M1.05,438.81c0,13.24.01,26.48.02,39.72-.17.09-.34.19-.5.28.01-13.39.02-26.79.03-40.18.15.06.3.12.45.18Z" style="fill:#dcdcdc; stroke-width:0px;"/><path d="M1.52,478.72c.16,0,.32,0,.48,0-.16.28-.32.28-.48,0Z" style="fill:#b50d38; stroke-width:0px;"/><path d="M402.39,319.25c1.05-.04,2.1-.11,3.16-.11,63.74,0,127.48,0,191.22-.02,1.05,0,2.1-.1,3.15-.16,1.05.06,2.1.17,3.15.17,126.25,0,252.5,0,378.75-.01.97,0,1.94-.06,2.92-.1.99.41.8,1.29.8,2.08,0,11.96,0,23.91,0,35.87,0,.76.27,1.68-.8,2.05-.81-.02-1.62-.07-2.43-.07-133.8,0-267.6-.01-401.39-.01-.81,0-1.62.07-2.43.11-1.05-.04-2.1-.1-3.16-.1-62.76,0-125.52,0-188.28-.01-1.05,0-2.11-.06-3.16-.1.79-.88,1.83-.49,2.76-.49,15.77-.02,31.53-.02,47.3-.02,17.07,0,34.14-.03,51.2.04,1.71,0,2.69-.41,3.2-2.11.44-1.46,1.2-2.81,1.92-4.18,2.38-4.54,4.84-9.08,6.77-13.82,2.16-5.3,5.35-10.09,7.25-15.53,1.07-3.05,1.48-2.91-1.87-2.91-32.35,0-64.69,0-97.04-.02-1,0-2.13.44-2.98-.54Z" style="fill:#b50d38; stroke-width:0px;"/><path d="M578.48,359.04c.81-.04,1.62-.11,2.43-.11,133.8,0,267.6,0,401.39.01.81,0,1.62.04,2.43.07-.02.12,0,.24.03.36.12.12.24.25.37.37,0,12.86,0,25.73,0,38.59-.14.13-.27.26-.41.39l.05.18c-1.05-.03-2.11-.08-3.16-.08-139.02,0-278.03,0-417.05,0-1.05,0-2.11-.06-3.16-.09-2.19-1.96-1.53-3.73.35-5.43.52-.47.47-1.15.66-1.76.91-2.97,1.47-6,3.33-8.71,1.74-2.54,3.38-5.22,4.48-8.19.94-2.55,2.33-4.94,3.47-7.42,1.33-2.88,2.72-5.72,4.79-8.16Z" style="fill:#f7f7f7; stroke-width:0px;"/><path d="M984.73,319.02c-.97.03-1.94.1-2.92.1-126.25.01-252.5.02-378.75.01-1.05,0-2.1-.11-3.15-.17.04-.85-.42-1.09-1.2-1.12-1.76-.07-1.68-.76-.95-2.17,3-5.76,6.15-11.47,8.65-17.45,1.62-3.87,3.74-7.47,5.27-11.36.62-1.58,2.34-2.65,2.08-4.7-.07-.57.73-.73,1.27-.94.89-.34,1.91-.59,1.97-1.84.49-.07.98-.14,1.47-.21.89.03,1.78.09,2.67.09,120.33,0,240.66,0,360.98,0,.89,0,1.78-.06,2.67-.1,0,0-.07.21-.07.21.13.14.27.27.4.41,0,12.86,0,25.73,0,38.59-.12.11-.23.23-.35.34-.05.09-.07.19-.05.29Z" style="fill:#f7f7f7; stroke-width:0px;"/><path d="M984.73,478.54c-.89.02-1.78.06-2.68.06-119.41,0-238.83,0-358.24,0-.97,0-1.94-.07-2.91-.1.1-.76-.41-1.12-.92-1.57-.71-.62-.65-1.37-.14-2.17,1.84-2.91,3.66-5.83,5.47-8.76.34-.56.43-1.13.29-1.84-.5-2.66.43-4.64,2.89-6.01,1.1-.61,1.63-1.26,1.74-2.6.26-3.14,1.78-5.85,3.52-8.39.79-1.15,1.6-2.28,1.84-3.64.4-2.24,1.44-3.71,3.85-3.96.18-.02.32-.5.48-.76,1.05-.03,2.11-.09,3.16-.09,112.84,0,225.68,0,338.52,0,1.05,0,2.11-.05,3.16-.08l-.05.18c.14.13.27.25.41.38,0,12.86,0,25.73,0,38.59-.13.13-.25.26-.38.38-.03.12-.04.24-.03.37Z" style="fill:#f7f7f7; stroke-width:0px;"/><path d="M985.21,119.92c-.13-.09-.27-.18-.4-.27.65-.87.4-1.88.4-2.83.02-12.26.02-24.52.02-36.78-.09-.06-.1-.13-.05-.21.64.59.39,1.36.39,2.06.02,11.99.01,23.97,0,35.96,0,.71.2,1.47-.37,2.08Z" style="fill:#bf113e; stroke-width:0px;"/><path d="M985.23,159.44c.54.63.35,1.39.35,2.1,0,11.98.01,23.97,0,35.95,0,.7.25,1.47-.39,2.06-.05-.09-.04-.16.05-.22.02-13.17.03-26.34.05-39.51-.1-.12-.12-.24-.05-.38Z" style="fill:#bf113e; stroke-width:0px;"/><path d="M985.21,398.7c.43.57.33,1.23.33,1.87,0,12.13,0,24.26,0,36.39,0,.63.12,1.3-.32,1.87-.16,0-.32-.01-.49-.02l.05-.18c0-13.25,0-26.49,0-39.74l-.05-.18c.16,0,.32,0,.48-.01Z" style="fill:#bf113e; stroke-width:0px;"/><path d="M985.19,239.28c.54.42.39,1.03.39,1.57,0,12.31,0,24.62,0,36.93,0,.38-.16.77-.25,1.15,0,0-.15-.12-.15-.12.02-13.11.05-26.22.07-39.34l-.05-.2Z" style="fill:#bf113e; stroke-width:0px;"/><path d="M984.78,318.72c.12-.11.23-.23.35-.34-.12.11-.23.23-.35.34Z" style="fill:#fdfdfd; stroke-width:0px;"/><path d="M985.33,278.94c0,.16-.04.31-.12.45-.16,0-.32,0-.48-.01l.07-.21c.12-.12.25-.24.37-.36l.15.12Z" style="fill:#bf113e; stroke-width:0px;"/><path d="M985.21,398.7c-.16,0-.32,0-.48.01.14-.13.27-.26.41-.39.04.12.06.25.08.37Z" style="fill:#fdfdfd; stroke-width:0px;"/><path d="M984.73,279.38c.16,0,.32,0,.48.01-.01.14-.04.27-.07.4-.14-.14-.27-.27-.41-.41Z" style="fill:#fdfdfd; stroke-width:0px;"/><path d="M984.72,438.82c.16,0,.32.01.49.02-.02.12-.04.25-.08.37-.14-.13-.27-.26-.41-.38Z" style="fill:#fdfdfd; stroke-width:0px;"/><path d="M984.75,478.17c.13-.13.25-.26.38-.38-.13.13-.25.26-.38.38Z" style="fill:#fdfdfd; stroke-width:0px;"/><path d="M985.13,359.74c-.12-.12-.25-.25-.37-.37.12.12.24.25.37.37Z" style="fill:#fdfdfd; stroke-width:0px;"/><path d="M984.74,39.92c-.81.03-1.62.08-2.43.08-109.09,0-218.18,0-327.26,0-.81,0-1.62-.05-2.43-.07-.24-1.56,1.69-1.68,1.93-2.87.78-3.89,3.4-6.88,5.12-10.29,1.98-3.9,3.58-7.97,5.48-11.9.79-1.62,1.66-3.31,2.15-5.14.43-1.6.99-3.25,2.71-4.09.4-.2.96-.71.93-1.05-.25-3.72,2.62-3.04,4.58-3.06,9.67-.11,19.35.14,29.01-.09,39.64-.93,79.28-.08,118.92-.58,7.45-.09,14.92-.33,22.37-.33,45.23-.05,90.46-.03,135.69-.03q3.21,0,3.22,3.11c0,12.1,0,24.21,0,36.31Z" style="fill:#b50d38; stroke-width:0px;"/><path d="M402.39,319.25c.84.98,1.98.54,2.98.54,32.35.03,64.69.02,97.04.02,3.35,0,2.94-.14,1.87,2.91-1.9,5.44-5.09,10.22-7.25,15.53-1.93,4.74-4.39,9.28-6.77,13.82-.72,1.37-1.48,2.71-1.92,4.18-.51,1.7-1.49,2.11-3.2,2.11-17.07-.07-34.14-.04-51.2-.04-15.77,0-31.53,0-47.3.02-.93,0-1.97-.38-2.76.49-.89.04-1.78.11-2.67.11-125.51,0-251.02,0-376.54,0-.89,0-1.78-.07-2.67-.11-.31-.51-.64-.51-.97-.02.1.05.13.13.07.23-.18-.1-.35-.2-.53-.3,0-13.11,0-26.23,0-39.34.16-.11.32-.23.48-.34,0,0,.07.12.07.12,0,0-.08.12-.08.12.34.54.66.51.97-.03.97-.04,1.94-.12,2.91-.12,131.52,0,263.04-.01,394.56,0,.97,0,1.94.08,2.91.12Z" style="fill:#bf113e; stroke-width:0px;"/><path d="M1.05,438.81c-.15-.06-.3-.12-.45-.18,0-13.23,0-26.47,0-39.7.15-.06.3-.13.46-.19.97.03,1.95.08,2.92.08,119.15,0,238.3,0,357.46,0,1.14,0,2.27.06,3.41.09.03,1.48,1.11,1.29,2.08,1.34,2.34.14,4.7-.38,7.01.35.7.22,1.49.34,1.59,1.26.08.75-.44,1.26-1,1.54-1,.5-1.28,1.3-1.48,2.32-.64,3.19-1.8,6.41-3.71,8.85-2.89,3.68-4.03,8.12-6.43,11.94-2.32,3.69-2.63,8.74-7.3,10.85-.53.24-.45.81-.47,1.29-1.05.03-2.11.09-3.16.09-115.99,0-231.98,0-347.97,0-.97,0-1.95.05-2.92.08Z" style="fill:#bf113e; stroke-width:0px;"/><path d="M1.05,398.73c-.15.06-.3.13-.46.19,0-13.4-.02-26.8-.03-40.2.18.1.35.2.53.3-.02,13.24-.03,26.47-.05,39.71Z" style="fill:#dcdcdc; stroke-width:0px;"/><path d="M2.01,319.26c-.31.53-.63.57-.97.03.32,0,.65-.02.97-.03Z" style="fill:#b50d38; stroke-width:0px;"/><path d="M985.24,80.03c0,12.26,0,24.52-.02,36.78,0,.95.24,1.96-.4,2.83-.97.05-1.94.14-2.91.14-106.52,0-213.04,0-319.56,0-.97,0-1.94-.09-2.91-.13-.64-3.54,1.24-6.28,2.81-9.16.96-1.77,1.91-3.62,2.37-5.55.53-2.19,1.74-3.99,2.78-5.87,1.9-3.43,3.77-6.85,4.9-10.63.14-.45.36-.96.7-1.26,2.21-1.91,2.64-4.53,3.01-7.2.89-.03,1.78-.08,2.67-.08,101.21,0,202.42,0,303.63,0,.97,0,1.94.08,2.91.12Z" style="fill:#b50d38; stroke-width:0px;"/><path d="M985.17,278.82c-.12.12-.25.24-.37.36-.89.03-1.78.1-2.67.1-120.33,0-240.66,0-360.98,0-.89,0-1.78-.06-2.67-.09.52-2.14,2.24-2.26,3.95-2.26,9.1-.02,18.19-.06,27.29.02,2.07.02,3.21-.47,4.3-2.53,2.32-4.39,3.58-9.32,6.29-13.4,1.54-2.33,2.72-4.7,3.59-7.24,1-2.89,3.43-5.13,3.71-8.32.03-.31.14-.64.3-.92q1.55-2.72-1.57-2.72c-8.69,0-17.38,0-26.07,0-2.1,0-3.97-.48-5.21-2.36,1.05-.03,2.11-.07,3.16-.07,114.7,0,229.41-.01,344.11,0,.97,0,1.94.07,2.91.11-.02,13.11-.05,26.22-.07,39.34Z" style="fill:#b50d38; stroke-width:0px;"/><path d="M985.28,159.82c-.02,13.17-.03,26.34-.05,39.51-.81.04-1.62.13-2.42.13-107.96,0-215.91,0-323.87,0-.81,0-1.62-.05-2.43-.08-.06-1.4.39-2.47,1.25-3.72,1.17-1.7,1.98-3.83,2.59-5.76,1.38-4.31,4.44-7.66,6.01-11.81,1.63-4.31,4.16-8.16,6.41-12.15,1.1-1.94,1.58-4.02,1.78-6.21.97-.05,1.94-.14,2.91-.14,101.56,0,203.13-.01,304.69,0,1.04,0,2.11-.22,3.13.23Z" style="fill:#b50d38; stroke-width:0px;"/><path d="M355.11,438.64c.02-.48-.05-1.05.47-1.29,4.67-2.11,4.98-7.16,7.3-10.85,2.4-3.82,3.54-8.26,6.43-11.94,1.91-2.43,3.07-5.66,3.71-8.85.21-1.02.48-1.82,1.48-2.32.57-.28,1.08-.8,1-1.54-.1-.92-.88-1.03-1.59-1.26-2.31-.73-4.68-.21-7.01-.35-.97-.06-2.05.14-2.08-1.34.97-.03,1.94-.08,2.92-.08,63.58,0,127.16,0,190.74-.01.97,0,1.94-.05,2.92-.08,1.05.03,2.11.09,3.16.09,139.02,0,278.03,0,417.05,0,1.05,0,2.11.06,3.16.08,0,13.25,0,26.49,0,39.74-1.05.03-2.11.08-3.16.08-112.84,0-225.68,0-338.52,0-1.05,0-2.11.06-3.16.09-1.05-.03-2.11-.08-3.16-.08-92.99,0-185.99,0-278.98-.01-.89,0-1.78-.05-2.67-.08Z" style="fill:#b50d38; stroke-width:0px;"/><path d="M561.4,398.72c-.97.03-1.94.08-2.92.08-63.58,0-127.16,0-190.74.01-.97,0-1.94.06-2.92.08-1.14-.03-2.27-.09-3.41-.09-119.15,0-238.3,0-357.46,0-.97,0-1.95-.05-2.92-.08.02-13.24.03-26.47.05-39.71.06-.1.04-.18-.07-.23.32,0,.65.01.97.02.89.04,1.78.11,2.67.11,125.51,0,251.02,0,376.54,0,.89,0,1.78-.07,2.67-.11,1.05.03,2.11.1,3.16.1,62.76,0,125.52,0,188.28.01,1.05,0,2.1.07,3.16.1-2.07,2.44-3.47,5.28-4.79,8.16-1.14,2.48-2.53,4.87-3.47,7.42-1.09,2.97-2.74,5.66-4.48,8.19-1.86,2.71-2.42,5.74-3.33,8.71-.19.61-.13,1.28-.66,1.76-1.88,1.7-2.54,3.47-.35,5.43Z" style="fill:#fdfdfd; stroke-width:0px;"/><path d="M2,358.82c-.32,0-.65-.01-.97-.02.34-.49.66-.49.97.02Z" style="fill:#b50d38; stroke-width:0px;"/></svg>