<?xml version="1.0" encoding="UTF-8"?><svg id="Camada_1" xmlns="http://www.w3.org/2000/svg" viewBox="0 0 1189.47 610.81"><path d="M1189.47,607.34c-412.5,0-776.97.31-1189.47.31C0,388.35.29,219.3.29,0,412.78,0,776.62,0,1189.12,0c0,219.3.34,388.04.35,607.34ZM1189.29,281.77H475.94v-47.15h713.29v-46.69H475.92v-47.37h713.25v-46.78H475.86v-47.07h713.26V0H.29v328.47h1189v-46.7ZM.23,516.47h1188.9v-46.49H.23v46.49ZM1189.28,564.1H.05c0,.97,0,1.72,0,2.47,0,13.69.07,27.39-.05,41.08-.02,2.47.82,3.05,3.19,3.04,9.52-.06,19.04.08,28.56.08,321.57.01,643.14.02,964.71.02,63.12,0,126.23-.04,189.35.02,2.77,0,3.69-.63,3.66-3.47-.15-13.4-.05-26.81-.05-40.22,0-.94-.08-1.88-.13-3.02ZM1189.24,376.16H.21v46.28h1189.04v-46.28Z" style="fill:#fff; stroke-width:0px;"/><path d="M1189.29,281.77v46.7H.29V0h1188.83v46.7H475.86v47.07h713.31v46.78H475.92v47.37h713.3v46.69H475.94v47.15h713.35ZM79.04,114.79c-.06.28-.12.55-.18.83,2.04,1.46,4.08,2.92,6.13,4.37q4.31,3.04,2.69,7.88c-.83,2.49-1.61,4.99-2.67,8.3,3.67-2.59,6.66-4.58,9.5-6.74,1.4-1.07,2.42-1.08,3.84,0,2.86,2.19,5.88,4.2,8.83,6.28.14-.13.29-.27.43-.4-1.32-4.06-2.64-8.11-3.99-12.26,3.57-2.55,7.04-5.04,10.51-7.52-.11-.24-.23-.49-.34-.73-3.4,0-6.82-.13-10.21.05-2.17.11-3.09-.67-3.65-2.67-.89-3.21-2.1-6.34-3.18-9.51-1.76,3.34-2.97,6.55-3.9,9.84-.52,1.84-1.49,2.38-3.34,2.32-3.49-.12-6.98-.03-10.47-.03ZM34.17,102.67l-.69.08c-1.04,3.07-2.27,6.1-3.04,9.23-.58,2.37-1.82,2.97-4.13,2.85-3.32-.17-6.66-.04-9.99-.04,2.69,2.77,5.46,4.87,8.36,6.78,1.56,1.02,1.96,2.03,1.29,3.79-1.24,3.27-2.23,6.62-3.33,9.94,2.89-1.32,5.38-2.84,7.55-4.7,2.51-2.17,4.58-2.49,7.2-.06,2.11,1.96,4.72,3.42,7.11,5.1-.61-3.79-1.57-7.18-2.85-10.45-.66-1.7-.21-2.59,1.2-3.53,2.95-1.97,5.81-4.08,8.71-6.13-.08-.25-.15-.49-.23-.74-3.57,0-7.15-.07-10.72.03-1.73.05-2.63-.46-3.12-2.19-.96-3.36-2.2-6.65-3.33-9.96ZM176.73,115.55c-.09-.25-.17-.49-.26-.74-3.31,0-6.62-.14-9.92.05-2.34.13-3.54-.53-4.14-2.86-.82-3.19-2.03-6.28-3.08-9.42-1.62,3.01-2.81,6.02-3.59,9.13-.64,2.54-1.96,3.33-4.56,3.15-3.21-.23-6.44-.05-9.67-.05-.04.26-.08.52-.12.78,2.84,2.02,5.62,4.13,8.53,6.03,1.6,1.04,1.88,2.06,1.21,3.81-1.24,3.23-2.19,6.56-3.27,9.85,3.42-1.71,6.33-3.63,9.08-5.75,1.48-1.15,2.57-1.21,4.08-.05,2.81,2.17,5.78,4.14,8.69,6.19-.57-3.58-1.48-6.87-2.73-10.04-.79-2-.32-3.12,1.44-4.25,2.84-1.82,5.54-3.87,8.29-5.83ZM22.64,222.04c.16.11.33.21.49.32,2.91-2.04,5.89-3.99,8.7-6.16,1.53-1.18,2.61-1.08,4.08.05,2.79,2.14,5.73,4.09,8.61,6.12-.65-3.85-1.67-7.32-2.92-10.71-.53-1.44-.29-2.22.99-3.08,3.05-2.04,6-4.22,8.99-6.34-3.53-.64-6.93-.76-10.31-.59-2.21.11-3.35-.5-3.93-2.73-.85-3.24-2.13-6.38-3.22-9.56-1.65,3.17-2.85,6.21-3.68,9.33-.59,2.25-1.65,3.12-4.07,2.97-3.35-.21-6.73-.05-10.1-.05,2.71,2.68,5.5,4.77,8.4,6.68,1.55,1.02,1.96,2.03,1.29,3.8-1.24,3.27-2.23,6.64-3.32,9.97ZM221.59,128.17c3.62,2.5,7.14,4.93,10.66,7.36-.55-3.56-1.45-6.76-2.66-9.84-.77-1.96-.43-3.11,1.38-4.26,2.88-1.84,5.6-3.93,8.38-5.91-.1-.23-.2-.47-.29-.7-3.39,0-6.79-.11-10.18.04-2.09.09-3.19-.51-3.75-2.59-.9-3.29-2.13-6.49-3.48-10.52-.94,2.78-1.62,4.75-2.27,6.72q-2.1,6.34-8.84,6.35h-6.42l-.12.78c2.52,1.79,4.93,3.76,7.59,5.32,2.51,1.46,2.9,3.08,1.81,5.63-1.2,2.82-1.99,5.81-2.96,8.72.2.1.41.2.61.3,3.48-2.44,6.96-4.89,10.53-7.39ZM176.76,202.25c-.07-.22-.14-.43-.21-.65-3.59,0-7.18-.07-10.76.03-1.76.05-2.62-.54-3.12-2.22-.99-3.38-2.21-6.69-3.33-10.04-1.73,3.29-2.98,6.49-3.88,9.79-.55,1.98-1.58,2.55-3.55,2.47-3.48-.13-6.96-.04-10.44-.04,2.37,2.44,4.8,4.38,7.44,5.97,2.35,1.42,3.15,2.86,1.93,5.55-1.28,2.83-2.01,5.89-2.98,8.86,3.36-1.65,6.25-3.56,8.97-5.68,1.57-1.22,2.73-1.3,4.34-.02,2.74,2.16,5.69,4.08,8.55,6.1-.63-3.76-1.64-7.13-2.87-10.43-.62-1.66-.23-2.63,1.21-3.59,2.95-1.96,5.8-4.06,8.69-6.1ZM89.24,209.76c-1.37,4.23-2.68,8.28-4.25,13.12,3.55-2.5,6.49-4.39,9.2-6.54,1.72-1.37,2.95-1.2,4.58.07,2.74,2.13,5.65,4.05,9.12,6.51-1.22-3.76-1.97-6.92-3.27-9.85-1.17-2.65-.46-4.08,1.93-5.48,2.65-1.56,5.06-3.52,7.61-5.34-.33-.3-.47-.52-.6-.53-2.45-.05-4.89-.1-7.34-.11q-5.31-.01-6.94-4.85c-.83-2.44-1.7-4.86-2.55-7.3-1.68,3.13-2.88,6.15-3.71,9.25-.59,2.25-1.65,3.1-4.07,2.94-3.32-.21-6.67-.05-10-.05-.03.24-.07.48-.1.73,3.45,2.47,6.91,4.94,10.4,7.43ZM44.48,309.11l.52-.39c-1.04-3.14-1.94-6.33-3.18-9.4-.89-2.19-.35-3.42,1.64-4.65,2.81-1.73,5.41-3.79,8.1-5.71-.11-.24-.23-.47-.34-.71-3.49,0-6.99-.08-10.48.03-1.85.06-2.8-.46-3.31-2.32-.93-3.34-2.19-6.59-3.31-9.88-1.71,3.33-2.87,6.56-3.84,9.85-.51,1.73-1.38,2.45-3.31,2.36-3.55-.15-7.12-.04-10.67-.04l-.19.74c2.67,1.89,5.24,3.92,8.02,5.63,2.13,1.31,2.54,2.67,1.61,4.94-1.22,2.99-2.05,6.14-3.05,9.22,3.42-1.75,6.33-3.68,9.08-5.8,1.47-1.13,2.55-1.22,4.07-.03,2.78,2.17,5.75,4.12,8.64,6.17ZM329.49,114.82c-.1.26-.2.51-.3.77,2.91,2.07,5.79,4.19,8.76,6.17,1.35.9,1.71,1.75,1.12,3.31-1.26,3.36-2.28,6.8-3.4,10.21,3.43-1.74,6.42-3.71,9.24-5.88,1.42-1.1,2.43-1.04,3.83.02,2.87,2.17,5.88,4.17,8.84,6.24-.65-3.65-1.63-6.93-2.86-10.13-.69-1.79-.52-2.87,1.27-3.98,2.98-1.86,5.74-4.04,8.59-6.08-3.62-.64-6.93-.77-10.22-.6-2.32.12-3.53-.49-4.11-2.86-.78-3.16-2.04-6.2-3.09-9.29-1.56,2.71-2.73,5.34-3.32,8.09-.68,3.18-2.18,4.47-5.6,4.09-2.88-.33-5.82-.07-8.74-.07ZM420.07,135.61c.16-.1.33-.21.49-.31-1.02-3.13-1.87-6.34-3.12-9.38-.91-2.21-.41-3.46,1.58-4.71,2.8-1.76,5.42-3.79,8.12-5.71-.11-.23-.22-.46-.33-.69-3.5,0-7-.09-10.49.03-1.86.06-2.83-.49-3.35-2.32-.95-3.36-2.16-6.65-3.27-9.97-1.6,3.02-2.79,6.04-3.57,9.15-.63,2.53-1.94,3.34-4.54,3.15-3.21-.23-6.45-.05-9.67-.05,2.79,2.84,5.66,4.97,8.63,6.96,1.36.91,1.66,1.78,1.08,3.34-1.25,3.34-2.25,6.77-3.35,10.17,3.45-1.77,6.44-3.73,9.25-5.92,1.45-1.13,2.45-.97,3.82.06,2.85,2.14,5.81,4.13,8.72,6.19ZM79.07,288.26c-.08.27-.15.54-.23.82,2.91,2.07,5.78,4.21,8.76,6.18,1.4.92,1.61,1.83,1.06,3.33-1.24,3.37-2.29,6.8-3.42,10.21,3.34-1.69,6.25-3.61,8.99-5.73,1.56-1.21,2.71-1.33,4.33-.04,2.76,2.18,5.73,4.12,9.34,6.67-1.61-4.94-2.93-8.99-4.29-13.16,3.6-2.58,7.13-5.11,10.66-7.64-3.92-.62-7.44-.72-10.95-.58-1.89.08-2.79-.53-3.3-2.32-.95-3.3-2.15-6.53-3.25-9.8-1.77,3.31-2.98,6.52-3.91,9.8-.52,1.84-1.46,2.38-3.33,2.32-3.48-.13-6.97-.04-10.46-.04ZM273.02,135.31c.17.11.33.22.5.33,2.67-1.88,5.5-3.59,7.97-5.69,2.06-1.75,3.55-1.56,5.52.05,2.49,2.03,5.23,3.77,7.86,5.64-.61-3.78-1.59-7.16-2.86-10.43-.65-1.68-.23-2.58,1.2-3.53,2.96-1.96,5.81-4.08,8.7-6.14l-.23-.73c-3.58,0-7.16-.08-10.74.03-1.78.06-2.59-.57-3.08-2.24-.98-3.35-2.2-6.62-3.33-9.93-1.74,3.33-2.93,6.62-3.91,9.96-.49,1.67-1.36,2.26-3.12,2.21-3.58-.11-7.17-.03-10.75-.03-.09.23-.18.46-.28.69,2.95,2.1,5.85,4.28,8.89,6.26,1.42.92,1.65,1.84,1.11,3.33-1.22,3.38-2.31,6.81-3.45,10.22ZM169.72,309.13c.15-.16.3-.32.45-.49-1.03-3.17-1.93-6.39-3.15-9.49-.77-1.96-.45-3.11,1.38-4.27,2.89-1.84,5.6-3.95,8.38-5.95-3.93-.66-7.63-.53-11.3-.75-.93-.05-2.25-1.01-2.59-1.86-1.35-3.35-2.38-6.81-3.53-10.24-1.64,3.07-2.83,6.17-3.69,9.36-.61,2.27-1.77,3.03-4.15,2.88-3.32-.21-6.66-.05-10-.05-.04.26-.09.52-.13.78,2.92,2.07,5.8,4.19,8.77,6.19,1.34.9,1.68,1.78,1.09,3.35-1.25,3.34-2.25,6.77-3.35,10.16,3.39-1.69,6.31-3.58,9.02-5.74,1.64-1.3,2.78-1.12,4.32.07,2.74,2.12,5.65,4.04,8.49,6.05ZM221.94,189.39c-.2.01-.41.03-.61.04-.78,2.25-1.57,4.5-2.33,6.76q-1.82,5.41-7.47,5.41c-2.48,0-4.96,0-7.45,0,2.71,2.69,5.5,4.78,8.41,6.69,1.57,1.03,1.94,2.03,1.25,3.81-1.25,3.25-2.21,6.6-3.28,9.92,2.45-1.03,4.35-2.36,6.23-3.71q4.93-3.53,9.75-.08c1.9,1.35,3.81,2.68,5.72,4.02-.36-3.29-1-6.21-2.25-8.86-1.37-2.9-.53-4.48,2.09-6,2.58-1.49,4.91-3.41,7.34-5.13-3.74-.65-7.33-.72-10.91-.62-1.74.05-2.64-.48-3.13-2.21-.97-3.38-2.23-6.69-3.36-10.02ZM364.38,202.34c-.05-.24-.1-.49-.15-.73-3.5,0-7-.1-10.5.04-1.9.08-2.8-.6-3.32-2.35-.98-3.31-2.15-6.56-3.24-9.83-1.75,3.17-3.02,6.26-3.83,9.45-.57,2.26-1.75,2.82-3.93,2.73-3.36-.15-6.74-.04-10.1-.04,2.71,2.68,5.47,4.79,8.39,6.67,1.57,1.02,1.98,1.98,1.3,3.75-1.26,3.27-2.24,6.63-3.34,9.96,3.23-1.59,6.07-3.41,8.69-5.49,1.73-1.37,3.02-1.53,4.82-.09,2.69,2.15,5.62,4.01,9.09,6.44-1.57-4.84-2.91-8.97-4.25-13.1,3.61-2.57,7-4.99,10.38-7.4ZM294.83,222.29c.18-.11.36-.23.53-.34-1.12-3.44-2.14-6.91-3.4-10.3-.54-1.45-.26-2.22,1-3.07,3.03-2.04,5.97-4.22,8.95-6.35-2.96-.63-5.77-.6-8.57-.63-5.78-.06-4.39.59-6.13-4.39-.91-2.6-1.84-5.19-2.96-8.34-.43.99-.57,1.24-.66,1.51-.72,2.08-1.45,4.16-2.15,6.24q-1.68,4.99-7.16,4.99c-2.54,0-5.09,0-7.63,0,2.78,2.71,5.56,4.82,8.49,6.7,1.63,1.04,1.84,2.1,1.21,3.8-1.22,3.28-2.24,6.64-3.41,10.14.59-.1.81-.08.94-.17,2.23-1.56,4.44-3.15,6.69-4.69,4.37-2.99,2.77-3.06,7.37.06,2.32,1.57,4.59,3.23,6.88,4.85ZM419.99,309.01c.19-.11.37-.22.56-.34-1.1-3.33-2.1-6.69-3.33-9.97-.63-1.67-.22-2.63,1.22-3.59,2.95-1.98,5.8-4.09,8.69-6.15-.07-.23-.14-.46-.21-.69-3.08,0-6.17-.19-9.23.06-2.91.24-4.46-.56-5.1-3.54-.63-2.96-1.89-5.79-2.88-8.68-1.6,3.02-2.75,5.96-3.54,8.99-.63,2.42-1.77,3.45-4.46,3.24-3.24-.26-6.52-.06-9.79-.06,2.43,2.56,4.89,4.61,7.63,6.2,2.47,1.42,2.73,2.96,1.72,5.39-1.18,2.84-1.96,5.83-2.92,8.76l.59.31c3.48-2.43,6.95-4.86,10.49-7.34,3.61,2.53,7.09,4.97,10.58,7.41ZM329.45,288.27l-.24.8c2.92,2.07,5.79,4.19,8.77,6.17,1.37.91,1.65,1.8,1.08,3.33-1.25,3.35-2.27,6.78-3.39,10.17,3.29-1.63,6.14-3.47,8.77-5.58,1.78-1.44,3.07-1.32,4.81.06,2.66,2.1,5.54,3.94,9,6.36-1.29-3.96-2.11-7.11-3.36-10.09-.95-2.27-.52-3.56,1.6-4.86,2.82-1.72,5.41-3.79,8.1-5.72-3.75-.64-7.17-.75-10.57-.6-2.09.09-3.15-.52-3.71-2.58-.87-3.22-2.09-6.36-3.17-9.53-1.79,3.37-2.98,6.68-3.98,10.04-.47,1.57-1.3,2.1-2.93,2.06-3.59-.1-7.18-.03-10.78-.03ZM409.76,189.48c-.21-.04-.42-.08-.63-.12-1,2.97-2.17,5.9-2.94,8.92-.65,2.55-1.84,3.64-4.67,3.4-3.17-.28-6.39-.06-9.59-.06,2.63,2.64,5.37,4.76,8.29,6.61,1.75,1.11,2,2.19,1.29,4.02-1.21,3.15-2.14,6.4-3.19,9.6,3.39-1.61,6.22-3.48,8.88-5.55,1.56-1.21,2.71-1.33,4.34-.05,2.74,2.15,5.7,4.05,8.56,6.05-.56-3.48-1.43-6.61-2.63-9.6-.85-2.13-.59-3.45,1.5-4.73,2.83-1.72,5.42-3.81,8.12-5.73-3.87-.62-7.47-.68-11.07-.59-1.65.04-2.44-.54-2.91-2.1-1.01-3.38-2.22-6.71-3.35-10.06ZM75.78,92.24c.18-.11.37-.23.55-.34-.99-3.04-1.8-6.16-3.04-9.1-1-2.37-.6-3.78,1.68-5.14,2.75-1.63,5.25-3.65,7.86-5.5-.12-.24-.24-.48-.36-.71-3.21,0-6.42-.15-9.62.05-2.45.15-3.72-.56-4.34-2.99-.8-3.17-2.03-6.25-3.07-9.36-1.72,3.29-2.9,6.43-3.78,9.64-.59,2.15-1.71,2.84-3.95,2.71-3.33-.19-6.68-.05-10.02-.05-.05.26-.09.52-.14.77,2.75,1.96,5.44,4,8.27,5.84,1.64,1.07,2.12,2.1,1.36,4.01-1.26,3.21-2.18,6.56-3.25,9.84,3.48-1.75,6.46-3.74,9.3-5.91,1.42-1.09,2.45-1.01,3.83.04,2.83,2.15,5.79,4.14,8.69,6.2ZM395.66,72.19c-.07-.25-.15-.49-.22-.74-2.78,0-5.57.04-8.35,0-5.35-.09-4.17.88-5.96-4.23-.92-2.61-1.77-5.24-2.65-7.86-1.84,3.33-3.03,6.46-3.92,9.67-.53,1.92-1.47,2.58-3.5,2.48-3.45-.17-6.91-.05-10.37-.05,2.74,2.8,5.57,4.96,8.56,6.89,1.43.93,1.64,1.8,1.09,3.3-1.23,3.38-2.29,6.83-3.42,10.25,3.32-1.64,6.23-3.52,8.94-5.66,1.69-1.34,2.9-1.27,4.56.04,2.67,2.1,5.55,3.95,8.34,5.91-.56-3.7-1.53-6.99-2.75-10.19-.66-1.74-.38-2.77,1.23-3.82,2.88-1.88,5.62-3.98,8.41-5.98ZM298.14,71.44l-.23.75c2.81,1.99,5.57,4.06,8.45,5.95,1.55,1.01,1.98,1.99,1.29,3.78-1.26,3.27-2.23,6.65-3.32,9.98,2.92-1.37,5.56-2.87,7.74-4.85,2.54-2.3,4.52-2.09,6.99.05,2.2,1.9,4.75,3.41,7.15,5.09-.52-3.5-1.33-6.65-2.6-9.62-1-2.35-.32-3.61,1.71-4.88,2.71-1.7,5.25-3.68,7.86-5.53-.12-.24-.24-.47-.36-.71-3.6,0-7.21.13-10.8-.09-.94-.06-2.18-1.01-2.63-1.87-.88-1.69-1.27-3.61-1.9-5.42-.56-1.62-1.17-3.22-2.05-5.61-1.36,4.09-2.55,7.24-3.42,10.46-.56,2.09-1.67,2.67-3.76,2.57-3.36-.16-6.74-.04-10.11-.04ZM423.26,158.29c-.05.21-.09.42-.14.63,1.89,1.35,3.79,2.7,5.68,4.04q4.78,3.39,2.98,8.8c-.75,2.28-1.45,4.58-2.17,6.87.18.09.36.19.53.28,3.48-2.45,6.96-4.89,10.56-7.42,3.6,2.51,7.15,4.99,11.44,7.99-1.19-3.65-1.87-6.54-3.06-9.21-1.27-2.85-.83-4.65,2.01-6.27,2.6-1.48,4.9-3.47,7.34-5.23-3.87-.57-7.4-.66-10.93-.53-1.77.07-2.62-.5-3.12-2.17-.99-3.37-2.2-6.69-3.32-10.02-.22,0-.44,0-.66,0-1.39,4.03-2.78,8.06-4.23,12.26h-12.93ZM423.36,71.45c-.06.26-.11.52-.17.78,2.52,1.8,4.92,3.79,7.59,5.34,2.42,1.4,2.82,2.87,1.74,5.36-1.24,2.87-2,5.95-2.97,8.93,3.49-1.74,6.41-3.66,9.16-5.8,1.53-1.19,2.6-1.07,4.07.06,2.78,2.13,5.73,4.07,8.6,6.09-.47-3.3-1.17-6.31-2.43-9.06-1.28-2.77-.51-4.31,1.99-5.78,2.6-1.53,4.95-3.46,7.42-5.21-3.74-.68-7.15-.8-10.55-.64-2.01.1-2.99-.51-3.53-2.46-.92-3.26-2.14-6.45-3.23-9.67-1.83,3.36-3.03,6.67-4.05,10.03-.46,1.53-1.2,2.14-2.89,2.08-3.58-.13-7.16-.04-10.75-.04ZM266.78,288.27c-.08.25-.15.5-.23.75,2.59,1.84,5.1,3.83,7.81,5.49,2.18,1.32,2.85,2.61,1.77,5.08-1.29,2.95-2.05,6.13-3.04,9.2,3.39-1.76,6.31-3.69,9.06-5.83,1.48-1.15,2.57-1.18,4.07-.03,2.8,2.15,5.77,4.1,9.41,6.65-1.21-3.74-1.86-6.75-3.15-9.46-1.39-2.91-.5-4.45,2.07-5.97,2.58-1.52,4.92-3.44,7.37-5.18l-.36-.71c-3.11,0-6.24-.21-9.32.06-2.91.26-4.19-.83-4.85-3.5-.73-2.95-1.87-5.81-2.83-8.71-1.77,3.32-2.93,6.46-3.83,9.67-.53,1.87-1.4,2.63-3.46,2.53-3.48-.17-6.98-.05-10.48-.05ZM65.16,171.49c3.75,2.64,7.19,5.08,10.64,7.51-.55-3.65-1.5-6.94-2.73-10.12-.71-1.84-.46-2.92,1.29-4.03,2.97-1.88,5.76-4.04,8.63-6.09l-.31-.58c-1.66,0-3.31,0-4.97,0q-8.13,0-10.63-7.44c-.54-1.61-1.17-3.2-2.04-5.59-1.4,4.2-2.58,7.44-3.53,10.75-.51,1.78-1.39,2.41-3.31,2.33-3.55-.16-7.1-.04-10.66-.04,2.61,2.63,5.29,4.71,8.15,6.5,1.94,1.22,2.23,2.44,1.41,4.49-1.24,3.08-2.11,6.29-3.14,9.45.16.13.33.25.49.38,3.53-2.48,7.07-4.95,10.71-7.51ZM253.28,59.26c-.23,0-.47,0-.7,0-1.05,3.14-2.21,6.25-3.1,9.43-.58,2.07-1.56,2.95-3.87,2.81-3.36-.21-6.74-.05-10.11-.05-.08.24-.15.47-.23.71,2.41,1.72,4.72,3.6,7.27,5.1,2.59,1.52,3.48,3.1,2.1,6.02-1.28,2.72-1.94,5.72-2.87,8.59,3.39-1.65,6.31-3.56,9.03-5.71,1.61-1.28,2.76-1.18,4.33.04,2.74,2.12,5.64,4.04,8.48,6.04-.4-3.19-1.11-6.15-2.34-8.89-1.24-2.77-.78-4.49,1.96-6.03,2.61-1.47,4.94-3.42,7.4-5.16-.13-.23-.26-.47-.39-.7-3.51,0-7.03-.09-10.54.04-1.79.07-2.62-.57-3.11-2.22-1-3.36-2.19-6.67-3.31-10ZM128.09,59.32l-.74.03c-.72,2.15-1.43,4.31-2.15,6.46q-1.88,5.64-7.84,5.64c-2.36,0-4.73,0-7.09,0-.05.25-.1.51-.14.76,2.91,2.07,5.75,4.23,8.74,6.17,1.45.94,1.6,1.85,1.07,3.32-1.22,3.38-2.3,6.81-3.44,10.22,3.42-1.68,6.38-3.65,9.19-5.81,1.49-1.14,2.58-1.17,4.08,0,2.78,2.16,5.73,4.11,8.6,6.14-.5-3.59-1.39-6.8-2.63-9.88-.84-2.07-.42-3.27,1.48-4.46,2.81-1.76,5.44-3.79,8.14-5.71-.11-.25-.21-.5-.32-.75-2.51,0-5.01.04-7.52,0-6.48-.13-4.89,1.06-6.98-4.83-.86-2.41-1.64-4.85-2.46-7.28ZM145.44,158.87c-.06-.23-.12-.46-.17-.69-2.52,0-5.04,0-7.55,0q-5.56,0-7.28-5.21c-.78-2.36-1.58-4.71-2.37-7.07-1.85,3.57-3.04,6.91-4.04,10.3-.46,1.56-1.27,2.07-2.93,2.02-3.65-.12-7.3-.04-10.96-.04,2.77,2.71,5.62,4.87,8.6,6.83,1.48.97,1.81,1.91,1.2,3.54-1.24,3.34-2.28,6.76-3.4,10.15l.51.3c3.56-2.49,7.12-4.98,10.72-7.49,3.64,2.55,7.13,5,10.62,7.45-.6-3.83-1.63-7.21-2.84-10.52-.56-1.53-.27-2.42,1.12-3.34,3-1.98,5.87-4.13,8.79-6.22ZM82.76,245.7l-.29-.73c-3.31,0-6.62-.14-9.92.05-2.24.13-3.35-.54-3.93-2.72-.88-3.27-2.11-6.44-3.18-9.66-1.72,3.37-2.91,6.61-3.86,9.9-.54,1.88-1.46,2.59-3.51,2.48-3.44-.19-6.89-.05-10.34-.05,2.35,2.52,4.73,4.51,7.38,6.05,2.54,1.47,2.85,3.1,1.8,5.62-1.19,2.85-2.01,5.85-2.98,8.78,3.5-1.73,6.48-3.72,9.32-5.88,1.4-1.07,2.44-1.07,3.84,0,2.82,2.16,5.78,4.15,8.69,6.21-.52-3.75-1.58-7.17-2.82-10.53-.56-1.51-.3-2.43,1.09-3.35,2.97-1.97,5.83-4.1,8.73-6.16ZM458.33,245.65c-.08-.22-.15-.45-.23-.67-3.18,0-6.38-.18-9.55.06-2.61.2-3.89-.6-4.51-3.14-.75-3.05-1.95-6-2.95-8.99-1.87,3.37-3.06,6.6-4.03,9.88-.49,1.64-1.25,2.31-3.07,2.23-3.55-.14-7.12-.04-10.68-.04,2.64,2.7,5.38,4.82,8.29,6.7,1.6,1.04,1.92,2.03,1.26,3.78-1.24,3.26-2.22,6.61-3.3,9.92,3.39-1.68,6.32-3.57,9.04-5.73,1.62-1.28,2.76-1.17,4.32.05,2.73,2.13,5.64,4.03,8.48,6.02-.5-3.4-1.36-6.52-2.56-9.51-.89-2.21-.67-3.61,1.54-4.94,2.78-1.67,5.32-3.73,7.96-5.63ZM232.18,308.98c.18-.11.36-.21.53-.32-1.04-3.23-1.95-6.51-3.18-9.67-.73-1.88-.36-2.95,1.33-4.03,2.9-1.87,5.66-3.96,8.47-5.96-.08-.24-.16-.48-.24-.72-3.58,0-7.16-.08-10.73.03-1.77.05-2.62-.52-3.12-2.22-.98-3.38-2.21-6.68-3.34-10.01-1.66,3.23-2.82,6.45-3.78,9.72-.54,1.84-1.43,2.64-3.51,2.53-3.48-.18-6.97-.05-10.46-.05,2.23,2.45,4.59,4.42,7.22,5.95,2.57,1.49,3.21,3.1,2.02,5.83-1.22,2.79-1.99,5.78-2.96,8.68.21.09.42.19.63.28,3.49-2.45,6.97-4.89,10.53-7.39,3.59,2.5,7.09,4.93,10.58,7.36ZM172.86,158.27c-.06.21-.12.42-.17.64,2.84,2.02,5.62,4.15,8.56,6.03,1.63,1.05,1.84,2.09,1.21,3.79-1.22,3.26-2.21,6.61-3.3,9.91l.51.31c3.56-2.48,7.11-4.96,10.67-7.44,3.67,2.55,7.19,5,10.7,7.45-.52-3.41-1.28-6.49-2.56-9.35-1.16-2.59-.37-3.97,1.88-5.34,2.68-1.64,5.15-3.6,7.72-5.42-3.83-.66-7.42-.77-11-.62-1.84.08-2.59-.61-3.07-2.23-1.01-3.36-2.2-6.66-3.31-9.98-.23,0-.46,0-.68,0-1.38,4.03-2.76,8.05-4.19,12.25h-12.95ZM201.16,92.37c.09-.78.17-.98.12-1.14-.76-2.38-1.57-4.73-2.3-7.12-1.67-5.47-2.33-3.74,2.45-7.27,2.18-1.61,4.42-3.16,6.64-4.73-3.83-.66-7.26-.8-10.68-.61-2.07.11-2.96-.62-3.5-2.51-.92-3.24-2.11-6.41-3.18-9.6l-.74.08c-1.36,3.95-2.72,7.9-4.16,12.08h-12.86c2.32,2.43,4.76,4.45,7.47,6.04,2.41,1.41,2.8,2.86,1.72,5.35-1.24,2.88-1.98,5.96-2.93,8.96,3.45-1.74,6.36-3.67,9.1-5.81,1.51-1.18,2.62-1.1,4.09.02,2.76,2.11,5.65,4.06,8.77,6.27ZM360.86,244.98c-.11.22-.22.45-.33.67,2.24,1.62,4.48,3.24,6.73,4.85q3.72,2.66,2.27,7.03c-.87,2.62-1.7,5.25-2.55,7.88,3.42-1.74,6.32-3.68,9.08-5.8,1.48-1.14,2.57-1.21,4.08-.03,2.78,2.15,5.73,4.09,8.62,6.12-.48-3.49-1.37-6.6-2.56-9.6-.84-2.11-.73-3.57,1.49-4.73,1.45-.76,2.73-1.86,4.06-2.84,1.32-.97,2.6-1.99,3.9-2.98-3.54-.58-6.77-.74-9.97-.52-2.37.16-3.54-.55-4.13-2.86-.81-3.14-2.02-6.19-3.05-9.28-1.77,3.09-2.93,6.02-3.73,9.04-.61,2.3-1.63,3.31-4.22,3.1-3.21-.26-6.45-.06-9.68-.06ZM388.7,178.93c.18-.17.36-.34.54-.51-1.07-3.26-2.02-6.56-3.27-9.76-.7-1.8-.21-2.76,1.32-3.77,2.93-1.94,5.73-4.06,8.59-6.11-3.51-.59-6.74-.79-9.94-.53-2.64.21-3.87-.64-4.5-3.15-.76-3.05-1.95-6.01-2.95-9l-.8.13c-.79,2.33-1.58,4.67-2.37,7q-1.66,4.96-6.84,4.96c-2.6,0-5.2,0-7.8,0-.08.23-.17.46-.25.68,2.88,2.05,5.71,4.17,8.65,6.11,1.44.95,1.88,1.83,1.24,3.52-1.27,3.34-2.28,6.77-3.4,10.17.17.1.33.2.5.3,3.55-2.49,7.11-4.98,10.71-7.5,3.6,2.54,7.08,4.99,10.55,7.45ZM116.54,265.3c.18.16.35.32.53.47,2.68-1.9,5.45-3.68,7.99-5.73,1.89-1.53,3.34-1.67,5.3-.05,2.52,2.09,5.33,3.85,8.01,5.75-.34-3.13-1.24-5.73-2.06-8.36-1.58-5.05-2.18-3.61,2.23-6.83,2.27-1.65,4.57-3.26,6.85-4.89-.14-.23-.28-.46-.41-.69-2.43,0-4.86.05-7.29,0-6.76-.15-4.99,1.19-7.28-5.22-.84-2.33-1.58-4.7-2.49-7.42-.56.69-.65.76-.67.84-.85,2.54-1.64,5.1-2.55,7.62-1.81,5.02-.41,4.08-5.96,4.17-2.82.05-5.64,0-8.46,0,2.84,2.85,5.71,5,8.69,6.98,1.28.85,1.55,1.67,1.04,3.08-1.23,3.4-2.31,6.85-3.46,10.27ZM263.56,265.73c.18-.16.36-.31.54-.47-1.02-3.08-1.88-6.22-3.1-9.21-.88-2.15-.6-3.43,1.49-4.7,2.82-1.71,5.42-3.79,8.11-5.71-3.38-.67-6.42-.89-9.41-.61-2.99.28-4.43-.68-5.09-3.57-.67-2.96-1.87-5.8-2.84-8.69-1.67,2.95-2.9,5.7-3.49,8.57-.64,3.09-2.21,3.98-5.27,3.69-2.99-.27-6.03-.06-9.05-.06,2.77,2.77,5.57,4.86,8.47,6.79,1.47.97,1.78,1.93,1.15,3.59-1.24,3.28-2.21,6.65-3.3,9.99,3.52-1.72,6.55-3.78,9.46-5.98,1.23-.92,2.14-.92,3.36,0,2.94,2.19,5.97,4.26,8.96,6.38ZM326.16,265.72c.19-.12.37-.23.56-.35-1.1-3.32-2.08-6.67-3.33-9.93-.69-1.78-.25-2.76,1.3-3.78,2.88-1.9,5.62-3.98,8.42-5.99-.07-.23-.14-.46-.21-.7-3.47,0-6.95-.1-10.42.04-1.88.07-2.82-.5-3.34-2.32-.96-3.35-2.18-6.64-3.29-9.95-1.76,3.29-2.94,6.5-3.88,9.77-.54,1.87-1.42,2.62-3.5,2.51-3.45-.19-6.91-.05-10.37-.05,2.41,2.57,4.88,4.59,7.61,6.19,2.32,1.37,2.63,2.81,1.66,5.16-1.22,2.96-2.05,6.06-3.04,9.11,3.44-1.74,6.42-3.74,9.26-5.91,1.4-1.07,2.43-1.09,3.84-.01,2.83,2.16,5.81,4.15,8.73,6.2ZM333.25,158.8c-.1-.2-.19-.41-.29-.61-3.52,0-7.05-.12-10.57.05-1.95.09-2.76-.64-3.27-2.38-.97-3.34-2.17-6.62-3.27-9.92-1.66,2.97-2.88,5.8-3.54,8.74-.64,2.91-2.06,3.85-5.05,3.58-3.09-.29-6.23-.06-9.35-.06,2.79,2.72,5.56,4.85,8.5,6.74,1.63,1.04,1.88,2.07,1.23,3.79-1.23,3.28-2.22,6.64-3.58,10.79,4.29-3,7.84-5.48,11.45-8,3.64,2.53,7.16,4.98,10.69,7.43-.62-3.74-1.64-7.11-2.87-10.4-.62-1.65-.25-2.58,1.22-3.55,2.97-1.95,5.8-4.11,8.69-6.19ZM241.82,178.43c.17.16.34.32.5.48,3.55-2.47,7.1-4.94,10.62-7.4,3.7,2.59,7.2,5.02,10.99,7.67,0-.78.05-.98,0-1.14-.77-2.37-1.61-4.72-2.33-7.1-1.73-5.69-2.41-3.72,2.56-7.45,2.12-1.59,4.31-3.08,6.47-4.62-.09-.23-.18-.45-.26-.68-2.7,0-5.4,0-8.11,0q-4.89,0-6.37-4.42c-.87-2.6-1.74-5.2-2.62-7.79-1.5,2.42-2.31,4.84-3.11,7.26q-1.64,4.96-6.86,4.96c-2.65,0-5.31,0-7.96,0,2.81,2.76,5.68,4.9,8.66,6.88,1.36.91,1.72,1.77,1.14,3.33-1.22,3.3-2.22,6.68-3.32,10.02ZM201.7,266.21c-.66-2.17-1.06-3.5-1.47-4.83-.83-2.65-2.89-5.7-2.15-7.83.78-2.26,4.21-3.66,6.49-5.43,1.13-.88,2.26-1.76,4.04-3.15-4.22,0-7.46-.19-10.67.06-2.59.2-3.63-.81-4.24-3.1-.83-3.08-2-6.08-3.02-9.11-1.81,3.35-3.02,6.65-4.02,10.01-.49,1.67-1.32,2.25-3.1,2.19-3.55-.13-7.11-.04-10.67-.04,2.72,2.78,5.57,4.91,8.54,6.87,1.37.91,1.71,1.74,1.13,3.31-1.26,3.37-2.28,6.83-3.4,10.25,2.86-1.32,5.39-2.78,7.53-4.67,2.54-2.23,4.6-2.46,7.22-.08,2.11,1.93,4.68,3.38,7.8,5.56ZM169.65,48.85c.18-.11.36-.22.55-.32-.92-2.79-1.62-5.67-2.8-8.35-1.26-2.85-.83-4.69,2.04-6.3,2.57-1.44,4.85-3.38,7.25-5.09-3.56-.61-6.95-.77-10.32-.56-2.33.15-3.29-.76-3.87-2.81-.91-3.22-2.09-6.37-3.15-9.55-1.53,2.72-2.44,5.41-3.38,8.09-1.66,4.73-.35,4.16-5.98,4.21-2.82.02-5.65,0-8.47,0,2.75,2.7,5.45,4.79,8.33,6.59,1.77,1.11,1.95,2.23,1.27,4.03-1.21,3.19-2.18,6.46-3.24,9.69,3.11-1.45,5.8-3.14,8.23-5.13,2.03-1.66,3.62-1.96,5.78-.09,2.4,2.08,5.17,3.74,7.78,5.58ZM107.95,49.49c-1.41-4.22-2.46-7.67-3.73-11.05-.61-1.63-.26-2.57,1.2-3.52,2.95-1.94,5.78-4.05,8.66-6.09-3.5-.67-6.79-.81-10.06-.62-2.34.14-3.51-.5-4.1-2.85-.8-3.18-2.07-6.26-3.13-9.38-1.64,2.87-2.81,5.75-3.58,8.74-.68,2.64-1.92,3.77-4.85,3.5-3.11-.29-6.27-.06-9.4-.06,2.79,2.75,5.58,4.84,8.49,6.76,1.46.96,1.8,1.89,1.18,3.54-1.26,3.34-2.29,6.76-3.41,10.15,3.46-1.78,6.44-3.78,9.28-5.94,1.39-1.06,2.41-1.13,3.84-.03,2.89,2.22,5.93,4.25,9.61,6.85ZM239.21,28.87c-.06-.23-.13-.46-.19-.7-3.31,0-6.63-.19-9.91.06-2.49.19-3.46-.79-4.07-2.96-.89-3.2-2.07-6.32-3.4-10.28-1.12,3.32-1.92,5.85-2.84,8.34-2.1,5.74-.44,4.72-6.71,4.82-2.65.04-5.31,0-7.96,0,2.51,2.54,5.02,4.51,7.74,6.18,2.09,1.29,2.65,2.61,1.69,4.92-1.24,3-2.08,6.15-3.09,9.23,3.47-1.73,6.39-3.65,9.13-5.79,1.52-1.19,2.62-1.08,4.09.04,2.79,2.13,5.72,4.08,8.59,6.11-.6-3.75-1.56-7.14-2.82-10.42-.65-1.7-.23-2.59,1.21-3.55,2.91-1.92,5.7-4,8.54-6.01ZM34.16,15.94c-.23.03-.45.06-.68.1-1.04,3.08-2.24,6.11-3.06,9.24-.59,2.24-1.63,3.12-4.08,2.95-3.33-.23-6.68-.06-10.02-.06,2.69,2.65,5.38,4.7,8.23,6.54,1.67,1.08,2.11,2.13,1.38,4.02-1.25,3.24-2.21,6.59-3.29,9.89,3.22-1.64,6.03-3.4,8.56-5.48,1.94-1.59,3.38-1.54,5.29.03,2.46,2.02,5.19,3.72,7.8,5.55.19-.18.39-.37.58-.55-1.06-3.25-1.99-6.55-3.22-9.74-.65-1.69-.24-2.57,1.2-3.53,2.94-1.94,5.78-4.05,8.65-6.09-3.72-.64-7.22-.73-10.7-.6-1.86.07-2.79-.44-3.31-2.31-.94-3.37-2.21-6.65-3.34-9.97ZM294.86,48.85c.17-.12.34-.25.5-.37-1.12-3.44-2.14-6.92-3.4-10.31-.54-1.46-.23-2.22,1.02-3.07,3-2.03,5.91-4.19,8.86-6.3-3.71-.62-7.2-.72-10.69-.59-1.88.07-2.78-.49-3.3-2.33-.95-3.36-2.2-6.63-3.33-9.94-1.65,3.05-2.91,6.03-3.66,9.13-.62,2.58-1.91,3.34-4.5,3.16-3.22-.22-6.47-.05-9.7-.05,2.73,2.65,5.43,4.71,8.29,6.54,1.68,1.07,2.12,2.1,1.39,3.99-1.27,3.26-2.23,6.63-3.58,10.73,3.66-2.58,6.65-4.57,9.49-6.74,1.4-1.07,2.41-1.16,3.84-.06,2.84,2.17,5.83,4.16,8.76,6.22ZM335.67,48.51c.15.12.31.24.46.36,2.89-2.04,5.86-3.99,8.65-6.15,1.52-1.17,2.6-1.1,4.08.04,2.84,2.17,5.83,4.15,9.42,6.67-1.38-4.13-2.43-7.58-3.69-10.96-.61-1.63-.25-2.58,1.2-3.53,2.94-1.94,5.77-4.04,8.64-6.08-3.74-.67-7.24-.78-10.72-.62-1.95.09-2.77-.66-3.29-2.38-.99-3.32-2.17-6.58-3.27-9.87-1.71,3.13-2.98,6.21-3.8,9.4-.6,2.34-1.78,2.99-4.13,2.85-3.26-.2-6.55-.05-9.82-.05,1.99,2.2,4.15,3.76,6.32,5.31q3.96,2.82,2.41,7.47c-.83,2.51-1.65,5.03-2.47,7.55ZM426.99,28.87c-.06-.23-.11-.46-.17-.69-3.31,0-6.64-.19-9.93.06-2.48.19-3.46-.77-4.06-2.96-.88-3.19-2.06-6.3-3.39-10.28-1.28,3.78-2.48,6.7-3.22,9.73-.66,2.69-1.92,3.78-4.85,3.52-3.12-.28-6.28-.06-9.43-.06,2.31,2.38,4.55,4.27,7.06,5.7,2.79,1.58,3.43,3.31,2.08,6.24-1.23,2.67-1.86,5.59-2.75,8.4,2.88-1.37,5.38-2.77,7.41-4.65,2.68-2.49,4.83-2.28,7.45.05,2.09,1.87,4.59,3.3,6.91,4.93-.62-3.74-1.62-7.11-2.85-10.39-.63-1.67-.22-2.62,1.23-3.57,2.9-1.92,5.69-4,8.53-6.01Z" style="fill:#000; stroke-width:0px;"/><path d="M.23,516.47v-46.49h1188.9v46.49H.23Z" style="fill:#000; stroke-width:0px;"/><path d="M1189.28,564.1c.05,1.13.13,2.08.13,3.02,0,13.41-.1,26.81.05,40.22.03,2.84-.88,3.47-3.66,3.47-63.12-.06-126.23-.02-189.35-.02-321.57,0-643.14,0-964.71-.02-9.52,0-19.04-.15-28.56-.08-2.36.02-3.21-.57-3.19-3.04.12-13.69.06-27.39.05-41.08,0-.75,0-1.5,0-2.47h1189.23Z" style="fill:#000; stroke-width:0px;"/><path d="M1189.24,376.16v46.28H.21v-46.28h1189.04Z" style="fill:#000; stroke-width:0px;"/><path d="M79.04,114.79c3.49,0,6.98-.09,10.47.03,1.86.06,2.82-.48,3.34-2.32.93-3.29,2.13-6.51,3.9-9.84,1.08,3.16,2.3,6.29,3.18,9.51.55,2,1.48,2.78,3.65,2.67,3.39-.18,6.81-.05,10.21-.05.11.24.23.49.34.73-3.47,2.48-6.94,4.97-10.51,7.52,1.35,4.15,2.67,8.2,3.99,12.26-.14.13-.29.27-.43.4-2.95-2.08-5.97-4.09-8.83-6.28-1.41-1.08-2.43-1.07-3.84,0-2.84,2.16-5.83,4.16-9.5,6.74,1.06-3.31,1.84-5.81,2.67-8.3q1.61-4.84-2.69-7.88c-2.05-1.45-4.09-2.91-6.13-4.37.06-.28.12-.55.18-.83Z" style="fill:#fff; stroke-width:0px;"/><path d="M34.17,102.67c1.12,3.32,2.36,6.6,3.33,9.96.49,1.73,1.39,2.24,3.12,2.19,3.57-.1,7.15-.03,10.72-.03.08.25.15.49.23.74-2.9,2.05-5.75,4.16-8.71,6.13-1.42.95-1.87,1.83-1.2,3.53,1.27,3.27,2.24,6.66,2.85,10.45-2.39-1.68-5-3.14-7.11-5.1-2.62-2.43-4.68-2.11-7.2.06-2.17,1.87-4.66,3.38-7.55,4.7,1.09-3.32,2.08-6.67,3.33-9.94.67-1.76.27-2.77-1.29-3.79-2.9-1.91-5.67-4.01-8.36-6.78,3.33,0,6.67-.13,9.99.04,2.31.12,3.54-.48,4.13-2.85.77-3.13,2.01-6.16,3.04-9.23l.69-.08Z" style="fill:#fff; stroke-width:0px;"/><path d="M176.73,115.55c-2.76,1.95-5.45,4.01-8.29,5.83-1.77,1.13-2.23,2.25-1.44,4.25,1.25,3.16,2.16,6.46,2.73,10.04-2.9-2.05-5.88-4.03-8.69-6.19-1.51-1.16-2.59-1.1-4.08.05-2.74,2.12-5.65,4.04-9.08,5.75,1.07-3.29,2.03-6.62,3.27-9.85.67-1.75.39-2.77-1.21-3.81-2.92-1.9-5.7-4.01-8.53-6.03.04-.26.08-.52.12-.78,3.22,0,6.46-.17,9.67.05,2.6.18,3.92-.61,4.56-3.15.78-3.11,1.97-6.12,3.59-9.13,1.05,3.14,2.26,6.23,3.08,9.42.59,2.32,1.8,2.99,4.14,2.86,3.29-.19,6.61-.05,9.92-.05.09.25.17.49.26.74Z" style="fill:#fff; stroke-width:0px;"/><path d="M22.64,222.04c1.09-3.33,2.08-6.69,3.32-9.97.67-1.77.26-2.78-1.29-3.8-2.91-1.91-5.69-4-8.4-6.68,3.37,0,6.75-.16,10.1.05,2.43.15,3.48-.72,4.07-2.97.82-3.13,2.03-6.16,3.68-9.33,1.09,3.18,2.37,6.32,3.22,9.56.58,2.23,1.73,2.84,3.93,2.73,3.38-.16,6.78-.04,10.31.59-2.99,2.12-5.94,4.31-8.99,6.34-1.28.86-1.53,1.63-.99,3.08,1.25,3.39,2.27,6.86,2.92,10.71-2.88-2.03-5.82-3.98-8.61-6.12-1.47-1.13-2.55-1.23-4.08-.05-2.8,2.17-5.79,4.12-8.7,6.16-.16-.11-.33-.21-.49-.32Z" style="fill:#fff; stroke-width:0px;"/><path d="M221.59,128.17c-3.57,2.5-7.05,4.95-10.53,7.39-.2-.1-.41-.2-.61-.3.97-2.91,1.76-5.9,2.96-8.72,1.09-2.55.69-4.17-1.81-5.63-2.66-1.56-5.07-3.53-7.59-5.32l.12-.78h6.42q6.74,0,8.84-6.35c.65-1.98,1.33-3.95,2.27-6.72,1.35,4.02,2.58,7.23,3.48,10.52.57,2.08,1.66,2.68,3.75,2.59,3.39-.15,6.79-.04,10.18-.04.1.23.2.47.29.7-2.79,1.98-5.5,4.07-8.38,5.91-1.81,1.15-2.15,2.31-1.38,4.26,1.22,3.08,2.12,6.28,2.66,9.84-3.52-2.43-7.04-4.86-10.66-7.36Z" style="fill:#fff; stroke-width:0px;"/><path d="M176.76,202.25c-2.89,2.04-5.75,4.14-8.69,6.1-1.44.96-1.83,1.93-1.21,3.59,1.23,3.29,2.24,6.67,2.87,10.43-2.86-2.02-5.81-3.93-8.55-6.1-1.61-1.27-2.77-1.2-4.34.02-2.73,2.12-5.61,4.03-8.97,5.68.97-2.96,1.69-6.03,2.98-8.86,1.22-2.68.42-4.12-1.93-5.55-2.64-1.6-5.07-3.53-7.44-5.97,3.48,0,6.96-.09,10.44.04,1.97.07,3-.49,3.55-2.47.91-3.29,2.16-6.49,3.88-9.79,1.12,3.34,2.34,6.66,3.33,10.04.49,1.68,1.36,2.27,3.12,2.22,3.59-.11,7.18-.03,10.76-.03.07.22.14.43.21.65Z" style="fill:#fff; stroke-width:0px;"/><path d="M89.24,209.76c-3.49-2.49-6.94-4.96-10.4-7.43.03-.24.07-.48.1-.73,3.33,0,6.68-.16,10,.05,2.42.16,3.47-.7,4.07-2.94.82-3.11,2.03-6.12,3.71-9.25.85,2.43,1.72,4.86,2.55,7.3q1.64,4.84,6.94,4.85c2.45,0,4.9.05,7.34.11.14,0,.27.23.6.53-2.56,1.82-4.96,3.78-7.61,5.34-2.39,1.41-3.1,2.83-1.93,5.48,1.3,2.93,2.05,6.1,3.27,9.85-3.47-2.46-6.38-4.38-9.12-6.51-1.63-1.27-2.86-1.44-4.58-.07-2.71,2.16-5.64,4.04-9.2,6.54,1.57-4.84,2.88-8.89,4.25-13.12Z" style="fill:#fff; stroke-width:0px;"/><path d="M44.48,309.11c-2.89-2.04-5.86-3.99-8.64-6.17-1.52-1.19-2.6-1.1-4.07.03-2.76,2.12-5.66,4.06-9.08,5.8,1-3.08,1.83-6.23,3.05-9.22.93-2.27.52-3.63-1.61-4.94-2.78-1.71-5.36-3.74-8.02-5.63l.19-.74c3.56,0,7.12-.11,10.67.04,1.93.08,2.79-.63,3.31-2.36.98-3.28,2.13-6.52,3.84-9.85,1.12,3.29,2.38,6.54,3.31,9.88.52,1.87,1.47,2.38,3.31,2.32,3.49-.12,6.99-.03,10.48-.03.11.24.23.47.34.71-2.69,1.92-5.29,3.97-8.1,5.71-1.99,1.23-2.53,2.46-1.64,4.65,1.24,3.06,2.14,6.26,3.18,9.4l-.52.39Z" style="fill:#fff; stroke-width:0px;"/><path d="M329.49,114.82c2.91,0,5.86-.26,8.74.07,3.42.39,4.92-.91,5.6-4.09.59-2.75,1.75-5.38,3.32-8.09,1.05,3.09,2.31,6.13,3.09,9.29.58,2.37,1.79,2.98,4.11,2.86,3.3-.18,6.61-.05,10.22.6-2.85,2.05-5.61,4.23-8.59,6.08-1.79,1.11-1.95,2.19-1.27,3.98,1.22,3.2,2.2,6.48,2.86,10.13-2.95-2.07-5.97-4.07-8.84-6.24-1.4-1.06-2.4-1.12-3.83-.02-2.82,2.17-5.81,4.15-9.24,5.88,1.12-3.41,2.15-6.85,3.4-10.21.59-1.56.23-2.41-1.12-3.31-2.98-1.98-5.85-4.11-8.76-6.17.1-.26.2-.51.3-.77Z" style="fill:#fff; stroke-width:0px;"/><path d="M420.07,135.61c-2.92-2.05-5.88-4.04-8.72-6.19-1.36-1.02-2.37-1.18-3.82-.06-2.81,2.19-5.8,4.15-9.25,5.92,1.1-3.39,2.1-6.83,3.35-10.17.58-1.56.28-2.43-1.08-3.34-2.97-1.99-5.84-4.12-8.63-6.96,3.23,0,6.47-.17,9.67.05,2.6.18,3.91-.62,4.54-3.15.78-3.11,1.98-6.13,3.57-9.15,1.1,3.32,2.31,6.61,3.27,9.97.52,1.83,1.49,2.38,3.35,2.32,3.49-.12,6.99-.03,10.49-.03.11.23.22.46.33.69-2.7,1.92-5.32,3.95-8.12,5.71-1.99,1.25-2.49,2.5-1.58,4.71,1.25,3.04,2.1,6.25,3.12,9.38-.16.1-.33.21-.49.31Z" style="fill:#fff; stroke-width:0px;"/><path d="M79.07,288.26c3.49,0,6.98-.09,10.46.04,1.86.07,2.81-.48,3.33-2.32.92-3.28,2.13-6.49,3.91-9.8,1.1,3.26,2.3,6.49,3.25,9.8.51,1.8,1.42,2.4,3.3,2.32,3.51-.14,7.04-.04,10.95.58-3.53,2.53-7.06,5.06-10.66,7.64,1.36,4.17,2.68,8.22,4.29,13.16-3.61-2.55-6.58-4.48-9.34-6.67-1.62-1.28-2.77-1.16-4.33.04-2.74,2.12-5.65,4.04-8.99,5.73,1.13-3.41,2.18-6.84,3.42-10.21.55-1.5.34-2.41-1.06-3.33-2.99-1.97-5.85-4.11-8.76-6.18.08-.27.15-.54.23-.82Z" style="fill:#fff; stroke-width:0px;"/><path d="M273.02,135.31c1.14-3.41,2.23-6.84,3.45-10.22.54-1.49.3-2.41-1.11-3.33-3.04-1.98-5.93-4.16-8.89-6.26.09-.23.18-.46.28-.69,3.59,0,7.17-.08,10.75.03,1.76.06,2.63-.54,3.12-2.21.98-3.34,2.17-6.63,3.91-9.96,1.12,3.3,2.35,6.58,3.33,9.93.49,1.68,1.31,2.3,3.08,2.24,3.58-.11,7.16-.03,10.74-.03l.23.73c-2.89,2.05-5.74,4.17-8.7,6.14-1.43.95-1.85,1.85-1.2,3.53,1.26,3.27,2.25,6.65,2.86,10.43-2.63-1.87-5.37-3.61-7.86-5.64-1.97-1.61-3.47-1.8-5.52-.05-2.47,2.1-5.3,3.81-7.97,5.69-.17-.11-.33-.22-.5-.33Z" style="fill:#fff; stroke-width:0px;"/><path d="M169.72,309.13c-2.84-2.01-5.74-3.93-8.49-6.05-1.55-1.2-2.69-1.38-4.32-.07-2.7,2.16-5.63,4.05-9.02,5.74,1.1-3.39,2.1-6.82,3.35-10.16.59-1.57.25-2.44-1.09-3.35-2.97-2-5.85-4.12-8.77-6.19.04-.26.09-.52.13-.78,3.33,0,6.68-.16,10,.05,2.38.15,3.54-.6,4.15-2.88.85-3.19,2.05-6.29,3.69-9.36,1.15,3.42,2.18,6.89,3.53,10.24.34.85,1.67,1.8,2.59,1.86,3.67.21,7.36.09,11.3.75-2.78,2-5.49,4.11-8.38,5.95-1.82,1.16-2.15,2.32-1.38,4.27,1.22,3.1,2.12,6.32,3.15,9.49-.15.16-.3.32-.45.49Z" style="fill:#fff; stroke-width:0px;"/><path d="M221.94,189.39c1.14,3.34,2.39,6.64,3.36,10.02.5,1.73,1.39,2.26,3.13,2.21,3.58-.1,7.17-.03,10.91.62-2.44,1.73-4.76,3.64-7.34,5.13-2.62,1.52-3.46,3.1-2.09,6,1.25,2.64,1.89,5.56,2.25,8.86-1.91-1.34-3.82-2.67-5.72-4.02q-4.83-3.44-9.75.08c-1.88,1.35-3.78,2.67-6.23,3.71,1.08-3.31,2.03-6.67,3.28-9.92.69-1.78.32-2.78-1.25-3.81-2.91-1.91-5.7-4-8.41-6.69,2.48,0,4.96,0,7.45,0q5.66,0,7.47-5.41c.76-2.26,1.55-4.51,2.33-6.76.2-.01.41-.03.61-.04Z" style="fill:#fff; stroke-width:0px;"/><path d="M364.38,202.34c-3.39,2.41-6.77,4.82-10.38,7.4,1.34,4.14,2.68,8.26,4.25,13.1-3.46-2.43-6.39-4.29-9.09-6.44-1.8-1.44-3.09-1.29-4.82.09-2.62,2.08-5.46,3.9-8.69,5.49,1.1-3.32,2.09-6.69,3.34-9.96.68-1.77.27-2.73-1.3-3.75-2.92-1.89-5.69-4-8.39-6.67,3.37,0,6.74-.11,10.1.04,2.18.1,3.36-.46,3.93-2.73.81-3.2,2.09-6.28,3.83-9.45,1.09,3.27,2.26,6.52,3.24,9.83.52,1.75,1.42,2.43,3.32,2.35,3.49-.14,7-.04,10.5-.04.05.24.1.49.15.73Z" style="fill:#fff; stroke-width:0px;"/><path d="M294.83,222.29c-2.29-1.62-4.55-3.27-6.88-4.85-4.6-3.12-3-3.05-7.37-.06-2.25,1.54-4.45,3.13-6.69,4.69-.13.09-.36.07-.94.17,1.16-3.5,2.18-6.86,3.41-10.14.63-1.69.41-2.75-1.21-3.8-2.93-1.88-5.71-3.99-8.49-6.7,2.54,0,5.09,0,7.63,0q5.49,0,7.16-4.99c.7-2.09,1.43-4.16,2.15-6.24.09-.27.23-.52.66-1.51,1.12,3.15,2.05,5.75,2.96,8.34,1.74,4.98.35,4.33,6.13,4.39,2.8.03,5.61,0,8.57.63-2.98,2.12-5.92,4.3-8.95,6.35-1.26.85-1.53,1.62-1,3.07,1.26,3.39,2.28,6.86,3.4,10.3-.18.11-.36.23-.53.34Z" style="fill:#fff; stroke-width:0px;"/><path d="M419.99,309.01c-3.49-2.44-6.97-4.89-10.58-7.41-3.53,2.47-7.01,4.9-10.49,7.34l-.59-.31c.95-2.93,1.74-5.92,2.92-8.76,1.01-2.43.75-3.96-1.72-5.39-2.74-1.59-5.2-3.64-7.63-6.2,3.26,0,6.55-.2,9.79.06,2.69.21,3.83-.82,4.46-3.24.79-3.03,1.94-5.96,3.54-8.99.99,2.89,2.25,5.72,2.88,8.68.64,2.98,2.18,3.78,5.1,3.54,3.06-.25,6.15-.06,9.23-.06.07.23.14.46.21.69-2.89,2.06-5.74,4.17-8.69,6.15-1.43.96-1.84,1.92-1.22,3.59,1.23,3.28,2.24,6.64,3.33,9.97-.19.11-.37.22-.56.34Z" style="fill:#fff; stroke-width:0px;"/><path d="M329.45,288.27c3.59,0,7.19-.07,10.78.03,1.64.04,2.47-.49,2.93-2.06,1-3.36,2.2-6.67,3.98-10.04,1.07,3.17,2.3,6.3,3.17,9.53.56,2.06,1.62,2.68,3.71,2.58,3.4-.15,6.82-.04,10.57.6-2.69,1.92-5.29,3.99-8.1,5.72-2.12,1.3-2.54,2.59-1.6,4.86,1.25,2.98,2.07,6.13,3.36,10.09-3.46-2.42-6.34-4.25-9-6.36-1.74-1.38-3.03-1.49-4.81-.06-2.62,2.11-5.48,3.95-8.77,5.58,1.12-3.4,2.14-6.82,3.39-10.17.57-1.53.3-2.42-1.08-3.33-2.98-1.98-5.86-4.11-8.77-6.17l.24-.8Z" style="fill:#fff; stroke-width:0px;"/><path d="M409.76,189.48c1.13,3.35,2.35,6.67,3.35,10.06.47,1.57,1.26,2.14,2.91,2.1,3.6-.09,7.2-.03,11.07.59-2.69,1.93-5.29,4.01-8.12,5.73-2.09,1.28-2.36,2.6-1.5,4.73,1.2,3,2.07,6.12,2.63,9.6-2.87-2-5.82-3.9-8.56-6.05-1.63-1.28-2.78-1.16-4.34.05-2.66,2.07-5.49,3.94-8.88,5.55,1.05-3.21,1.97-6.46,3.19-9.6.71-1.84.46-2.92-1.29-4.02-2.92-1.85-5.66-3.97-8.29-6.61,3.2,0,6.42-.21,9.59.06,2.83.25,4.02-.85,4.67-3.4.78-3.02,1.95-5.95,2.94-8.92.21.04.42.08.63.12Z" style="fill:#fff; stroke-width:0px;"/><path d="M75.78,92.24c-2.91-2.06-5.86-4.04-8.69-6.2-1.38-1.05-2.41-1.13-3.83-.04-2.84,2.17-5.82,4.16-9.3,5.91,1.06-3.29,1.98-6.63,3.25-9.84.75-1.91.28-2.94-1.36-4.01-2.83-1.84-5.52-3.88-8.27-5.84.05-.26.09-.52.14-.77,3.34,0,6.69-.14,10.02.05,2.24.13,3.36-.56,3.95-2.71.88-3.22,2.06-6.35,3.78-9.64,1.04,3.12,2.27,6.19,3.07,9.36.62,2.44,1.89,3.14,4.34,2.99,3.19-.2,6.41-.05,9.62-.05.12.24.24.48.36.71-2.61,1.85-5.11,3.87-7.86,5.5-2.28,1.36-2.67,2.77-1.68,5.14,1.24,2.94,2.04,6.06,3.04,9.1-.18.11-.37.23-.55.34Z" style="fill:#fff; stroke-width:0px;"/><path d="M395.66,72.19c-2.8,2.01-5.53,4.1-8.41,5.98-1.6,1.05-1.89,2.08-1.23,3.82,1.22,3.2,2.18,6.49,2.75,10.19-2.79-1.96-5.67-3.81-8.34-5.91-1.66-1.3-2.87-1.38-4.56-.04-2.7,2.14-5.62,4.02-8.94,5.66,1.13-3.42,2.19-6.86,3.42-10.25.55-1.5.34-2.38-1.09-3.3-2.99-1.93-5.83-4.09-8.56-6.89,3.46,0,6.92-.12,10.37.05,2.03.1,2.97-.56,3.5-2.48.89-3.21,2.08-6.33,3.92-9.67.88,2.62,1.74,5.25,2.65,7.86,1.8,5.11.62,4.14,5.96,4.23,2.78.05,5.56,0,8.35,0,.07.25.15.49.22.74Z" style="fill:#fff; stroke-width:0px;"/><path d="M298.14,71.44c3.37,0,6.74-.12,10.11.04,2.09.1,3.2-.48,3.76-2.57.86-3.22,2.06-6.37,3.42-10.46.88,2.4,1.49,4,2.05,5.61.63,1.81,1.03,3.73,1.9,5.42.45.86,1.69,1.81,2.63,1.87,3.59.22,7.2.09,10.8.09.12.24.24.47.36.71-2.61,1.86-5.15,3.83-7.86,5.53-2.03,1.27-2.71,2.53-1.71,4.88,1.27,2.97,2.08,6.12,2.6,9.62-2.4-1.68-4.95-3.19-7.15-5.09-2.47-2.13-4.45-2.34-6.99-.05-2.18,1.98-4.82,3.47-7.74,4.85,1.09-3.33,2.06-6.71,3.32-9.98.69-1.79.26-2.77-1.29-3.78-2.88-1.89-5.64-3.96-8.45-5.95l.23-.75Z" style="fill:#fff; stroke-width:0px;"/><path d="M423.26,158.29h12.93c1.45-4.2,2.84-8.23,4.23-12.26.22,0,.44,0,.66,0,1.12,3.34,2.32,6.65,3.32,10.02.49,1.68,1.35,2.24,3.12,2.17,3.52-.13,7.05-.04,10.93.53-2.43,1.77-4.73,3.76-7.34,5.23-2.84,1.61-3.28,3.42-2.01,6.27,1.19,2.67,1.88,5.56,3.06,9.21-4.29-3-7.84-5.47-11.44-7.99-3.59,2.53-7.08,4.97-10.56,7.42-.18-.09-.36-.19-.53-.28.72-2.29,1.42-4.59,2.17-6.87q1.78-5.41-2.98-8.8c-1.9-1.35-3.79-2.69-5.68-4.04.05-.21.09-.42.14-.63Z" style="fill:#fff; stroke-width:0px;"/><path d="M423.36,71.45c3.58,0,7.17-.09,10.75.04,1.69.06,2.43-.55,2.89-2.08,1.02-3.36,2.22-6.67,4.05-10.03,1.09,3.22,2.31,6.4,3.23,9.67.54,1.94,1.52,2.55,3.53,2.46,3.4-.16,6.81-.04,10.55.64-2.46,1.75-4.82,3.68-7.42,5.21-2.5,1.48-3.27,3.01-1.99,5.78,1.27,2.75,1.96,5.76,2.43,9.06-2.88-2.02-5.82-3.95-8.6-6.09-1.47-1.13-2.55-1.25-4.07-.06-2.74,2.14-5.67,4.06-9.16,5.8.97-2.99,1.72-6.06,2.97-8.93,1.08-2.49.67-3.95-1.74-5.36-2.67-1.55-5.07-3.54-7.59-5.34.06-.26.11-.52.17-.78Z" style="fill:#fff; stroke-width:0px;"/><path d="M266.78,288.27c3.49,0,6.99-.13,10.48.05,2.07.1,2.94-.66,3.46-2.53.9-3.21,2.07-6.35,3.83-9.67.96,2.9,2.1,5.76,2.83,8.71.66,2.67,1.94,3.76,4.85,3.5,3.08-.28,6.21-.06,9.32-.06l.36.71c-2.45,1.74-4.78,3.66-7.37,5.18-2.57,1.52-3.46,3.06-2.07,5.97,1.3,2.71,1.94,5.72,3.15,9.46-3.63-2.55-6.6-4.5-9.41-6.65-1.5-1.15-2.59-1.13-4.07.03-2.75,2.13-5.66,4.07-9.06,5.83.99-3.08,1.75-6.25,3.04-9.2,1.08-2.47.4-3.76-1.77-5.08-2.72-1.65-5.22-3.64-7.81-5.49.08-.25.15-.5.23-.75Z" style="fill:#fff; stroke-width:0px;"/><path d="M65.16,171.49c-3.64,2.55-7.18,5.03-10.71,7.51-.16-.13-.33-.25-.49-.38,1.03-3.16,1.9-6.37,3.14-9.45.83-2.05.53-3.27-1.41-4.49-2.86-1.79-5.53-3.87-8.15-6.5,3.55,0,7.11-.11,10.66.04,1.91.08,2.79-.55,3.31-2.33.95-3.31,2.14-6.55,3.53-10.75.88,2.39,1.5,3.97,2.04,5.59q2.51,7.44,10.63,7.44c1.66,0,3.31,0,4.97,0l.31.58c-2.87,2.04-5.65,4.2-8.63,6.09-1.75,1.11-2,2.2-1.29,4.03,1.23,3.19,2.17,6.48,2.73,10.12-3.45-2.43-6.9-4.87-10.64-7.51Z" style="fill:#fff; stroke-width:0px;"/><path d="M253.28,59.26c1.11,3.33,2.31,6.64,3.31,10,.49,1.65,1.32,2.29,3.11,2.22,3.51-.13,7.03-.04,10.54-.04.13.23.26.47.39.7-2.45,1.74-4.78,3.69-7.4,5.16-2.74,1.54-3.2,3.26-1.96,6.03,1.23,2.74,1.94,5.7,2.34,8.89-2.83-2-5.74-3.92-8.48-6.04-1.56-1.21-2.71-1.32-4.33-.04-2.72,2.15-5.64,4.06-9.03,5.71.93-2.88,1.59-5.87,2.87-8.59,1.37-2.91.48-4.5-2.1-6.02-2.55-1.5-4.86-3.39-7.27-5.1.08-.24.15-.47.23-.71,3.37,0,6.75-.15,10.11.05,2.31.14,3.29-.73,3.87-2.81.89-3.18,2.05-6.29,3.1-9.43.23,0,.47,0,.7,0Z" style="fill:#fff; stroke-width:0px;"/><path d="M128.09,59.32c.82,2.43,1.6,4.87,2.46,7.28,2.09,5.89.5,4.7,6.98,4.83,2.5.05,5.01,0,7.52,0,.11.25.21.5.32.75-2.7,1.92-5.33,3.95-8.14,5.71-1.91,1.19-2.32,2.39-1.48,4.46,1.24,3.08,2.13,6.29,2.63,9.88-2.88-2.04-5.82-3.99-8.6-6.14-1.5-1.16-2.6-1.14-4.08,0-2.81,2.16-5.78,4.14-9.19,5.81,1.14-3.41,2.21-6.84,3.44-10.22.53-1.47.38-2.39-1.07-3.32-3-1.94-5.84-4.1-8.74-6.17.05-.25.1-.51.14-.76,2.36,0,4.73,0,7.09,0q5.96,0,7.84-5.64c.72-2.15,1.43-4.31,2.15-6.46l.74-.03Z" style="fill:#fff; stroke-width:0px;"/><path d="M145.44,158.87c-2.92,2.08-5.79,4.24-8.79,6.22-1.39.92-1.68,1.81-1.12,3.34,1.21,3.31,2.24,6.69,2.84,10.52-3.49-2.45-6.98-4.9-10.62-7.45-3.59,2.51-7.15,5-10.72,7.49l-.51-.3c1.12-3.39,2.16-6.8,3.4-10.15.61-1.63.28-2.57-1.2-3.54-2.99-1.96-5.84-4.11-8.6-6.83,3.65,0,7.31-.09,10.96.04,1.66.06,2.46-.45,2.93-2.02,1.01-3.39,2.19-6.73,4.04-10.3.79,2.36,1.58,4.71,2.37,7.07q1.73,5.21,7.28,5.21c2.52,0,5.04,0,7.55,0,.06.23.12.46.17.69Z" style="fill:#fff; stroke-width:0px;"/><path d="M82.76,245.7c-2.9,2.06-5.76,4.2-8.73,6.16-1.39.92-1.65,1.83-1.09,3.35,1.24,3.36,2.3,6.78,2.82,10.53-2.9-2.06-5.86-4.05-8.69-6.21-1.4-1.07-2.43-1.07-3.84,0-2.84,2.16-5.82,4.15-9.32,5.88.98-2.93,1.79-5.93,2.98-8.78,1.05-2.52.74-4.15-1.8-5.62-2.66-1.53-5.03-3.53-7.38-6.05,3.45,0,6.9-.14,10.34.05,2.06.11,2.97-.6,3.51-2.48.95-3.3,2.13-6.53,3.86-9.9,1.08,3.22,2.31,6.39,3.18,9.66.58,2.18,1.7,2.85,3.93,2.72,3.3-.19,6.61-.05,9.92-.05l.29.73Z" style="fill:#fff; stroke-width:0px;"/><path d="M458.33,245.65c-2.64,1.89-5.17,3.96-7.96,5.63-2.22,1.33-2.43,2.73-1.54,4.94,1.2,2.99,2.06,6.11,2.56,9.51-2.84-2-5.75-3.9-8.48-6.02-1.57-1.22-2.7-1.33-4.32-.05-2.72,2.15-5.65,4.05-9.04,5.73,1.09-3.31,2.07-6.66,3.3-9.92.66-1.75.35-2.74-1.26-3.78-2.91-1.88-5.65-4-8.29-6.7,3.56,0,7.12-.1,10.68.04,1.82.07,2.59-.59,3.07-2.23.97-3.29,2.16-6.51,4.03-9.88,1,2.99,2.21,5.93,2.95,8.99.62,2.55,1.9,3.34,4.51,3.14,3.16-.24,6.36-.06,9.55-.06.08.22.15.45.23.67Z" style="fill:#fff; stroke-width:0px;"/><path d="M232.18,308.98c-3.49-2.43-6.98-4.86-10.58-7.36-3.55,2.49-7.04,4.94-10.53,7.39-.21-.09-.42-.19-.63-.28.97-2.9,1.74-5.88,2.96-8.68,1.19-2.72.55-4.34-2.02-5.83-2.63-1.53-4.99-3.5-7.22-5.95,3.49,0,6.98-.13,10.46.05,2.08.11,2.97-.7,3.51-2.53.96-3.27,2.11-6.49,3.78-9.72,1.13,3.33,2.36,6.64,3.34,10.01.49,1.7,1.35,2.28,3.12,2.22,3.57-.11,7.15-.03,10.73-.03.08.24.16.48.24.72-2.82,2-5.57,4.09-8.47,5.96-1.69,1.09-2.07,2.15-1.33,4.03,1.23,3.16,2.14,6.44,3.18,9.67-.18.11-.36.21-.53.32Z" style="fill:#fff; stroke-width:0px;"/><path d="M172.86,158.27h12.95c1.44-4.19,2.81-8.22,4.19-12.25.23,0,.46,0,.68,0,1.11,3.32,2.3,6.63,3.31,9.98.49,1.62,1.23,2.31,3.07,2.23,3.58-.16,7.17-.05,11,.62-2.56,1.82-5.04,3.78-7.72,5.42-2.25,1.38-3.04,2.75-1.88,5.34,1.28,2.86,2.04,5.94,2.56,9.35-3.52-2.45-7.03-4.89-10.7-7.45-3.56,2.48-7.12,4.96-10.67,7.44l-.51-.31c1.09-3.31,2.08-6.65,3.3-9.91.64-1.7.42-2.75-1.21-3.79-2.94-1.89-5.71-4.01-8.56-6.03.06-.21.12-.42.17-.64Z" style="fill:#fff; stroke-width:0px;"/><path d="M201.16,92.37c-3.11-2.21-6.01-4.15-8.77-6.27-1.47-1.13-2.58-1.2-4.09-.02-2.74,2.14-5.66,4.07-9.1,5.81.96-3,1.69-6.08,2.93-8.96,1.07-2.49.69-3.94-1.72-5.35-2.71-1.58-5.15-3.61-7.47-6.04h12.86c1.44-4.18,2.8-8.13,4.16-12.08l.74-.08c1.07,3.2,2.26,6.36,3.18,9.6.54,1.89,1.43,2.62,3.5,2.51,3.42-.18,6.85-.05,10.68.61-2.21,1.57-4.45,3.12-6.64,4.73-4.78,3.53-4.12,1.8-2.45,7.27.73,2.38,1.54,4.74,2.3,7.12.05.16-.03.37-.12,1.14Z" style="fill:#fff; stroke-width:0px;"/><path d="M360.86,244.98c3.23,0,6.47-.2,9.68.06,2.59.21,3.61-.81,4.22-3.1.8-3.02,1.96-5.95,3.73-9.04,1.04,3.09,2.25,6.13,3.05,9.28.6,2.31,1.76,3.02,4.13,2.86,3.2-.21,6.43-.05,9.97.52-1.3,1-2.59,2.01-3.9,2.98-1.33.98-2.61,2.08-4.06,2.84-2.22,1.16-2.33,2.62-1.49,4.73,1.2,3,2.09,6.11,2.56,9.6-2.88-2.03-5.84-3.97-8.62-6.12-1.52-1.17-2.61-1.11-4.08.03-2.75,2.12-5.66,4.06-9.08,5.8.85-2.63,1.68-5.26,2.55-7.88q1.45-4.38-2.27-7.03c-2.25-1.61-4.49-3.23-6.73-4.85.11-.22.22-.45.33-.67Z" style="fill:#fff; stroke-width:0px;"/><path d="M388.7,178.93c-3.47-2.45-6.95-4.9-10.55-7.45-3.6,2.52-7.16,5.01-10.71,7.5-.17-.1-.33-.2-.5-.3,1.12-3.39,2.13-6.83,3.4-10.17.64-1.68.2-2.57-1.24-3.52-2.95-1.95-5.78-4.07-8.65-6.11.08-.23.17-.46.25-.68,2.6,0,5.2,0,7.8,0q5.18,0,6.84-4.96c.78-2.34,1.58-4.67,2.37-7l.8-.13c1,3,2.19,5.95,2.95,9,.62,2.51,1.86,3.36,4.5,3.15,3.19-.25,6.43-.06,9.94.53-2.86,2.05-5.66,4.17-8.59,6.11-1.53,1.01-2.01,1.97-1.32,3.77,1.24,3.2,2.19,6.5,3.27,9.76-.18.17-.36.34-.54.51Z" style="fill:#fff; stroke-width:0px;"/><path d="M116.54,265.3c1.14-3.43,2.22-6.88,3.46-10.27.51-1.41.24-2.23-1.04-3.08-2.98-1.98-5.85-4.13-8.69-6.98,2.82,0,5.64.04,8.46,0,5.56-.1,4.15.84,5.96-4.17.91-2.52,1.7-5.08,2.55-7.62.03-.09.12-.15.67-.84.91,2.72,1.66,5.09,2.49,7.42,2.29,6.41.51,5.06,7.28,5.22,2.43.05,4.86,0,7.29,0,.14.23.28.46.41.69-2.29,1.63-4.59,3.24-6.85,4.89-4.42,3.23-3.82,1.78-2.23,6.83.82,2.63,1.72,5.23,2.06,8.36-2.68-1.9-5.49-3.66-8.01-5.75-1.96-1.62-3.41-1.48-5.3.05-2.54,2.05-5.32,3.83-7.99,5.73-.18-.16-.35-.32-.53-.47Z" style="fill:#fff; stroke-width:0px;"/><path d="M263.56,265.73c-2.99-2.12-6.02-4.19-8.96-6.38-1.22-.91-2.13-.91-3.36,0-2.92,2.19-5.94,4.25-9.46,5.98,1.08-3.33,2.06-6.71,3.3-9.99.63-1.66.32-2.62-1.15-3.59-2.91-1.93-5.71-4.01-8.47-6.79,3.02,0,6.06-.21,9.05.06,3.06.28,4.64-.61,5.27-3.69.59-2.87,1.82-5.62,3.49-8.57.97,2.89,2.17,5.73,2.84,8.69.66,2.89,2.1,3.86,5.09,3.57,2.99-.28,6.03-.06,9.41.61-2.69,1.92-5.29,4-8.11,5.71-2.09,1.27-2.37,2.55-1.49,4.7,1.23,2.99,2.09,6.13,3.1,9.21-.18.16-.36.31-.54.47Z" style="fill:#fff; stroke-width:0px;"/><path d="M326.16,265.72c-2.92-2.06-5.89-4.04-8.73-6.2-1.41-1.08-2.44-1.05-3.84.01-2.84,2.17-5.81,4.17-9.26,5.91,1-3.04,1.82-6.15,3.04-9.11.97-2.35.66-3.8-1.66-5.16-2.73-1.61-5.2-3.62-7.61-6.19,3.46,0,6.92-.14,10.37.05,2.08.11,2.96-.64,3.5-2.51.94-3.27,2.12-6.48,3.88-9.77,1.11,3.31,2.32,6.6,3.29,9.95.52,1.81,1.46,2.39,3.34,2.32,3.47-.14,6.94-.04,10.42-.04.07.23.14.46.21.7-2.8,2.01-5.55,4.09-8.42,5.99-1.54,1.02-1.98,2-1.3,3.78,1.25,3.26,2.24,6.62,3.33,9.93-.19.12-.37.23-.56.35Z" style="fill:#fff; stroke-width:0px;"/><path d="M333.25,158.8c-2.89,2.08-5.72,4.24-8.69,6.19-1.48.97-1.84,1.9-1.22,3.55,1.23,3.29,2.24,6.66,2.87,10.4-3.52-2.45-7.05-4.9-10.69-7.43-3.61,2.52-7.16,5-11.45,8,1.36-4.15,2.35-7.52,3.58-10.79.65-1.73.4-2.75-1.23-3.79-2.94-1.88-5.71-4.01-8.5-6.74,3.12,0,6.26-.22,9.35.06,2.99.28,4.41-.67,5.05-3.58.65-2.95,1.87-5.77,3.54-8.74,1.1,3.3,2.3,6.58,3.27,9.92.51,1.74,1.32,2.47,3.27,2.38,3.52-.16,7.05-.05,10.57-.05.1.2.19.41.29.61Z" style="fill:#fff; stroke-width:0px;"/><path d="M241.82,178.43c1.09-3.35,2.09-6.72,3.32-10.02.58-1.56.22-2.43-1.14-3.33-2.98-1.98-5.85-4.12-8.66-6.88,2.65,0,5.31,0,7.96,0q5.22,0,6.86-4.96c.8-2.42,1.61-4.83,3.11-7.26.87,2.6,1.75,5.19,2.62,7.79q1.48,4.42,6.37,4.42c2.7,0,5.4,0,8.11,0,.09.23.18.45.26.68-2.16,1.54-4.35,3.03-6.47,4.62-4.96,3.73-4.29,1.76-2.56,7.45.73,2.38,1.56,4.73,2.33,7.1.05.16,0,.36,0,1.14-3.79-2.64-7.28-5.08-10.99-7.67-3.53,2.46-7.08,4.93-10.62,7.4-.17-.16-.34-.32-.5-.48Z" style="fill:#fff; stroke-width:0px;"/><path d="M201.7,266.21c-3.12-2.19-5.69-3.64-7.8-5.56-2.62-2.38-4.68-2.15-7.22.08-2.14,1.89-4.67,3.35-7.53,4.67,1.12-3.42,2.14-6.88,3.4-10.25.58-1.56.25-2.4-1.13-3.31-2.97-1.96-5.82-4.09-8.54-6.87,3.56,0,7.12-.09,10.67.04,1.78.07,2.61-.52,3.1-2.19.99-3.36,2.2-6.66,4.02-10.01,1.02,3.03,2.19,6.03,3.02,9.11.62,2.29,1.66,3.31,4.24,3.1,3.21-.25,6.46-.06,10.67-.06-1.79,1.39-2.92,2.27-4.04,3.15-2.27,1.77-5.71,3.17-6.49,5.43-.73,2.13,1.33,5.18,2.15,7.83.41,1.33.81,2.66,1.47,4.83Z" style="fill:#fff; stroke-width:0px;"/><path d="M169.65,48.85c-2.61-1.84-5.38-3.51-7.78-5.58-2.16-1.87-3.74-1.56-5.78.09-2.44,1.98-5.12,3.68-8.23,5.13,1.07-3.24,2.04-6.51,3.24-9.69.68-1.8.5-2.92-1.27-4.03-2.88-1.8-5.57-3.89-8.33-6.59,2.82,0,5.65.02,8.47,0,5.63-.04,4.32.53,5.98-4.21.94-2.68,1.86-5.38,3.38-8.09,1.06,3.18,2.24,6.33,3.15,9.55.58,2.06,1.54,2.96,3.87,2.81,3.37-.22,6.76-.06,10.32.56-2.41,1.72-4.68,3.66-7.25,5.09-2.87,1.6-3.3,3.45-2.04,6.3,1.18,2.68,1.89,5.56,2.8,8.35-.18.11-.36.22-.55.32Z" style="fill:#fff; stroke-width:0px;"/><path d="M107.95,49.49c-3.68-2.6-6.73-4.63-9.61-6.85-1.43-1.1-2.45-1.02-3.84.03-2.85,2.16-5.82,4.16-9.28,5.94,1.12-3.39,2.15-6.81,3.41-10.15.62-1.65.28-2.57-1.18-3.54-2.91-1.92-5.7-4.01-8.49-6.76,3.14,0,6.29-.22,9.4.06,2.93.27,4.17-.86,4.85-3.5.76-2.98,1.94-5.87,3.58-8.74,1.07,3.12,2.33,6.19,3.13,9.38.59,2.35,1.77,2.99,4.1,2.85,3.27-.2,6.56-.05,10.06.62-2.88,2.04-5.71,4.15-8.66,6.09-1.45.95-1.81,1.89-1.2,3.52,1.27,3.37,2.32,6.82,3.73,11.05Z" style="fill:#fff; stroke-width:0px;"/><path d="M239.21,28.87c-2.84,2.01-5.64,4.09-8.54,6.01-1.44.95-1.87,1.85-1.21,3.55,1.26,3.28,2.22,6.67,2.82,10.42-2.87-2.03-5.8-3.98-8.59-6.11-1.47-1.12-2.57-1.23-4.09-.04-2.74,2.14-5.66,4.07-9.13,5.79,1.01-3.08,1.86-6.23,3.09-9.23.95-2.31.4-3.63-1.69-4.92-2.71-1.67-5.23-3.64-7.74-6.18,2.65,0,5.31.04,7.96,0,6.27-.11,4.61.92,6.71-4.82.91-2.49,1.71-5.03,2.84-8.34,1.33,3.95,2.51,7.08,3.4,10.28.61,2.17,1.58,3.15,4.07,2.96,3.29-.25,6.61-.06,9.91-.06.06.23.13.46.19.7Z" style="fill:#fff; stroke-width:0px;"/><path d="M34.16,15.94c1.13,3.32,2.4,6.6,3.34,9.97.52,1.86,1.45,2.38,3.31,2.31,3.49-.13,6.98-.04,10.7.6-2.88,2.04-5.71,4.15-8.65,6.09-1.44.95-1.86,1.83-1.2,3.53,1.23,3.19,2.17,6.49,3.22,9.74-.19.18-.39.37-.58.55-2.61-1.84-5.34-3.54-7.8-5.55-1.92-1.57-3.36-1.62-5.29-.03-2.54,2.08-5.34,3.85-8.56,5.48,1.08-3.3,2.03-6.65,3.29-9.89.73-1.89.29-2.94-1.38-4.02-2.85-1.83-5.54-3.89-8.23-6.54,3.34,0,6.7-.17,10.02.06,2.44.17,3.48-.71,4.08-2.95.83-3.13,2.02-6.17,3.06-9.24.23-.03.45-.06.68-.1Z" style="fill:#fff; stroke-width:0px;"/><path d="M294.86,48.85c-2.93-2.06-5.92-4.05-8.76-6.22-1.43-1.09-2.44-1.01-3.84.06-2.84,2.18-5.83,4.17-9.49,6.74,1.35-4.1,2.31-7.47,3.58-10.73.74-1.89.29-2.92-1.39-3.99-2.86-1.83-5.56-3.89-8.29-6.54,3.24,0,6.48-.17,9.7.05,2.59.18,3.88-.58,4.5-3.16.74-3.1,2.01-6.07,3.66-9.13,1.13,3.31,2.38,6.58,3.33,9.94.52,1.84,1.42,2.4,3.3,2.33,3.49-.14,6.98-.04,10.69.59-2.95,2.11-5.86,4.27-8.86,6.3-1.25.84-1.56,1.61-1.02,3.07,1.26,3.39,2.28,6.87,3.4,10.31-.17.12-.34.25-.5.37Z" style="fill:#fff; stroke-width:0px;"/><path d="M335.67,48.51c.82-2.52,1.63-5.04,2.47-7.55q1.55-4.66-2.41-7.47c-2.17-1.55-4.33-3.11-6.32-5.31,3.27,0,6.56-.15,9.82.05,2.35.14,3.53-.51,4.13-2.85.82-3.19,2.09-6.27,3.8-9.4,1.1,3.29,2.27,6.55,3.27,9.87.51,1.72,1.34,2.47,3.29,2.38,3.48-.16,6.97-.05,10.72.62-2.87,2.04-5.7,4.14-8.64,6.08-1.45.96-1.8,1.91-1.2,3.53,1.26,3.38,2.31,6.83,3.69,10.96-3.59-2.52-6.58-4.5-9.42-6.67-1.48-1.13-2.57-1.21-4.08-.04-2.79,2.16-5.76,4.11-8.65,6.15-.15-.12-.31-.24-.46-.36Z" style="fill:#fff; stroke-width:0px;"/><path d="M426.99,28.87c-2.84,2.01-5.63,4.09-8.53,6.01-1.45.96-1.85,1.9-1.23,3.57,1.24,3.29,2.23,6.66,2.85,10.39-2.32-1.63-4.81-3.06-6.91-4.93-2.62-2.34-4.77-2.55-7.45-.05-2.03,1.88-4.53,3.28-7.41,4.65.89-2.81,1.53-5.74,2.75-8.4,1.35-2.92.71-4.66-2.08-6.24-2.52-1.42-4.76-3.31-7.06-5.7,3.14,0,6.31-.22,9.43.06,2.93.26,4.19-.83,4.85-3.52.75-3.03,1.95-5.95,3.22-9.73,1.33,3.99,2.52,7.09,3.39,10.28.6,2.19,1.58,3.15,4.06,2.96,3.29-.25,6.62-.06,9.93-.06.06.23.11.46.17.69Z" style="fill:#fff; stroke-width:0px;"/></svg>