<?xml version="1.0" encoding="UTF-8"?><svg id="Camada_1" xmlns="http://www.w3.org/2000/svg" viewBox="0 0 460.38 281"><path d="M0,0v151.29c.56,0,1.13-.02,1.69-.02h180.94c91.74,0,183.48.01,275.23.01.59,0,1.18-.06,1.75.08.06.17.13.27.13.37v19.56c0,.1-.07.2-.13.35-.16.03-.34.09-.52.1-.37.01-.75.01-1.12.01H0v22.25c.64.02,1.27.05,1.91.05h455.76c.45,0,.9-.01,1.35.01.21.01.43.08.62.13.17.99.16,19.21-.01,20.18-.19.03-.4.09-.61.1-.38.02-.75.01-1.13.01H1.46c-.48,0-.97-.02-1.46-.02v25.17c.26-.03.52-.09.77-.1.38-.02.75-.01,1.13-.01,151.94,0,303.88,0,455.82.01.63,0,1.27-.08,1.91.09.21.45.13.9.13,1.34v18.8c-.27.07-.47.15-.68.16-.37.03-.75.01-1.12.01H1.46c-.49,0-.97-.04-1.46-.07v21.14h460.38V0H0ZM184.44,21.49c.11-.06.18-.13.24-.13,91.34-.02,182.67-.03,274.01-.05.29,0,.59.04.94.06.19,1.17.26,13.43.13,19.42-.01.26-.05.51-.07.72-.13.07-.19.14-.25.14-91.42.02-182.83.03-274.24.05-.22,0-.44-.05-.71-.08-.05-.22-.12-.43-.15-.64-.02-.26-.01-.52-.01-.78,0-5.81,0-11.62.01-17.43,0-.44-.07-.89.1-1.28ZM459.66,86.43c-.22.04-.43.11-.64.12-.37.02-.75.01-1.12.01-90.59,0-181.17,0-271.75-.01-.55,0-1.11.07-1.71-.1-.14-1.09-.14-19.18,0-20.17.18-.05.38-.14.59-.16.38-.02.75-.01,1.13-.01h271.74c.56,0,1.11.03,1.73.04.05.28.11.48.12.7.02.26.01.52.01.78v17.42c0,.44.06.9-.1,1.38ZM459.64,128.1c-.19.03-.4.09-.62.1-.33.02-.67.01-1.01.01-90.66,0-181.32,0-271.98-.01-.51,0-1.04.1-1.6-.14-.03-.28-.09-.57-.09-.86-.15-6.8-.07-18.2.14-19.27.19-.03.4-.08.61-.09.34-.02.68-.01,1.01-.01h271.87c.55,0,1.12-.08,1.72.11.03.28.06.53.07.79.14,6.13.06,18.24-.12,19.37Z" style="fill:#fff; stroke-width:0px;"/><path d="M459.63,214.37c-.19.03-.4.09-.61.1-.38.02-.75.01-1.13.01H1.46c-.48,0-.97-.02-1.46-.02v-20.46c.64.02,1.27.05,1.91.05h455.76c.45,0,.9-.01,1.35.01.21.01.43.08.62.13.17.99.16,19.21-.01,20.18Z" style="fill:#000; stroke-width:0px;"/><path d="M459.74,151.73v19.56c0,.1-.07.2-.13.35-.16.03-.34.09-.52.1-.37.01-.75.01-1.12.01H0v-20.46c.56,0,1.13-.02,1.69-.02h180.94c91.74,0,183.48.01,275.23.01.59,0,1.18-.06,1.75.08.06.17.13.27.13.37Z" style="fill:#000; stroke-width:0px;"/><path d="M459.76,240.96v18.8c-.27.07-.47.15-.68.16-.37.03-.75.01-1.12.01H1.46c-.49,0-.97-.04-1.46-.07v-20.23c.26-.03.52-.09.77-.1.38-.02.75-.01,1.13-.01,151.94,0,303.88,0,455.82.01.63,0,1.27-.08,1.91.09.21.45.13.9.13,1.34Z" style="fill:#000; stroke-width:0px;"/><path d="M459.66,86.43c-.22.04-.43.11-.64.12-.37.02-.75.01-1.12.01-90.59,0-181.17,0-271.75-.01-.55,0-1.11.07-1.71-.1-.14-1.09-.14-19.18,0-20.17.18-.05.38-.14.59-.16.38-.02.75-.01,1.13-.01h271.74c.56,0,1.11.03,1.73.04.05.28.11.48.12.7.02.26.01.52.01.78v17.42c0,.44.06.9-.1,1.38Z" style="fill:#000; stroke-width:0px;"/><path d="M459.64,128.1c-.19.03-.4.09-.62.1-.33.02-.67.01-1.01.01-90.66,0-181.32,0-271.98-.01-.51,0-1.04.1-1.6-.14-.03-.28-.09-.57-.09-.86-.15-6.8-.07-18.2.14-19.27.19-.03.4-.08.61-.09.34-.02.68-.01,1.01-.01h271.87c.55,0,1.12-.08,1.72.11.03.28.06.53.07.79.14,6.13.06,18.24-.12,19.37Z" style="fill:#000; stroke-width:0px;"/><path d="M459.76,40.79c-.01.26-.05.51-.07.72-.13.07-.19.14-.25.14-91.42.02-182.83.03-274.24.05-.22,0-.44-.05-.71-.08-.05-.22-.12-.43-.15-.64-.02-.26-.01-.52-.01-.78,0-5.81,0-11.62.01-17.43,0-.44-.07-.89.1-1.28.11-.06.18-.13.24-.13,91.34-.02,182.67-.03,274.01-.05.29,0,.59.04.94.06.19,1.17.26,13.43.13,19.42Z" style="fill:#000; stroke-width:0px;"/></svg>